G75*
%MOIN*%
%OFA0B0*%
%FSLAX25Y25*%
%IPPOS*%
%LPD*%
%AMOC8*
5,1,8,0,0,1.08239X$1,22.5*
%
%ADD10C,0.13398*%
%ADD11C,0.13800*%
%ADD12OC8,0.06800*%
%ADD13R,0.08200X0.08200*%
%ADD14C,0.08200*%
%ADD15C,0.08477*%
D10*
X0085000Y0071800D03*
X0395000Y0191800D03*
D11*
X0165000Y0161800D03*
D12*
X0050000Y0131800D03*
X0040000Y0131800D03*
X0040000Y0121800D03*
X0050000Y0121800D03*
X0050000Y0111800D03*
X0040000Y0111800D03*
X0040000Y0101800D03*
X0050000Y0101800D03*
X0050000Y0091800D03*
X0040000Y0091800D03*
X0380000Y0091800D03*
X0390000Y0091800D03*
X0390000Y0101800D03*
X0380000Y0101800D03*
X0380000Y0111800D03*
X0390000Y0111800D03*
X0390000Y0121800D03*
X0380000Y0121800D03*
X0380000Y0131800D03*
X0390000Y0131800D03*
D13*
X0395000Y0046800D03*
X0345000Y0046800D03*
X0295000Y0046800D03*
X0245000Y0046800D03*
X0195000Y0046800D03*
X0145000Y0046800D03*
X0095000Y0046800D03*
X0045000Y0046800D03*
X0045000Y0241800D03*
X0095000Y0241800D03*
X0145000Y0241800D03*
X0195000Y0241800D03*
X0245000Y0241800D03*
X0295000Y0241800D03*
X0345000Y0241800D03*
X0395000Y0241800D03*
D14*
X0045000Y0026800D03*
X0045000Y0036800D03*
X0095000Y0036800D03*
X0095000Y0026800D03*
X0145000Y0026800D03*
X0145000Y0036800D03*
X0195000Y0036800D03*
X0195000Y0026800D03*
X0245000Y0026800D03*
X0245000Y0036800D03*
X0295000Y0036800D03*
X0295000Y0026800D03*
X0345000Y0026800D03*
X0345000Y0036800D03*
X0395000Y0036800D03*
X0395000Y0026800D03*
X0395000Y0221800D03*
X0395000Y0231800D03*
X0345000Y0231800D03*
X0345000Y0221800D03*
X0295000Y0221800D03*
X0295000Y0231800D03*
X0245000Y0231800D03*
X0245000Y0221800D03*
X0195000Y0221800D03*
X0195000Y0231800D03*
X0145000Y0231800D03*
X0145000Y0221800D03*
X0095000Y0221800D03*
X0095000Y0231800D03*
X0045000Y0231800D03*
X0045000Y0221800D03*
D15*
X0036102Y0181800D03*
X0058937Y0181800D03*
X0047126Y0162902D03*
M02*
