G75*
%MOIN*%
%OFA0B0*%
%FSLAX25Y25*%
%IPPOS*%
%LPD*%
%AMOC8*
5,1,8,0,0,1.08239X$1,22.5*
%
%ADD10C,0.13000*%
%ADD11OC8,0.06000*%
%ADD12R,0.07087X0.06299*%
%ADD13R,0.06299X0.07087*%
%ADD14R,0.07400X0.07400*%
%ADD15C,0.07400*%
%ADD16C,0.07677*%
%ADD17R,0.06299X0.07098*%
%ADD18R,0.02600X0.08000*%
%ADD19R,0.08000X0.02600*%
%ADD20R,0.07098X0.06299*%
%ADD21C,0.03500*%
%ADD22C,0.03500*%
%ADD23C,0.01600*%
%ADD24C,0.02000*%
D10*
X0165000Y0161800D03*
D11*
X0050000Y0131800D03*
X0040000Y0131800D03*
X0040000Y0121800D03*
X0050000Y0121800D03*
X0050000Y0111800D03*
X0040000Y0111800D03*
X0040000Y0101800D03*
X0050000Y0101800D03*
X0050000Y0091800D03*
X0040000Y0091800D03*
X0380000Y0091800D03*
X0390000Y0091800D03*
X0390000Y0101800D03*
X0380000Y0101800D03*
X0380000Y0111800D03*
X0390000Y0111800D03*
X0390000Y0121800D03*
X0380000Y0121800D03*
X0380000Y0131800D03*
X0390000Y0131800D03*
D12*
X0255000Y0166288D03*
X0255000Y0177312D03*
X0075000Y0177312D03*
X0075000Y0166288D03*
D13*
X0199488Y0141800D03*
X0210512Y0141800D03*
D14*
X0195000Y0046800D03*
X0145000Y0046800D03*
X0095000Y0046800D03*
X0045000Y0046800D03*
X0245000Y0046800D03*
X0295000Y0046800D03*
X0345000Y0046800D03*
X0395000Y0046800D03*
X0395000Y0241800D03*
X0345000Y0241800D03*
X0295000Y0241800D03*
X0245000Y0241800D03*
X0195000Y0241800D03*
X0145000Y0241800D03*
X0095000Y0241800D03*
X0045000Y0241800D03*
D15*
X0045000Y0231800D03*
X0045000Y0221800D03*
X0095000Y0221800D03*
X0095000Y0231800D03*
X0145000Y0231800D03*
X0145000Y0221800D03*
X0195000Y0221800D03*
X0195000Y0231800D03*
X0245000Y0231800D03*
X0245000Y0221800D03*
X0295000Y0221800D03*
X0295000Y0231800D03*
X0345000Y0231800D03*
X0345000Y0221800D03*
X0395000Y0221800D03*
X0395000Y0231800D03*
X0395000Y0036800D03*
X0395000Y0026800D03*
X0345000Y0026800D03*
X0345000Y0036800D03*
X0295000Y0036800D03*
X0295000Y0026800D03*
X0245000Y0026800D03*
X0245000Y0036800D03*
X0195000Y0036800D03*
X0195000Y0026800D03*
X0145000Y0026800D03*
X0145000Y0036800D03*
X0095000Y0036800D03*
X0095000Y0026800D03*
X0045000Y0026800D03*
X0045000Y0036800D03*
D16*
X0047126Y0162902D03*
X0036102Y0181800D03*
X0058937Y0181800D03*
D17*
X0089402Y0161800D03*
X0100598Y0161800D03*
X0249402Y0191800D03*
X0260598Y0191800D03*
D18*
X0272815Y0192820D03*
X0277815Y0192820D03*
X0282815Y0192820D03*
X0287815Y0192820D03*
X0292815Y0192820D03*
X0297815Y0192820D03*
X0302815Y0192820D03*
X0307815Y0192820D03*
X0312815Y0192820D03*
X0317815Y0192820D03*
X0322815Y0192820D03*
X0327815Y0192820D03*
X0327815Y0153220D03*
X0322815Y0153220D03*
X0317815Y0153220D03*
X0312815Y0153220D03*
X0307815Y0153220D03*
X0302815Y0153220D03*
X0297815Y0153220D03*
X0292815Y0153220D03*
X0287815Y0153220D03*
X0282815Y0153220D03*
X0277815Y0153220D03*
X0272815Y0153220D03*
D19*
X0227910Y0124930D03*
X0227910Y0119930D03*
X0227910Y0114930D03*
X0227910Y0109930D03*
X0227910Y0104930D03*
X0227910Y0099930D03*
X0227910Y0094930D03*
X0227910Y0089930D03*
X0227910Y0084930D03*
X0227910Y0079930D03*
X0227910Y0074930D03*
X0227910Y0069930D03*
X0188310Y0069930D03*
X0188310Y0074930D03*
X0188310Y0079930D03*
X0188310Y0084930D03*
X0188310Y0089930D03*
X0188310Y0094930D03*
X0188310Y0099930D03*
X0188310Y0104930D03*
X0188310Y0109930D03*
X0188310Y0114930D03*
X0188310Y0119930D03*
X0188310Y0124930D03*
D20*
X0155000Y0117398D03*
X0155000Y0106202D03*
X0140000Y0106202D03*
X0140000Y0117398D03*
X0125000Y0117398D03*
X0110000Y0117398D03*
X0110000Y0106202D03*
X0125000Y0106202D03*
X0125000Y0087398D03*
X0110000Y0087398D03*
X0110000Y0076202D03*
X0125000Y0076202D03*
X0140000Y0076202D03*
X0140000Y0087398D03*
X0155000Y0087398D03*
X0155000Y0076202D03*
X0260000Y0076202D03*
X0275000Y0076202D03*
X0275000Y0087398D03*
X0260000Y0087398D03*
X0260000Y0106202D03*
X0275000Y0106202D03*
X0275000Y0117398D03*
X0260000Y0117398D03*
X0290000Y0117398D03*
X0290000Y0106202D03*
X0305000Y0106202D03*
X0305000Y0117398D03*
X0305000Y0087398D03*
X0305000Y0076202D03*
X0290000Y0076202D03*
X0290000Y0087398D03*
X0115000Y0156202D03*
X0115000Y0167398D03*
D21*
X0116250Y0166800D01*
X0122250Y0160800D01*
X0122250Y0141300D01*
X0102750Y0121800D01*
X0102750Y0102300D01*
X0105750Y0102300D01*
X0106500Y0100800D01*
X0109500Y0097800D01*
X0109500Y0088800D01*
X0110000Y0087398D01*
X0110250Y0087300D01*
X0124500Y0087300D01*
X0125000Y0087398D01*
X0126750Y0087300D01*
X0139500Y0087300D01*
X0140000Y0087398D01*
X0155000Y0087398D02*
X0156750Y0087300D01*
X0162000Y0087300D01*
X0155250Y0088050D02*
X0155000Y0087398D01*
X0155250Y0088050D02*
X0155250Y0106050D01*
X0155000Y0106202D01*
X0156750Y0106800D01*
X0163500Y0113550D01*
X0163500Y0125550D01*
X0155250Y0133800D01*
X0155250Y0166050D01*
X0161250Y0172050D01*
X0168750Y0172050D01*
X0188250Y0152550D01*
X0199500Y0152550D01*
X0199500Y0142050D01*
X0199488Y0141800D01*
X0210512Y0141800D02*
X0210750Y0142050D01*
X0210750Y0153300D01*
X0206250Y0161550D02*
X0206250Y0163800D01*
X0209250Y0166800D01*
X0241500Y0166800D01*
X0243750Y0166800D01*
X0244500Y0166050D01*
X0255000Y0166050D01*
X0255000Y0166288D01*
X0256500Y0165300D01*
X0263250Y0165300D01*
X0272250Y0156300D01*
X0272250Y0153300D01*
X0272815Y0153220D01*
X0245250Y0144300D02*
X0267000Y0122550D01*
X0267000Y0106050D01*
X0260250Y0106050D01*
X0260000Y0106202D01*
X0267000Y0106050D02*
X0267750Y0106050D01*
X0267750Y0087300D01*
X0260250Y0087300D01*
X0260000Y0087398D01*
X0267750Y0087300D02*
X0274500Y0087300D01*
X0275000Y0087398D01*
X0276750Y0087300D01*
X0289500Y0087300D01*
X0290000Y0087398D01*
X0291750Y0087300D01*
X0304500Y0087300D01*
X0305000Y0087398D01*
X0306750Y0087300D01*
X0309000Y0085050D01*
X0312000Y0085050D01*
X0305000Y0106202D02*
X0304500Y0106050D01*
X0291750Y0106050D01*
X0290000Y0106202D01*
X0289500Y0106050D01*
X0276750Y0106050D01*
X0275000Y0106202D01*
X0274500Y0106050D01*
X0267750Y0106050D01*
X0227910Y0124930D02*
X0227250Y0124800D01*
X0220500Y0124800D01*
X0199500Y0152550D02*
X0199500Y0154800D01*
X0206250Y0161550D01*
X0224250Y0200550D02*
X0246750Y0178050D01*
X0255000Y0178050D01*
X0255000Y0177312D01*
X0249000Y0183300D02*
X0249000Y0191550D01*
X0249402Y0191800D01*
X0272250Y0193050D02*
X0272815Y0192820D01*
X0272250Y0193050D02*
X0272250Y0205050D01*
X0246000Y0231300D01*
X0245000Y0231800D01*
X0244500Y0231300D01*
X0237750Y0231300D01*
X0224250Y0217800D01*
X0224250Y0200550D01*
X0115000Y0167398D02*
X0114750Y0167550D01*
X0105000Y0177300D01*
X0075000Y0177300D01*
X0075000Y0177312D01*
X0073500Y0176550D01*
X0072000Y0175050D01*
X0067500Y0175050D01*
X0059250Y0175800D02*
X0059250Y0181800D01*
X0058937Y0181800D01*
X0059250Y0183300D01*
X0059250Y0232050D01*
X0045000Y0232050D01*
X0045000Y0231800D01*
X0059250Y0232050D02*
X0094500Y0232050D01*
X0095000Y0231800D01*
X0036750Y0181800D02*
X0036102Y0181800D01*
X0036750Y0181800D02*
X0036750Y0172800D01*
X0046500Y0163050D01*
X0047126Y0162902D01*
X0059250Y0175800D02*
X0068250Y0166800D01*
X0073500Y0166800D01*
X0075000Y0166288D01*
X0075000Y0166050D01*
X0085500Y0166050D01*
X0089250Y0162300D01*
X0089402Y0161800D01*
X0110000Y0106202D02*
X0108750Y0105300D01*
X0105750Y0102300D01*
X0110000Y0106202D02*
X0110250Y0106050D01*
X0124500Y0106050D01*
X0125000Y0106202D01*
X0126750Y0106050D01*
X0139500Y0106050D01*
X0140000Y0106202D01*
X0170250Y0073800D02*
X0174000Y0070050D01*
X0188250Y0070050D01*
X0188310Y0069930D01*
D22*
X0181500Y0075300D03*
X0176250Y0076050D03*
X0170250Y0073800D03*
X0165000Y0076800D03*
X0162000Y0087300D03*
X0178500Y0093300D03*
X0195750Y0079800D03*
X0203250Y0081300D03*
X0217500Y0085050D03*
X0221250Y0077550D03*
X0234750Y0083550D03*
X0250500Y0076800D03*
X0252750Y0088050D03*
X0283500Y0081300D03*
X0298500Y0073050D03*
X0312000Y0085050D03*
X0309000Y0094050D03*
X0312000Y0103050D03*
X0330750Y0107550D03*
X0332250Y0115050D03*
X0327750Y0116550D03*
X0320250Y0124050D03*
X0321750Y0133050D03*
X0330000Y0136800D03*
X0342000Y0124800D03*
X0366750Y0111300D03*
X0371250Y0115050D03*
X0361500Y0100050D03*
X0355500Y0100050D03*
X0318750Y0070800D03*
X0293250Y0053550D03*
X0303750Y0049800D03*
X0316500Y0049800D03*
X0338250Y0049800D03*
X0370500Y0045300D03*
X0381000Y0031800D03*
X0351000Y0013800D03*
X0338250Y0017550D03*
X0307500Y0031050D03*
X0259500Y0016800D03*
X0208500Y0031800D03*
X0139500Y0064050D03*
X0133500Y0076800D03*
X0134250Y0081300D03*
X0102750Y0102300D03*
X0087000Y0116550D03*
X0079500Y0113550D03*
X0073500Y0110550D03*
X0067500Y0123300D03*
X0067500Y0129300D03*
X0103500Y0139050D03*
X0132000Y0139800D03*
X0135750Y0149550D03*
X0168750Y0139800D03*
X0193500Y0147300D03*
X0195000Y0157800D03*
X0210750Y0153300D03*
X0211500Y0161550D03*
X0198750Y0178800D03*
X0228000Y0178800D03*
X0241500Y0166800D03*
X0246750Y0171300D03*
X0261000Y0160050D03*
X0245250Y0144300D03*
X0220500Y0124800D03*
X0216750Y0120300D03*
X0212250Y0124050D03*
X0208500Y0127050D03*
X0204750Y0135300D03*
X0181500Y0123300D03*
X0181500Y0117300D03*
X0180750Y0112050D03*
X0200250Y0113550D03*
X0234750Y0117300D03*
X0238500Y0121050D03*
X0282000Y0117300D03*
X0297000Y0118050D03*
X0309750Y0136800D03*
X0288000Y0144300D03*
X0309750Y0163800D03*
X0307500Y0170550D03*
X0314250Y0172800D03*
X0312000Y0180300D03*
X0294750Y0185550D03*
X0288000Y0171300D03*
X0261750Y0183300D03*
X0249000Y0183300D03*
X0246000Y0199050D03*
X0229500Y0215550D03*
X0222750Y0229800D03*
X0198750Y0214050D03*
X0203250Y0210300D03*
X0158250Y0226800D03*
X0183000Y0250800D03*
X0264750Y0246300D03*
X0266250Y0250800D03*
X0270750Y0226800D03*
X0301500Y0239550D03*
X0320250Y0247050D03*
X0295500Y0204300D03*
X0320250Y0203550D03*
X0332250Y0199050D03*
X0332250Y0192300D03*
X0354000Y0171300D03*
X0375000Y0173550D03*
X0334500Y0153300D03*
X0388500Y0143550D03*
X0392250Y0066300D03*
X0158250Y0123300D03*
X0147750Y0122550D03*
X0148500Y0117300D03*
X0149250Y0112050D03*
X0147000Y0106800D03*
X0080250Y0082050D03*
X0033750Y0079800D03*
X0030750Y0088800D03*
X0115500Y0020550D03*
X0067500Y0175050D03*
D23*
X0066338Y0174439D02*
X0069657Y0174439D01*
X0069657Y0173925D02*
X0069779Y0173467D01*
X0070016Y0173057D01*
X0070351Y0172722D01*
X0070762Y0172485D01*
X0071220Y0172362D01*
X0074225Y0172362D01*
X0074225Y0176537D01*
X0069657Y0176537D01*
X0069657Y0173925D01*
X0070233Y0172841D02*
X0067937Y0172841D01*
X0069535Y0171242D02*
X0070008Y0171242D01*
X0069772Y0171006D02*
X0063300Y0177478D01*
X0063300Y0177482D01*
X0064141Y0178323D01*
X0065076Y0180579D01*
X0065076Y0183021D01*
X0064141Y0185277D01*
X0063300Y0186118D01*
X0063300Y0228000D01*
X0090315Y0228000D01*
X0091515Y0226800D01*
X0089913Y0225199D01*
X0089000Y0222993D01*
X0089000Y0220607D01*
X0089913Y0218401D01*
X0091601Y0216713D01*
X0091950Y0216569D01*
X0091950Y0196894D01*
X0092452Y0195681D01*
X0115785Y0172348D01*
X0115775Y0172348D01*
X0115775Y0168173D01*
X0119960Y0168173D01*
X0132450Y0155683D01*
X0132450Y0151978D01*
X0132317Y0151844D01*
X0131700Y0150356D01*
X0131700Y0148744D01*
X0132317Y0147256D01*
X0133456Y0146117D01*
X0134944Y0145500D01*
X0136200Y0145500D01*
X0136200Y0128417D01*
X0130067Y0122283D01*
X0129502Y0122848D01*
X0120498Y0122848D01*
X0119151Y0121501D01*
X0119151Y0113296D01*
X0120498Y0111949D01*
X0129502Y0111949D01*
X0130343Y0112790D01*
X0132952Y0110181D01*
X0133881Y0109252D01*
X0134651Y0108933D01*
X0134651Y0106976D01*
X0139225Y0106976D01*
X0139225Y0105427D01*
X0134651Y0105427D01*
X0134651Y0102815D01*
X0134773Y0102357D01*
X0135010Y0101947D01*
X0135346Y0101612D01*
X0135756Y0101375D01*
X0136214Y0101252D01*
X0139225Y0101252D01*
X0139225Y0105427D01*
X0140775Y0105427D01*
X0140775Y0101252D01*
X0143786Y0101252D01*
X0144244Y0101375D01*
X0144570Y0101563D01*
X0145200Y0100933D01*
X0145200Y0091289D01*
X0144990Y0091653D01*
X0144654Y0091988D01*
X0144244Y0092225D01*
X0143786Y0092348D01*
X0140775Y0092348D01*
X0140775Y0088173D01*
X0139225Y0088173D01*
X0139225Y0086624D01*
X0134651Y0086624D01*
X0134651Y0085350D01*
X0133444Y0085350D01*
X0131956Y0084733D01*
X0130817Y0083594D01*
X0130200Y0082106D01*
X0130200Y0080953D01*
X0129502Y0081651D01*
X0120498Y0081651D01*
X0119151Y0080304D01*
X0119151Y0072099D01*
X0120498Y0070752D01*
X0129502Y0070752D01*
X0130849Y0072099D01*
X0130849Y0073500D01*
X0131072Y0073500D01*
X0131206Y0073367D01*
X0132694Y0072750D01*
X0134151Y0072750D01*
X0134151Y0072099D01*
X0135498Y0070752D01*
X0144502Y0070752D01*
X0145200Y0071450D01*
X0145200Y0064144D01*
X0145702Y0062931D01*
X0187783Y0020850D01*
X0185867Y0020850D01*
X0144548Y0062169D01*
X0143619Y0063098D01*
X0143508Y0063144D01*
X0143550Y0063244D01*
X0143550Y0064856D01*
X0142933Y0066344D01*
X0141794Y0067483D01*
X0140306Y0068100D01*
X0138694Y0068100D01*
X0137206Y0067483D01*
X0137072Y0067350D01*
X0119867Y0067350D01*
X0115483Y0071733D01*
X0115849Y0072099D01*
X0115849Y0080304D01*
X0114502Y0081651D01*
X0109316Y0081651D01*
X0108518Y0082449D01*
X0109225Y0082449D01*
X0109225Y0086624D01*
X0104651Y0086624D01*
X0104651Y0086316D01*
X0101550Y0089417D01*
X0101550Y0126433D01*
X0109119Y0134002D01*
X0110048Y0134931D01*
X0110550Y0136144D01*
X0110550Y0141956D01*
X0110048Y0143169D01*
X0097266Y0155951D01*
X0102182Y0155951D01*
X0104631Y0153502D01*
X0105844Y0153000D01*
X0109151Y0153000D01*
X0109151Y0152099D01*
X0110498Y0150752D01*
X0119502Y0150752D01*
X0120849Y0152099D01*
X0120849Y0160304D01*
X0119502Y0161651D01*
X0126482Y0161651D01*
X0128080Y0160053D02*
X0120849Y0160053D01*
X0120849Y0158454D02*
X0129679Y0158454D01*
X0131277Y0156856D02*
X0120849Y0156856D01*
X0120849Y0155257D02*
X0132450Y0155257D01*
X0132450Y0153659D02*
X0120849Y0153659D01*
X0120810Y0152060D02*
X0132450Y0152060D01*
X0131744Y0150462D02*
X0102755Y0150462D01*
X0101157Y0152060D02*
X0109190Y0152060D01*
X0104475Y0153659D02*
X0099558Y0153659D01*
X0097960Y0155257D02*
X0102876Y0155257D01*
X0104354Y0148863D02*
X0131700Y0148863D01*
X0132313Y0147265D02*
X0105952Y0147265D01*
X0107551Y0145666D02*
X0134544Y0145666D01*
X0136200Y0144068D02*
X0109149Y0144068D01*
X0110338Y0142469D02*
X0128941Y0142469D01*
X0128567Y0142094D02*
X0127950Y0140606D01*
X0127950Y0140417D01*
X0110381Y0122848D01*
X0105498Y0122848D01*
X0104151Y0121501D01*
X0104151Y0113296D01*
X0105498Y0111949D01*
X0114502Y0111949D01*
X0115849Y0113296D01*
X0115849Y0118982D01*
X0132617Y0135750D01*
X0132806Y0135750D01*
X0134294Y0136367D01*
X0135433Y0137506D01*
X0136050Y0138994D01*
X0136050Y0140606D01*
X0135433Y0142094D01*
X0134294Y0143233D01*
X0132806Y0143850D01*
X0131194Y0143850D01*
X0129706Y0143233D01*
X0128567Y0142094D01*
X0128060Y0140870D02*
X0110550Y0140870D01*
X0110550Y0139272D02*
X0126805Y0139272D01*
X0125207Y0137673D02*
X0110550Y0137673D01*
X0110522Y0136075D02*
X0123608Y0136075D01*
X0122010Y0134476D02*
X0109593Y0134476D01*
X0107995Y0132878D02*
X0120411Y0132878D01*
X0118813Y0131279D02*
X0106396Y0131279D01*
X0104798Y0129681D02*
X0117214Y0129681D01*
X0115616Y0128082D02*
X0103199Y0128082D01*
X0101601Y0126484D02*
X0114017Y0126484D01*
X0112418Y0124885D02*
X0101550Y0124885D01*
X0101550Y0123287D02*
X0110820Y0123287D01*
X0104338Y0121688D02*
X0101550Y0121688D01*
X0101550Y0120090D02*
X0104151Y0120090D01*
X0104151Y0118491D02*
X0101550Y0118491D01*
X0101550Y0116893D02*
X0104151Y0116893D01*
X0104151Y0115294D02*
X0101550Y0115294D01*
X0101550Y0113696D02*
X0104151Y0113696D01*
X0105350Y0112097D02*
X0101550Y0112097D01*
X0101550Y0110499D02*
X0105053Y0110499D01*
X0105010Y0110456D02*
X0104773Y0110046D01*
X0104651Y0109588D01*
X0104651Y0106976D01*
X0109225Y0106976D01*
X0109225Y0105427D01*
X0104651Y0105427D01*
X0104651Y0102815D01*
X0104773Y0102357D01*
X0105010Y0101947D01*
X0105346Y0101612D01*
X0105756Y0101375D01*
X0106214Y0101252D01*
X0109225Y0101252D01*
X0109225Y0105427D01*
X0110775Y0105427D01*
X0110775Y0106976D01*
X0115349Y0106976D01*
X0115349Y0109588D01*
X0115227Y0110046D01*
X0114990Y0110456D01*
X0114654Y0110792D01*
X0114244Y0111029D01*
X0113786Y0111151D01*
X0110775Y0111151D01*
X0110775Y0106976D01*
X0109225Y0106976D01*
X0109225Y0111151D01*
X0106214Y0111151D01*
X0105756Y0111029D01*
X0105346Y0110792D01*
X0105010Y0110456D01*
X0104651Y0108900D02*
X0101550Y0108900D01*
X0101550Y0107302D02*
X0104651Y0107302D01*
X0104651Y0104105D02*
X0101550Y0104105D01*
X0101550Y0105703D02*
X0109225Y0105703D01*
X0110775Y0105703D02*
X0124225Y0105703D01*
X0124225Y0105427D02*
X0119651Y0105427D01*
X0119651Y0102815D01*
X0119773Y0102357D01*
X0120010Y0101947D01*
X0120346Y0101612D01*
X0120756Y0101375D01*
X0121214Y0101252D01*
X0124225Y0101252D01*
X0124225Y0105427D01*
X0124225Y0106976D01*
X0119651Y0106976D01*
X0119651Y0109588D01*
X0119773Y0110046D01*
X0120010Y0110456D01*
X0120346Y0110792D01*
X0120756Y0111029D01*
X0121214Y0111151D01*
X0124225Y0111151D01*
X0124225Y0106976D01*
X0125775Y0106976D01*
X0130349Y0106976D01*
X0130349Y0109588D01*
X0130227Y0110046D01*
X0129990Y0110456D01*
X0129654Y0110792D01*
X0129244Y0111029D01*
X0128786Y0111151D01*
X0125775Y0111151D01*
X0125775Y0106976D01*
X0125775Y0105427D01*
X0130349Y0105427D01*
X0130349Y0102815D01*
X0130227Y0102357D01*
X0129990Y0101947D01*
X0129654Y0101612D01*
X0129244Y0101375D01*
X0128786Y0101252D01*
X0125775Y0101252D01*
X0125775Y0105427D01*
X0124225Y0105427D01*
X0124225Y0104105D02*
X0125775Y0104105D01*
X0125775Y0105703D02*
X0139225Y0105703D01*
X0139225Y0104105D02*
X0140775Y0104105D01*
X0140775Y0102506D02*
X0139225Y0102506D01*
X0134734Y0102506D02*
X0130266Y0102506D01*
X0130349Y0104105D02*
X0134651Y0104105D01*
X0134651Y0107302D02*
X0130349Y0107302D01*
X0130349Y0108900D02*
X0134651Y0108900D01*
X0132634Y0110499D02*
X0129947Y0110499D01*
X0129650Y0112097D02*
X0131036Y0112097D01*
X0125775Y0110499D02*
X0124225Y0110499D01*
X0124225Y0108900D02*
X0125775Y0108900D01*
X0125775Y0107302D02*
X0124225Y0107302D01*
X0119651Y0107302D02*
X0115349Y0107302D01*
X0115349Y0108900D02*
X0119651Y0108900D01*
X0120053Y0110499D02*
X0114947Y0110499D01*
X0114650Y0112097D02*
X0120350Y0112097D01*
X0119151Y0113696D02*
X0115849Y0113696D01*
X0115849Y0115294D02*
X0119151Y0115294D01*
X0119151Y0116893D02*
X0115849Y0116893D01*
X0115849Y0118491D02*
X0119151Y0118491D01*
X0119151Y0120090D02*
X0116957Y0120090D01*
X0118555Y0121688D02*
X0119338Y0121688D01*
X0120154Y0123287D02*
X0131070Y0123287D01*
X0132668Y0124885D02*
X0121752Y0124885D01*
X0123351Y0126484D02*
X0134267Y0126484D01*
X0135866Y0128082D02*
X0124949Y0128082D01*
X0126548Y0129681D02*
X0136200Y0129681D01*
X0136200Y0131279D02*
X0128146Y0131279D01*
X0129745Y0132878D02*
X0136200Y0132878D01*
X0136200Y0134476D02*
X0131343Y0134476D01*
X0133590Y0136075D02*
X0136200Y0136075D01*
X0136200Y0137673D02*
X0135503Y0137673D01*
X0136050Y0139272D02*
X0136200Y0139272D01*
X0136200Y0140870D02*
X0135940Y0140870D01*
X0136200Y0142469D02*
X0135059Y0142469D01*
X0151050Y0142469D02*
X0165691Y0142469D01*
X0165317Y0142094D02*
X0166456Y0143233D01*
X0167944Y0143850D01*
X0169556Y0143850D01*
X0171044Y0143233D01*
X0172183Y0142094D01*
X0172800Y0140606D01*
X0172800Y0138994D01*
X0172183Y0137506D01*
X0172050Y0137372D01*
X0172050Y0119417D01*
X0177260Y0114207D01*
X0177317Y0114344D01*
X0178041Y0115068D01*
X0177450Y0116494D01*
X0177450Y0118106D01*
X0178067Y0119594D01*
X0178772Y0120300D01*
X0178067Y0121006D01*
X0177450Y0122494D01*
X0177450Y0124106D01*
X0178067Y0125594D01*
X0179206Y0126733D01*
X0180694Y0127350D01*
X0182178Y0127350D01*
X0183358Y0128530D01*
X0184950Y0128530D01*
X0184950Y0136933D01*
X0168258Y0153625D01*
X0166750Y0153000D01*
X0163250Y0153000D01*
X0160015Y0154340D01*
X0157540Y0156815D01*
X0156200Y0160050D01*
X0156200Y0163550D01*
X0157540Y0166785D01*
X0160015Y0169260D01*
X0163250Y0170600D01*
X0166750Y0170600D01*
X0169985Y0169260D01*
X0172460Y0166785D01*
X0173800Y0163550D01*
X0173800Y0160050D01*
X0173029Y0158188D01*
X0190200Y0141017D01*
X0190200Y0144872D01*
X0190067Y0145006D01*
X0189450Y0146494D01*
X0189450Y0148106D01*
X0190067Y0149594D01*
X0191206Y0150733D01*
X0192694Y0151350D01*
X0194306Y0151350D01*
X0195794Y0150733D01*
X0196933Y0149594D01*
X0197550Y0148106D01*
X0197550Y0147143D01*
X0198713Y0147143D01*
X0198713Y0142575D01*
X0200263Y0142575D01*
X0200263Y0147143D01*
X0202875Y0147143D01*
X0203333Y0147021D01*
X0203743Y0146784D01*
X0204078Y0146449D01*
X0204315Y0146038D01*
X0204438Y0145580D01*
X0204438Y0142575D01*
X0200263Y0142575D01*
X0200263Y0141025D01*
X0200263Y0136457D01*
X0200845Y0136457D01*
X0200700Y0136106D01*
X0200700Y0134494D01*
X0201317Y0133006D01*
X0202456Y0131867D01*
X0203944Y0131250D01*
X0205556Y0131250D01*
X0207044Y0131867D01*
X0207178Y0132000D01*
X0216283Y0132000D01*
X0212430Y0128146D01*
X0211933Y0129344D01*
X0210794Y0130483D01*
X0209306Y0131100D01*
X0207694Y0131100D01*
X0206206Y0130483D01*
X0205067Y0129344D01*
X0204450Y0127856D01*
X0204450Y0126244D01*
X0205067Y0124756D01*
X0205200Y0124622D01*
X0205200Y0121517D01*
X0196800Y0129917D01*
X0196800Y0136457D01*
X0198713Y0136457D01*
X0198713Y0141025D01*
X0200263Y0141025D01*
X0204438Y0141025D01*
X0204438Y0139350D01*
X0205062Y0139350D01*
X0205062Y0146296D01*
X0206410Y0147643D01*
X0206700Y0147643D01*
X0206700Y0154106D01*
X0207317Y0155594D01*
X0208456Y0156733D01*
X0209944Y0157350D01*
X0211556Y0157350D01*
X0213044Y0156733D01*
X0214183Y0155594D01*
X0214800Y0154106D01*
X0214800Y0147457D01*
X0215961Y0146296D01*
X0215961Y0138600D01*
X0218383Y0138600D01*
X0233452Y0153669D01*
X0234381Y0154598D01*
X0235594Y0155100D01*
X0265406Y0155100D01*
X0266619Y0154598D01*
X0269715Y0151502D01*
X0269715Y0153220D01*
X0272815Y0153220D01*
X0272815Y0153221D01*
X0272815Y0153221D01*
X0272815Y0159020D01*
X0274352Y0159020D01*
X0274810Y0158898D01*
X0274892Y0158850D01*
X0275562Y0159520D01*
X0280068Y0159520D01*
X0280315Y0159273D01*
X0280562Y0159520D01*
X0285068Y0159520D01*
X0285315Y0159273D01*
X0285562Y0159520D01*
X0290068Y0159520D01*
X0290315Y0159273D01*
X0290562Y0159520D01*
X0295068Y0159520D01*
X0295315Y0159273D01*
X0295337Y0159296D01*
X0287383Y0167250D01*
X0287194Y0167250D01*
X0285706Y0167867D01*
X0284567Y0169006D01*
X0283950Y0170494D01*
X0283950Y0172106D01*
X0284567Y0173594D01*
X0285706Y0174733D01*
X0287194Y0175350D01*
X0287533Y0175350D01*
X0282883Y0180000D01*
X0264178Y0180000D01*
X0264044Y0179867D01*
X0262556Y0179250D01*
X0260944Y0179250D01*
X0260843Y0179292D01*
X0260843Y0173210D01*
X0259496Y0171862D01*
X0250800Y0171862D01*
X0250800Y0171125D01*
X0251220Y0171238D01*
X0254225Y0171238D01*
X0254225Y0167063D01*
X0254225Y0165513D01*
X0249657Y0165513D01*
X0249657Y0164850D01*
X0249656Y0164850D01*
X0213928Y0164850D01*
X0213794Y0164983D01*
X0212306Y0165600D01*
X0210694Y0165600D01*
X0209206Y0164983D01*
X0208067Y0163844D01*
X0207450Y0162356D01*
X0207450Y0160744D01*
X0208067Y0159256D01*
X0209206Y0158117D01*
X0210694Y0157500D01*
X0212306Y0157500D01*
X0213794Y0158117D01*
X0213928Y0158250D01*
X0247633Y0158250D01*
X0247702Y0158181D01*
X0248631Y0157252D01*
X0249844Y0156750D01*
X0258572Y0156750D01*
X0258706Y0156617D01*
X0260194Y0156000D01*
X0261806Y0156000D01*
X0263294Y0156617D01*
X0264433Y0157756D01*
X0265050Y0159244D01*
X0265050Y0160856D01*
X0264433Y0162344D01*
X0263294Y0163483D01*
X0261806Y0164100D01*
X0260343Y0164100D01*
X0260343Y0165513D01*
X0255775Y0165513D01*
X0255775Y0167063D01*
X0260343Y0167063D01*
X0260343Y0169675D01*
X0260221Y0170133D01*
X0259984Y0170543D01*
X0259649Y0170878D01*
X0259238Y0171115D01*
X0258780Y0171238D01*
X0255775Y0171238D01*
X0255775Y0167063D01*
X0254225Y0167063D01*
X0249657Y0167063D01*
X0249657Y0168479D01*
X0249044Y0167867D01*
X0247556Y0167250D01*
X0245944Y0167250D01*
X0244456Y0167867D01*
X0244322Y0168000D01*
X0240844Y0168000D01*
X0239631Y0168502D01*
X0238702Y0169431D01*
X0238702Y0169431D01*
X0231490Y0176643D01*
X0231433Y0176506D01*
X0230294Y0175367D01*
X0228806Y0174750D01*
X0227194Y0174750D01*
X0225706Y0175367D01*
X0225572Y0175500D01*
X0201178Y0175500D01*
X0201044Y0175367D01*
X0199556Y0174750D01*
X0198300Y0174750D01*
X0198300Y0160228D01*
X0198433Y0160094D01*
X0199050Y0158606D01*
X0199050Y0156994D01*
X0198433Y0155506D01*
X0197294Y0154367D01*
X0195806Y0153750D01*
X0194194Y0153750D01*
X0192706Y0154367D01*
X0191567Y0155506D01*
X0190950Y0156994D01*
X0190950Y0158606D01*
X0191567Y0160094D01*
X0191700Y0160228D01*
X0191700Y0216673D01*
X0191601Y0216713D01*
X0189913Y0218401D01*
X0189000Y0220607D01*
X0189000Y0222993D01*
X0189913Y0225199D01*
X0191515Y0226800D01*
X0189913Y0228401D01*
X0189000Y0230607D01*
X0189000Y0232993D01*
X0189913Y0235199D01*
X0190515Y0235800D01*
X0190347Y0235800D01*
X0189000Y0237147D01*
X0189000Y0241633D01*
X0185550Y0238183D01*
X0185550Y0199144D01*
X0185048Y0197931D01*
X0151050Y0163933D01*
X0151050Y0124978D01*
X0151183Y0124844D01*
X0151800Y0123356D01*
X0151800Y0122848D01*
X0153131Y0122848D01*
X0154200Y0123917D01*
X0154200Y0124106D01*
X0154817Y0125594D01*
X0155956Y0126733D01*
X0157444Y0127350D01*
X0159056Y0127350D01*
X0160544Y0126733D01*
X0161683Y0125594D01*
X0162300Y0124106D01*
X0162300Y0122494D01*
X0161683Y0121006D01*
X0160849Y0120172D01*
X0160849Y0113296D01*
X0159502Y0111949D01*
X0153300Y0111949D01*
X0153300Y0111244D01*
X0153261Y0111151D01*
X0154225Y0111151D01*
X0154225Y0106976D01*
X0155775Y0106976D01*
X0160349Y0106976D01*
X0160349Y0109588D01*
X0160227Y0110046D01*
X0159990Y0110456D01*
X0159654Y0110792D01*
X0159244Y0111029D01*
X0158786Y0111151D01*
X0155775Y0111151D01*
X0155775Y0106976D01*
X0155775Y0105427D01*
X0160349Y0105427D01*
X0160349Y0102815D01*
X0160227Y0102357D01*
X0159990Y0101947D01*
X0159654Y0101612D01*
X0159244Y0101375D01*
X0158786Y0101252D01*
X0155775Y0101252D01*
X0155775Y0105427D01*
X0154225Y0105427D01*
X0154225Y0101252D01*
X0151800Y0101252D01*
X0151800Y0092348D01*
X0154225Y0092348D01*
X0154225Y0088173D01*
X0155775Y0088173D01*
X0160349Y0088173D01*
X0160349Y0090785D01*
X0160227Y0091243D01*
X0159990Y0091653D01*
X0159654Y0091988D01*
X0159244Y0092225D01*
X0158786Y0092348D01*
X0155775Y0092348D01*
X0155775Y0088173D01*
X0155775Y0086624D01*
X0160349Y0086624D01*
X0160349Y0084012D01*
X0160227Y0083554D01*
X0160075Y0083292D01*
X0171450Y0094667D01*
X0171450Y0096206D01*
X0171952Y0097419D01*
X0175702Y0101169D01*
X0176631Y0102098D01*
X0177844Y0102600D01*
X0179533Y0102600D01*
X0178702Y0103431D01*
X0165952Y0116181D01*
X0165450Y0117394D01*
X0165450Y0137372D01*
X0165317Y0137506D01*
X0164700Y0138994D01*
X0164700Y0140606D01*
X0165317Y0142094D01*
X0164810Y0140870D02*
X0151050Y0140870D01*
X0151050Y0139272D02*
X0164700Y0139272D01*
X0165247Y0137673D02*
X0151050Y0137673D01*
X0151050Y0136075D02*
X0165450Y0136075D01*
X0165450Y0134476D02*
X0151050Y0134476D01*
X0151050Y0132878D02*
X0165450Y0132878D01*
X0165450Y0131279D02*
X0151050Y0131279D01*
X0151050Y0129681D02*
X0165450Y0129681D01*
X0165450Y0128082D02*
X0151050Y0128082D01*
X0151050Y0126484D02*
X0155706Y0126484D01*
X0154523Y0124885D02*
X0151142Y0124885D01*
X0151800Y0123287D02*
X0153570Y0123287D01*
X0160794Y0126484D02*
X0165450Y0126484D01*
X0165450Y0124885D02*
X0161977Y0124885D01*
X0162300Y0123287D02*
X0165450Y0123287D01*
X0165450Y0121688D02*
X0161966Y0121688D01*
X0160849Y0120090D02*
X0165450Y0120090D01*
X0165450Y0118491D02*
X0160849Y0118491D01*
X0160849Y0116893D02*
X0165657Y0116893D01*
X0166839Y0115294D02*
X0160849Y0115294D01*
X0160849Y0113696D02*
X0168437Y0113696D01*
X0170036Y0112097D02*
X0159650Y0112097D01*
X0159947Y0110499D02*
X0171634Y0110499D01*
X0173233Y0108900D02*
X0160349Y0108900D01*
X0160349Y0107302D02*
X0174831Y0107302D01*
X0176430Y0105703D02*
X0155775Y0105703D01*
X0155775Y0104105D02*
X0154225Y0104105D01*
X0154225Y0102506D02*
X0155775Y0102506D01*
X0151800Y0100908D02*
X0175441Y0100908D01*
X0173842Y0099309D02*
X0151800Y0099309D01*
X0151800Y0097711D02*
X0172244Y0097711D01*
X0171450Y0096112D02*
X0151800Y0096112D01*
X0151800Y0094514D02*
X0171297Y0094514D01*
X0169698Y0092915D02*
X0151800Y0092915D01*
X0154225Y0091317D02*
X0155775Y0091317D01*
X0155775Y0089718D02*
X0154225Y0089718D01*
X0155775Y0088120D02*
X0164903Y0088120D01*
X0166501Y0089718D02*
X0160349Y0089718D01*
X0160184Y0091317D02*
X0168100Y0091317D01*
X0163304Y0086521D02*
X0160349Y0086521D01*
X0160349Y0084923D02*
X0161706Y0084923D01*
X0160107Y0083324D02*
X0160094Y0083324D01*
X0159506Y0082723D02*
X0158434Y0081651D01*
X0151800Y0081651D01*
X0151800Y0082449D01*
X0154225Y0082449D01*
X0154225Y0086624D01*
X0155775Y0086624D01*
X0155775Y0082449D01*
X0158786Y0082449D01*
X0159244Y0082571D01*
X0159506Y0082723D01*
X0158509Y0081726D02*
X0151800Y0081726D01*
X0154225Y0083324D02*
X0155775Y0083324D01*
X0155775Y0084923D02*
X0154225Y0084923D01*
X0154225Y0086521D02*
X0155775Y0086521D01*
X0145200Y0083508D02*
X0145200Y0080953D01*
X0144502Y0081651D01*
X0139316Y0081651D01*
X0138518Y0082449D01*
X0139225Y0082449D01*
X0139225Y0086624D01*
X0140775Y0086624D01*
X0140775Y0082449D01*
X0143786Y0082449D01*
X0144244Y0082571D01*
X0144654Y0082808D01*
X0144990Y0083144D01*
X0145200Y0083508D01*
X0145200Y0083324D02*
X0145094Y0083324D01*
X0145200Y0081726D02*
X0139241Y0081726D01*
X0139225Y0083324D02*
X0140775Y0083324D01*
X0140775Y0084923D02*
X0139225Y0084923D01*
X0139225Y0086521D02*
X0140775Y0086521D01*
X0139225Y0088120D02*
X0125775Y0088120D01*
X0125775Y0088173D02*
X0130349Y0088173D01*
X0130349Y0090785D01*
X0130227Y0091243D01*
X0129990Y0091653D01*
X0129654Y0091988D01*
X0129244Y0092225D01*
X0128786Y0092348D01*
X0125775Y0092348D01*
X0125775Y0088173D01*
X0125775Y0086624D01*
X0130349Y0086624D01*
X0130349Y0084012D01*
X0130227Y0083554D01*
X0129990Y0083144D01*
X0129654Y0082808D01*
X0129244Y0082571D01*
X0128786Y0082449D01*
X0125775Y0082449D01*
X0125775Y0086624D01*
X0124225Y0086624D01*
X0119651Y0086624D01*
X0119651Y0084012D01*
X0119773Y0083554D01*
X0120010Y0083144D01*
X0120346Y0082808D01*
X0120756Y0082571D01*
X0121214Y0082449D01*
X0124225Y0082449D01*
X0124225Y0086624D01*
X0124225Y0088173D01*
X0119651Y0088173D01*
X0119651Y0090785D01*
X0119773Y0091243D01*
X0120010Y0091653D01*
X0120346Y0091988D01*
X0120756Y0092225D01*
X0121214Y0092348D01*
X0124225Y0092348D01*
X0124225Y0088173D01*
X0125775Y0088173D01*
X0125775Y0089718D02*
X0124225Y0089718D01*
X0124225Y0088120D02*
X0110775Y0088120D01*
X0110775Y0088173D02*
X0115349Y0088173D01*
X0115349Y0090785D01*
X0115227Y0091243D01*
X0114990Y0091653D01*
X0114654Y0091988D01*
X0114244Y0092225D01*
X0113786Y0092348D01*
X0110775Y0092348D01*
X0110775Y0088173D01*
X0110775Y0086624D01*
X0115349Y0086624D01*
X0115349Y0084012D01*
X0115227Y0083554D01*
X0114990Y0083144D01*
X0114654Y0082808D01*
X0114244Y0082571D01*
X0113786Y0082449D01*
X0110775Y0082449D01*
X0110775Y0086624D01*
X0109225Y0086624D01*
X0109225Y0088173D01*
X0104651Y0088173D01*
X0104651Y0090785D01*
X0104773Y0091243D01*
X0105010Y0091653D01*
X0105346Y0091988D01*
X0105756Y0092225D01*
X0106214Y0092348D01*
X0109225Y0092348D01*
X0109225Y0088173D01*
X0110775Y0088173D01*
X0110775Y0089718D02*
X0109225Y0089718D01*
X0109225Y0088120D02*
X0102847Y0088120D01*
X0101550Y0089718D02*
X0104651Y0089718D01*
X0104816Y0091317D02*
X0101550Y0091317D01*
X0101550Y0092915D02*
X0145200Y0092915D01*
X0145184Y0091317D02*
X0145200Y0091317D01*
X0140775Y0091317D02*
X0139225Y0091317D01*
X0139225Y0092348D02*
X0136214Y0092348D01*
X0135756Y0092225D01*
X0135346Y0091988D01*
X0135010Y0091653D01*
X0134773Y0091243D01*
X0134651Y0090785D01*
X0134651Y0088173D01*
X0139225Y0088173D01*
X0139225Y0092348D01*
X0139225Y0089718D02*
X0140775Y0089718D01*
X0134651Y0089718D02*
X0130349Y0089718D01*
X0130184Y0091317D02*
X0134816Y0091317D01*
X0134651Y0086521D02*
X0130349Y0086521D01*
X0130349Y0084923D02*
X0132413Y0084923D01*
X0130705Y0083324D02*
X0130094Y0083324D01*
X0130200Y0081726D02*
X0109241Y0081726D01*
X0109225Y0083324D02*
X0110775Y0083324D01*
X0110775Y0084923D02*
X0109225Y0084923D01*
X0109225Y0086521D02*
X0110775Y0086521D01*
X0115349Y0086521D02*
X0119651Y0086521D01*
X0119651Y0084923D02*
X0115349Y0084923D01*
X0115094Y0083324D02*
X0119906Y0083324D01*
X0124225Y0083324D02*
X0125775Y0083324D01*
X0125775Y0084923D02*
X0124225Y0084923D01*
X0124225Y0086521D02*
X0125775Y0086521D01*
X0125775Y0091317D02*
X0124225Y0091317D01*
X0119816Y0091317D02*
X0115184Y0091317D01*
X0115349Y0089718D02*
X0119651Y0089718D01*
X0110775Y0091317D02*
X0109225Y0091317D01*
X0104651Y0086521D02*
X0104446Y0086521D01*
X0101550Y0094514D02*
X0145200Y0094514D01*
X0145200Y0096112D02*
X0101550Y0096112D01*
X0101550Y0097711D02*
X0145200Y0097711D01*
X0145200Y0099309D02*
X0101550Y0099309D01*
X0101550Y0100908D02*
X0145200Y0100908D01*
X0154225Y0107302D02*
X0155775Y0107302D01*
X0155775Y0108900D02*
X0154225Y0108900D01*
X0154225Y0110499D02*
X0155775Y0110499D01*
X0160349Y0104105D02*
X0178028Y0104105D01*
X0177617Y0102506D02*
X0160266Y0102506D01*
X0176173Y0115294D02*
X0177947Y0115294D01*
X0177450Y0116893D02*
X0174574Y0116893D01*
X0172976Y0118491D02*
X0177610Y0118491D01*
X0178562Y0120090D02*
X0172050Y0120090D01*
X0172050Y0121688D02*
X0177784Y0121688D01*
X0177450Y0123287D02*
X0172050Y0123287D01*
X0172050Y0124885D02*
X0177773Y0124885D01*
X0178956Y0126484D02*
X0172050Y0126484D01*
X0172050Y0128082D02*
X0182910Y0128082D01*
X0184950Y0129681D02*
X0172050Y0129681D01*
X0172050Y0131279D02*
X0184950Y0131279D01*
X0184950Y0132878D02*
X0172050Y0132878D01*
X0172050Y0134476D02*
X0184950Y0134476D01*
X0184950Y0136075D02*
X0172050Y0136075D01*
X0172253Y0137673D02*
X0184210Y0137673D01*
X0182611Y0139272D02*
X0172800Y0139272D01*
X0172690Y0140870D02*
X0181013Y0140870D01*
X0179414Y0142469D02*
X0171809Y0142469D01*
X0176217Y0145666D02*
X0151050Y0145666D01*
X0151050Y0144068D02*
X0177816Y0144068D01*
X0174619Y0147265D02*
X0151050Y0147265D01*
X0151050Y0148863D02*
X0173020Y0148863D01*
X0171422Y0150462D02*
X0151050Y0150462D01*
X0151050Y0152060D02*
X0169823Y0152060D01*
X0174361Y0156856D02*
X0191007Y0156856D01*
X0190950Y0158454D02*
X0173139Y0158454D01*
X0173800Y0160053D02*
X0191549Y0160053D01*
X0191700Y0161651D02*
X0173800Y0161651D01*
X0173800Y0163250D02*
X0191700Y0163250D01*
X0191700Y0164848D02*
X0173262Y0164848D01*
X0172600Y0166447D02*
X0191700Y0166447D01*
X0191700Y0168045D02*
X0171200Y0168045D01*
X0169059Y0169644D02*
X0191700Y0169644D01*
X0191700Y0171242D02*
X0158359Y0171242D01*
X0156761Y0169644D02*
X0160941Y0169644D01*
X0158800Y0168045D02*
X0155162Y0168045D01*
X0153564Y0166447D02*
X0157400Y0166447D01*
X0156738Y0164848D02*
X0151965Y0164848D01*
X0151050Y0163250D02*
X0156200Y0163250D01*
X0156200Y0161651D02*
X0151050Y0161651D01*
X0151050Y0160053D02*
X0156200Y0160053D01*
X0156861Y0158454D02*
X0151050Y0158454D01*
X0151050Y0156856D02*
X0157523Y0156856D01*
X0159098Y0155257D02*
X0151050Y0155257D01*
X0151050Y0153659D02*
X0161660Y0153659D01*
X0175960Y0155257D02*
X0191815Y0155257D01*
X0190934Y0150462D02*
X0180755Y0150462D01*
X0179157Y0152060D02*
X0206700Y0152060D01*
X0206700Y0150462D02*
X0196066Y0150462D01*
X0197236Y0148863D02*
X0206700Y0148863D01*
X0206031Y0147265D02*
X0197550Y0147265D01*
X0198713Y0145666D02*
X0200263Y0145666D01*
X0200263Y0144068D02*
X0198713Y0144068D01*
X0200263Y0142469D02*
X0205062Y0142469D01*
X0205062Y0144068D02*
X0204438Y0144068D01*
X0204415Y0145666D02*
X0205062Y0145666D01*
X0205062Y0140870D02*
X0204438Y0140870D01*
X0200263Y0140870D02*
X0198713Y0140870D01*
X0198713Y0139272D02*
X0200263Y0139272D01*
X0200263Y0137673D02*
X0198713Y0137673D01*
X0196800Y0136075D02*
X0200700Y0136075D01*
X0200707Y0134476D02*
X0196800Y0134476D01*
X0196800Y0132878D02*
X0201445Y0132878D01*
X0203873Y0131279D02*
X0196800Y0131279D01*
X0197036Y0129681D02*
X0205403Y0129681D01*
X0205627Y0131279D02*
X0215563Y0131279D01*
X0213964Y0129681D02*
X0211597Y0129681D01*
X0204544Y0128082D02*
X0198634Y0128082D01*
X0200233Y0126484D02*
X0204450Y0126484D01*
X0205013Y0124885D02*
X0201832Y0124885D01*
X0203430Y0123287D02*
X0205200Y0123287D01*
X0205200Y0121688D02*
X0205029Y0121688D01*
X0222467Y0128850D02*
X0239117Y0145500D01*
X0246133Y0145500D01*
X0269642Y0121992D01*
X0269151Y0121501D01*
X0269151Y0113296D01*
X0270498Y0111949D01*
X0279502Y0111949D01*
X0280849Y0113296D01*
X0280849Y0113393D01*
X0281194Y0113250D01*
X0282806Y0113250D01*
X0284151Y0113807D01*
X0284151Y0113296D01*
X0285498Y0111949D01*
X0294502Y0111949D01*
X0295849Y0113296D01*
X0295849Y0114143D01*
X0296194Y0114000D01*
X0297806Y0114000D01*
X0299151Y0114557D01*
X0299151Y0113296D01*
X0300498Y0111949D01*
X0309502Y0111949D01*
X0310849Y0113296D01*
X0310849Y0121501D01*
X0309502Y0122848D01*
X0300498Y0122848D01*
X0299808Y0122158D01*
X0297467Y0124500D01*
X0316200Y0124500D01*
X0316200Y0123244D01*
X0316817Y0121756D01*
X0316950Y0121622D01*
X0316950Y0113417D01*
X0310236Y0106703D01*
X0309706Y0106483D01*
X0308649Y0105427D01*
X0305775Y0105427D01*
X0305775Y0106976D01*
X0310349Y0106976D01*
X0310349Y0109588D01*
X0310227Y0110046D01*
X0309990Y0110456D01*
X0309654Y0110792D01*
X0309244Y0111029D01*
X0308786Y0111151D01*
X0305775Y0111151D01*
X0305775Y0106976D01*
X0304225Y0106976D01*
X0304225Y0105427D01*
X0299651Y0105427D01*
X0299651Y0102815D01*
X0299773Y0102357D01*
X0300010Y0101947D01*
X0300346Y0101612D01*
X0300756Y0101375D01*
X0301214Y0101252D01*
X0304225Y0101252D01*
X0304225Y0105427D01*
X0305775Y0105427D01*
X0305775Y0101252D01*
X0308361Y0101252D01*
X0308567Y0100756D01*
X0309706Y0099617D01*
X0309843Y0099560D01*
X0308383Y0098100D01*
X0308194Y0098100D01*
X0306706Y0097483D01*
X0305567Y0096344D01*
X0304950Y0094856D01*
X0304950Y0093244D01*
X0305567Y0091756D01*
X0305775Y0091548D01*
X0305775Y0088173D01*
X0310349Y0088173D01*
X0310349Y0090225D01*
X0311294Y0090617D01*
X0312433Y0091756D01*
X0313050Y0093244D01*
X0313050Y0093433D01*
X0315450Y0095833D01*
X0315450Y0073228D01*
X0315317Y0073094D01*
X0314700Y0071606D01*
X0314700Y0069994D01*
X0315317Y0068506D01*
X0316456Y0067367D01*
X0317944Y0066750D01*
X0319556Y0066750D01*
X0321044Y0067367D01*
X0322183Y0068506D01*
X0322800Y0069994D01*
X0322800Y0071606D01*
X0322183Y0073094D01*
X0322050Y0073228D01*
X0322050Y0100183D01*
X0327260Y0105393D01*
X0327317Y0105256D01*
X0327450Y0105122D01*
X0327450Y0098644D01*
X0327952Y0097431D01*
X0341700Y0083683D01*
X0341700Y0052800D01*
X0340978Y0052800D01*
X0340544Y0053233D01*
X0339056Y0053850D01*
X0337444Y0053850D01*
X0335956Y0053233D01*
X0335822Y0053100D01*
X0318928Y0053100D01*
X0318794Y0053233D01*
X0317306Y0053850D01*
X0315694Y0053850D01*
X0314206Y0053233D01*
X0313067Y0052094D01*
X0312450Y0050606D01*
X0312450Y0048994D01*
X0313067Y0047506D01*
X0314206Y0046367D01*
X0315694Y0045750D01*
X0317306Y0045750D01*
X0318794Y0046367D01*
X0318928Y0046500D01*
X0335822Y0046500D01*
X0335956Y0046367D01*
X0337444Y0045750D01*
X0339000Y0045750D01*
X0339000Y0042147D01*
X0340347Y0040800D01*
X0340515Y0040800D01*
X0339913Y0040199D01*
X0339000Y0037993D01*
X0339000Y0035607D01*
X0339913Y0033401D01*
X0341515Y0031800D01*
X0339913Y0030199D01*
X0339769Y0029850D01*
X0314344Y0029850D01*
X0313131Y0029348D01*
X0307633Y0023850D01*
X0300272Y0023850D01*
X0301000Y0025607D01*
X0301000Y0027993D01*
X0300087Y0030199D01*
X0298485Y0031800D01*
X0300087Y0033401D01*
X0301000Y0035607D01*
X0301000Y0037993D01*
X0300087Y0040199D01*
X0299485Y0040800D01*
X0299653Y0040800D01*
X0301000Y0042147D01*
X0301000Y0046746D01*
X0301131Y0046692D01*
X0301456Y0046367D01*
X0302944Y0045750D01*
X0304200Y0045750D01*
X0304200Y0033478D01*
X0304067Y0033344D01*
X0303450Y0031856D01*
X0303450Y0030244D01*
X0304067Y0028756D01*
X0305206Y0027617D01*
X0306694Y0027000D01*
X0308306Y0027000D01*
X0309794Y0027617D01*
X0310933Y0028756D01*
X0311550Y0030244D01*
X0311550Y0031856D01*
X0310933Y0033344D01*
X0310800Y0033478D01*
X0310800Y0052706D01*
X0310298Y0053919D01*
X0309369Y0054848D01*
X0308550Y0055667D01*
X0308550Y0070752D01*
X0309502Y0070752D01*
X0310849Y0072099D01*
X0310849Y0080304D01*
X0309502Y0081651D01*
X0300498Y0081651D01*
X0299151Y0080304D01*
X0299151Y0077100D01*
X0297694Y0077100D01*
X0296206Y0076483D01*
X0295849Y0076127D01*
X0295849Y0080304D01*
X0294502Y0081651D01*
X0287816Y0081651D01*
X0287550Y0081917D01*
X0287550Y0082106D01*
X0287408Y0082449D01*
X0289225Y0082449D01*
X0289225Y0086624D01*
X0284651Y0086624D01*
X0284651Y0085207D01*
X0284306Y0085350D01*
X0282694Y0085350D01*
X0281206Y0084733D01*
X0280300Y0083827D01*
X0280349Y0084012D01*
X0280349Y0086624D01*
X0275775Y0086624D01*
X0275775Y0088173D01*
X0280349Y0088173D01*
X0280349Y0090785D01*
X0280227Y0091243D01*
X0279990Y0091653D01*
X0279654Y0091988D01*
X0279244Y0092225D01*
X0278786Y0092348D01*
X0275775Y0092348D01*
X0275775Y0088173D01*
X0274225Y0088173D01*
X0274225Y0086624D01*
X0269651Y0086624D01*
X0269651Y0084012D01*
X0269773Y0083554D01*
X0270010Y0083144D01*
X0270346Y0082808D01*
X0270756Y0082571D01*
X0271214Y0082449D01*
X0274225Y0082449D01*
X0274225Y0086624D01*
X0275775Y0086624D01*
X0275775Y0082449D01*
X0278786Y0082449D01*
X0279244Y0082571D01*
X0279654Y0082808D01*
X0279802Y0082956D01*
X0279450Y0082106D01*
X0279450Y0081651D01*
X0270498Y0081651D01*
X0269151Y0080304D01*
X0269151Y0079270D01*
X0268131Y0078848D01*
X0265849Y0076566D01*
X0265849Y0080304D01*
X0264502Y0081651D01*
X0255498Y0081651D01*
X0254151Y0080304D01*
X0254151Y0080100D01*
X0252928Y0080100D01*
X0252794Y0080233D01*
X0251306Y0080850D01*
X0249694Y0080850D01*
X0248206Y0080233D01*
X0247067Y0079094D01*
X0247010Y0078957D01*
X0241800Y0084167D01*
X0241800Y0086456D01*
X0241298Y0087669D01*
X0237548Y0091419D01*
X0237467Y0091500D01*
X0244633Y0091500D01*
X0248700Y0087433D01*
X0248700Y0087244D01*
X0249317Y0085756D01*
X0250456Y0084617D01*
X0251944Y0084000D01*
X0253556Y0084000D01*
X0254651Y0084454D01*
X0254651Y0084012D01*
X0254773Y0083554D01*
X0255010Y0083144D01*
X0255346Y0082808D01*
X0255756Y0082571D01*
X0256214Y0082449D01*
X0259225Y0082449D01*
X0259225Y0086624D01*
X0260775Y0086624D01*
X0260775Y0088173D01*
X0265349Y0088173D01*
X0265349Y0090785D01*
X0265227Y0091243D01*
X0264990Y0091653D01*
X0264654Y0091988D01*
X0264244Y0092225D01*
X0263786Y0092348D01*
X0260775Y0092348D01*
X0260775Y0088173D01*
X0259225Y0088173D01*
X0259225Y0092348D01*
X0256214Y0092348D01*
X0255756Y0092225D01*
X0255346Y0091988D01*
X0255010Y0091653D01*
X0254938Y0091527D01*
X0253556Y0092100D01*
X0253367Y0092100D01*
X0247869Y0097598D01*
X0246656Y0098100D01*
X0234210Y0098100D01*
X0234210Y0102183D01*
X0233963Y0102430D01*
X0234210Y0102677D01*
X0234210Y0103093D01*
X0234548Y0103431D01*
X0245117Y0114000D01*
X0254151Y0114000D01*
X0254151Y0113296D01*
X0255498Y0111949D01*
X0264502Y0111949D01*
X0265849Y0113296D01*
X0265849Y0121501D01*
X0264502Y0122848D01*
X0255498Y0122848D01*
X0254151Y0121501D01*
X0254151Y0120600D01*
X0243094Y0120600D01*
X0242550Y0120375D01*
X0242550Y0121856D01*
X0241933Y0123344D01*
X0240794Y0124483D01*
X0239306Y0125100D01*
X0237694Y0125100D01*
X0236206Y0124483D01*
X0236072Y0124350D01*
X0234210Y0124350D01*
X0234210Y0127183D01*
X0232863Y0128530D01*
X0229814Y0128530D01*
X0229498Y0128742D01*
X0227919Y0129059D01*
X0226855Y0128850D01*
X0222467Y0128850D01*
X0223298Y0129681D02*
X0261952Y0129681D01*
X0260354Y0131279D02*
X0224896Y0131279D01*
X0226495Y0132878D02*
X0258755Y0132878D01*
X0257157Y0134476D02*
X0228093Y0134476D01*
X0229692Y0136075D02*
X0255558Y0136075D01*
X0253960Y0137673D02*
X0231290Y0137673D01*
X0232889Y0139272D02*
X0252361Y0139272D01*
X0250763Y0140870D02*
X0234487Y0140870D01*
X0236086Y0142469D02*
X0249164Y0142469D01*
X0247566Y0144068D02*
X0237684Y0144068D01*
X0230245Y0150462D02*
X0214800Y0150462D01*
X0214800Y0152060D02*
X0231843Y0152060D01*
X0233442Y0153659D02*
X0214800Y0153659D01*
X0214323Y0155257D02*
X0269715Y0155257D01*
X0269715Y0153659D02*
X0267558Y0153659D01*
X0269715Y0153221D02*
X0272815Y0153221D01*
X0272815Y0159020D01*
X0271278Y0159020D01*
X0270820Y0158898D01*
X0270410Y0158661D01*
X0270075Y0158326D01*
X0269838Y0157915D01*
X0269715Y0157457D01*
X0269715Y0153221D01*
X0269715Y0152060D02*
X0269157Y0152060D01*
X0272815Y0153659D02*
X0272815Y0153659D01*
X0272815Y0155257D02*
X0272815Y0155257D01*
X0272815Y0156856D02*
X0272815Y0156856D01*
X0272815Y0158454D02*
X0272815Y0158454D01*
X0270203Y0158454D02*
X0264723Y0158454D01*
X0265050Y0160053D02*
X0294580Y0160053D01*
X0292982Y0161651D02*
X0264720Y0161651D01*
X0263528Y0163250D02*
X0291383Y0163250D01*
X0289785Y0164848D02*
X0260343Y0164848D01*
X0260343Y0168045D02*
X0285527Y0168045D01*
X0284302Y0169644D02*
X0260343Y0169644D01*
X0260474Y0172841D02*
X0284255Y0172841D01*
X0283950Y0171242D02*
X0250800Y0171242D01*
X0249657Y0168045D02*
X0249223Y0168045D01*
X0254225Y0168045D02*
X0255775Y0168045D01*
X0255775Y0166447D02*
X0288186Y0166447D01*
X0285412Y0174439D02*
X0260843Y0174439D01*
X0260843Y0176038D02*
X0286845Y0176038D01*
X0285247Y0177636D02*
X0260843Y0177636D01*
X0260843Y0179235D02*
X0283648Y0179235D01*
X0268200Y0192767D02*
X0266619Y0194348D01*
X0266048Y0194584D01*
X0266048Y0196302D01*
X0264701Y0197649D01*
X0256496Y0197649D01*
X0255149Y0196302D01*
X0255149Y0187298D01*
X0256496Y0185951D01*
X0258673Y0185951D01*
X0258317Y0185594D01*
X0257700Y0184106D01*
X0257700Y0182761D01*
X0250504Y0182761D01*
X0249843Y0182100D01*
X0248428Y0182100D01*
X0228300Y0202228D01*
X0228300Y0211663D01*
X0228694Y0211500D01*
X0228883Y0211500D01*
X0241950Y0198433D01*
X0241950Y0198244D01*
X0242567Y0196756D01*
X0243706Y0195617D01*
X0244452Y0195308D01*
X0244452Y0192575D01*
X0248627Y0192575D01*
X0248627Y0195949D01*
X0249433Y0196756D01*
X0250050Y0198244D01*
X0250050Y0199856D01*
X0249433Y0201344D01*
X0248294Y0202483D01*
X0246806Y0203100D01*
X0246617Y0203100D01*
X0233550Y0216167D01*
X0233550Y0216356D01*
X0232933Y0217844D01*
X0231794Y0218983D01*
X0231346Y0219169D01*
X0239428Y0227250D01*
X0241065Y0227250D01*
X0241515Y0226800D01*
X0239913Y0225199D01*
X0239000Y0222993D01*
X0239000Y0220607D01*
X0239913Y0218401D01*
X0241601Y0216713D01*
X0243807Y0215800D01*
X0246193Y0215800D01*
X0248399Y0216713D01*
X0250087Y0218401D01*
X0250990Y0220582D01*
X0268200Y0203372D01*
X0268200Y0193841D01*
X0268195Y0193828D01*
X0268200Y0193037D01*
X0268200Y0192767D01*
X0268196Y0193621D02*
X0267346Y0193621D01*
X0268200Y0195220D02*
X0266048Y0195220D01*
X0265532Y0196818D02*
X0268200Y0196818D01*
X0268200Y0198417D02*
X0250050Y0198417D01*
X0250176Y0197149D02*
X0250176Y0192575D01*
X0248627Y0192575D01*
X0248627Y0191025D01*
X0250176Y0191025D01*
X0250176Y0186451D01*
X0252788Y0186451D01*
X0253246Y0186573D01*
X0253656Y0186810D01*
X0253992Y0187146D01*
X0254229Y0187556D01*
X0254351Y0188014D01*
X0254351Y0191025D01*
X0250176Y0191025D01*
X0250176Y0192575D01*
X0254351Y0192575D01*
X0254351Y0195586D01*
X0254229Y0196044D01*
X0253992Y0196454D01*
X0253656Y0196790D01*
X0253246Y0197027D01*
X0252788Y0197149D01*
X0250176Y0197149D01*
X0250176Y0196818D02*
X0249459Y0196818D01*
X0250176Y0195220D02*
X0248627Y0195220D01*
X0248627Y0193621D02*
X0250176Y0193621D01*
X0250176Y0192023D02*
X0255149Y0192023D01*
X0255149Y0193621D02*
X0254351Y0193621D01*
X0254351Y0195220D02*
X0255149Y0195220D01*
X0255665Y0196818D02*
X0253606Y0196818D01*
X0249984Y0200015D02*
X0268200Y0200015D01*
X0268200Y0201614D02*
X0249164Y0201614D01*
X0246504Y0203212D02*
X0268200Y0203212D01*
X0266761Y0204811D02*
X0244906Y0204811D01*
X0243307Y0206409D02*
X0265163Y0206409D01*
X0263564Y0208008D02*
X0241709Y0208008D01*
X0240110Y0209606D02*
X0261966Y0209606D01*
X0260367Y0211205D02*
X0238512Y0211205D01*
X0236913Y0212803D02*
X0258769Y0212803D01*
X0257170Y0214402D02*
X0235315Y0214402D01*
X0233716Y0216001D02*
X0243322Y0216001D01*
X0240716Y0217599D02*
X0233035Y0217599D01*
X0231375Y0219198D02*
X0239584Y0219198D01*
X0239000Y0220796D02*
X0232974Y0220796D01*
X0234572Y0222395D02*
X0239000Y0222395D01*
X0239414Y0223993D02*
X0236171Y0223993D01*
X0237769Y0225592D02*
X0240306Y0225592D01*
X0241125Y0227190D02*
X0239368Y0227190D01*
X0250416Y0219198D02*
X0252375Y0219198D01*
X0253973Y0217599D02*
X0249284Y0217599D01*
X0246678Y0216001D02*
X0255572Y0216001D01*
X0238769Y0201614D02*
X0228914Y0201614D01*
X0228300Y0203212D02*
X0237171Y0203212D01*
X0235572Y0204811D02*
X0228300Y0204811D01*
X0228300Y0206409D02*
X0233974Y0206409D01*
X0232375Y0208008D02*
X0228300Y0208008D01*
X0228300Y0209606D02*
X0230777Y0209606D01*
X0229178Y0211205D02*
X0228300Y0211205D01*
X0230512Y0200015D02*
X0240368Y0200015D01*
X0241950Y0198417D02*
X0232111Y0198417D01*
X0233709Y0196818D02*
X0242541Y0196818D01*
X0244452Y0195220D02*
X0235308Y0195220D01*
X0236906Y0193621D02*
X0244452Y0193621D01*
X0244452Y0191025D02*
X0244452Y0188014D01*
X0244575Y0187556D01*
X0244812Y0187146D01*
X0245147Y0186810D01*
X0245557Y0186573D01*
X0246015Y0186451D01*
X0248627Y0186451D01*
X0248627Y0191025D01*
X0244452Y0191025D01*
X0244452Y0190424D02*
X0240103Y0190424D01*
X0241702Y0188826D02*
X0244452Y0188826D01*
X0244764Y0187227D02*
X0243300Y0187227D01*
X0244899Y0185629D02*
X0258351Y0185629D01*
X0257700Y0184030D02*
X0246497Y0184030D01*
X0248096Y0182432D02*
X0250174Y0182432D01*
X0250176Y0187227D02*
X0248627Y0187227D01*
X0248627Y0188826D02*
X0250176Y0188826D01*
X0250176Y0190424D02*
X0248627Y0190424D01*
X0248627Y0192023D02*
X0238505Y0192023D01*
X0254039Y0187227D02*
X0255220Y0187227D01*
X0255149Y0188826D02*
X0254351Y0188826D01*
X0254351Y0190424D02*
X0255149Y0190424D01*
X0235292Y0172841D02*
X0198300Y0172841D01*
X0198300Y0174439D02*
X0233694Y0174439D01*
X0232095Y0176038D02*
X0230965Y0176038D01*
X0236891Y0171242D02*
X0198300Y0171242D01*
X0198300Y0169644D02*
X0238489Y0169644D01*
X0240735Y0168045D02*
X0198300Y0168045D01*
X0198300Y0166447D02*
X0254225Y0166447D01*
X0254225Y0169644D02*
X0255775Y0169644D01*
X0249589Y0156856D02*
X0212749Y0156856D01*
X0208751Y0156856D02*
X0198992Y0156856D01*
X0199050Y0158454D02*
X0208868Y0158454D01*
X0207737Y0160053D02*
X0198451Y0160053D01*
X0198300Y0161651D02*
X0207450Y0161651D01*
X0207820Y0163250D02*
X0198300Y0163250D01*
X0198300Y0164848D02*
X0209071Y0164848D01*
X0207177Y0155257D02*
X0198185Y0155257D01*
X0206700Y0153659D02*
X0177558Y0153659D01*
X0182354Y0148863D02*
X0189764Y0148863D01*
X0189450Y0147265D02*
X0183952Y0147265D01*
X0185551Y0145666D02*
X0189793Y0145666D01*
X0190200Y0144068D02*
X0187149Y0144068D01*
X0188748Y0142469D02*
X0190200Y0142469D01*
X0214993Y0147265D02*
X0227048Y0147265D01*
X0228646Y0148863D02*
X0214800Y0148863D01*
X0215961Y0145666D02*
X0225449Y0145666D01*
X0223851Y0144068D02*
X0215961Y0144068D01*
X0215961Y0142469D02*
X0222252Y0142469D01*
X0220654Y0140870D02*
X0215961Y0140870D01*
X0215961Y0139272D02*
X0219055Y0139272D01*
X0233310Y0128082D02*
X0263551Y0128082D01*
X0265149Y0126484D02*
X0234210Y0126484D01*
X0234210Y0124885D02*
X0237176Y0124885D01*
X0239824Y0124885D02*
X0266748Y0124885D01*
X0268346Y0123287D02*
X0241957Y0123287D01*
X0242550Y0121688D02*
X0254338Y0121688D01*
X0265662Y0121688D02*
X0269338Y0121688D01*
X0269151Y0120090D02*
X0265849Y0120090D01*
X0265849Y0118491D02*
X0269151Y0118491D01*
X0269151Y0116893D02*
X0265849Y0116893D01*
X0265849Y0115294D02*
X0269151Y0115294D01*
X0269151Y0113696D02*
X0265849Y0113696D01*
X0264650Y0112097D02*
X0270350Y0112097D01*
X0270756Y0111029D02*
X0270346Y0110792D01*
X0270010Y0110456D01*
X0269773Y0110046D01*
X0269651Y0109588D01*
X0269651Y0106976D01*
X0274225Y0106976D01*
X0274225Y0105427D01*
X0269651Y0105427D01*
X0269651Y0102815D01*
X0269773Y0102357D01*
X0270010Y0101947D01*
X0270346Y0101612D01*
X0270756Y0101375D01*
X0271214Y0101252D01*
X0274225Y0101252D01*
X0274225Y0105427D01*
X0275775Y0105427D01*
X0275775Y0106976D01*
X0280349Y0106976D01*
X0280349Y0109588D01*
X0280227Y0110046D01*
X0279990Y0110456D01*
X0279654Y0110792D01*
X0279244Y0111029D01*
X0278786Y0111151D01*
X0275775Y0111151D01*
X0275775Y0106976D01*
X0274225Y0106976D01*
X0274225Y0111151D01*
X0271214Y0111151D01*
X0270756Y0111029D01*
X0270053Y0110499D02*
X0264947Y0110499D01*
X0264990Y0110456D02*
X0264654Y0110792D01*
X0264244Y0111029D01*
X0263786Y0111151D01*
X0260775Y0111151D01*
X0260775Y0106976D01*
X0265349Y0106976D01*
X0265349Y0109588D01*
X0265227Y0110046D01*
X0264990Y0110456D01*
X0265349Y0108900D02*
X0269651Y0108900D01*
X0269651Y0107302D02*
X0265349Y0107302D01*
X0265349Y0105427D02*
X0260775Y0105427D01*
X0260775Y0106976D01*
X0259225Y0106976D01*
X0259225Y0105427D01*
X0254651Y0105427D01*
X0254651Y0102815D01*
X0254773Y0102357D01*
X0255010Y0101947D01*
X0255346Y0101612D01*
X0255756Y0101375D01*
X0256214Y0101252D01*
X0259225Y0101252D01*
X0259225Y0105427D01*
X0260775Y0105427D01*
X0260775Y0101252D01*
X0263786Y0101252D01*
X0264244Y0101375D01*
X0264654Y0101612D01*
X0264990Y0101947D01*
X0265227Y0102357D01*
X0265349Y0102815D01*
X0265349Y0105427D01*
X0265349Y0104105D02*
X0269651Y0104105D01*
X0269734Y0102506D02*
X0265266Y0102506D01*
X0260775Y0102506D02*
X0259225Y0102506D01*
X0259225Y0104105D02*
X0260775Y0104105D01*
X0260775Y0105703D02*
X0274225Y0105703D01*
X0275775Y0105703D02*
X0289225Y0105703D01*
X0289225Y0105427D02*
X0284651Y0105427D01*
X0284651Y0102815D01*
X0284773Y0102357D01*
X0285010Y0101947D01*
X0285346Y0101612D01*
X0285756Y0101375D01*
X0286214Y0101252D01*
X0289225Y0101252D01*
X0289225Y0105427D01*
X0289225Y0106976D01*
X0284651Y0106976D01*
X0284651Y0109588D01*
X0284773Y0110046D01*
X0285010Y0110456D01*
X0285346Y0110792D01*
X0285756Y0111029D01*
X0286214Y0111151D01*
X0289225Y0111151D01*
X0289225Y0106976D01*
X0290775Y0106976D01*
X0295349Y0106976D01*
X0295349Y0109588D01*
X0295227Y0110046D01*
X0294990Y0110456D01*
X0294654Y0110792D01*
X0294244Y0111029D01*
X0293786Y0111151D01*
X0290775Y0111151D01*
X0290775Y0106976D01*
X0290775Y0105427D01*
X0295349Y0105427D01*
X0295349Y0102815D01*
X0295227Y0102357D01*
X0294990Y0101947D01*
X0294654Y0101612D01*
X0294244Y0101375D01*
X0293786Y0101252D01*
X0290775Y0101252D01*
X0290775Y0105427D01*
X0289225Y0105427D01*
X0289225Y0104105D02*
X0290775Y0104105D01*
X0290775Y0105703D02*
X0304225Y0105703D01*
X0304225Y0106976D02*
X0299651Y0106976D01*
X0299651Y0109588D01*
X0299773Y0110046D01*
X0300010Y0110456D01*
X0300346Y0110792D01*
X0300756Y0111029D01*
X0301214Y0111151D01*
X0304225Y0111151D01*
X0304225Y0106976D01*
X0304225Y0107302D02*
X0305775Y0107302D01*
X0305775Y0108900D02*
X0304225Y0108900D01*
X0304225Y0110499D02*
X0305775Y0110499D01*
X0309947Y0110499D02*
X0314032Y0110499D01*
X0315630Y0112097D02*
X0309650Y0112097D01*
X0310849Y0113696D02*
X0316950Y0113696D01*
X0316950Y0115294D02*
X0310849Y0115294D01*
X0310849Y0116893D02*
X0316950Y0116893D01*
X0316950Y0118491D02*
X0310849Y0118491D01*
X0310849Y0120090D02*
X0316950Y0120090D01*
X0316884Y0121688D02*
X0310662Y0121688D01*
X0316200Y0123287D02*
X0298680Y0123287D01*
X0299151Y0113696D02*
X0295849Y0113696D01*
X0294650Y0112097D02*
X0300350Y0112097D01*
X0300053Y0110499D02*
X0294947Y0110499D01*
X0295349Y0108900D02*
X0299651Y0108900D01*
X0299651Y0107302D02*
X0295349Y0107302D01*
X0295349Y0104105D02*
X0299651Y0104105D01*
X0299734Y0102506D02*
X0295266Y0102506D01*
X0290775Y0102506D02*
X0289225Y0102506D01*
X0284734Y0102506D02*
X0280266Y0102506D01*
X0280227Y0102357D02*
X0280349Y0102815D01*
X0280349Y0105427D01*
X0275775Y0105427D01*
X0275775Y0101252D01*
X0278786Y0101252D01*
X0279244Y0101375D01*
X0279654Y0101612D01*
X0279990Y0101947D01*
X0280227Y0102357D01*
X0280349Y0104105D02*
X0284651Y0104105D01*
X0284651Y0107302D02*
X0280349Y0107302D01*
X0280349Y0108900D02*
X0284651Y0108900D01*
X0285053Y0110499D02*
X0279947Y0110499D01*
X0279650Y0112097D02*
X0285350Y0112097D01*
X0284151Y0113696D02*
X0283882Y0113696D01*
X0289225Y0110499D02*
X0290775Y0110499D01*
X0290775Y0108900D02*
X0289225Y0108900D01*
X0289225Y0107302D02*
X0290775Y0107302D01*
X0304225Y0104105D02*
X0305775Y0104105D01*
X0305775Y0105703D02*
X0308926Y0105703D01*
X0310349Y0107302D02*
X0310835Y0107302D01*
X0310349Y0108900D02*
X0312433Y0108900D01*
X0305775Y0102506D02*
X0304225Y0102506D01*
X0308504Y0100908D02*
X0234210Y0100908D01*
X0234210Y0099309D02*
X0309592Y0099309D01*
X0307255Y0097711D02*
X0247596Y0097711D01*
X0249355Y0096112D02*
X0305470Y0096112D01*
X0304950Y0094514D02*
X0250953Y0094514D01*
X0252552Y0092915D02*
X0305086Y0092915D01*
X0304225Y0092348D02*
X0301214Y0092348D01*
X0300756Y0092225D01*
X0300346Y0091988D01*
X0300010Y0091653D01*
X0299773Y0091243D01*
X0299651Y0090785D01*
X0299651Y0088173D01*
X0304225Y0088173D01*
X0304225Y0086624D01*
X0299651Y0086624D01*
X0299651Y0084012D01*
X0299773Y0083554D01*
X0300010Y0083144D01*
X0300346Y0082808D01*
X0300756Y0082571D01*
X0301214Y0082449D01*
X0304225Y0082449D01*
X0304225Y0086624D01*
X0305775Y0086624D01*
X0305775Y0088173D01*
X0304225Y0088173D01*
X0304225Y0092348D01*
X0304225Y0091317D02*
X0305775Y0091317D01*
X0305775Y0089718D02*
X0304225Y0089718D01*
X0304225Y0088120D02*
X0290775Y0088120D01*
X0290775Y0088173D02*
X0295349Y0088173D01*
X0295349Y0090785D01*
X0295227Y0091243D01*
X0294990Y0091653D01*
X0294654Y0091988D01*
X0294244Y0092225D01*
X0293786Y0092348D01*
X0290775Y0092348D01*
X0290775Y0088173D01*
X0290775Y0086624D01*
X0295349Y0086624D01*
X0295349Y0084012D01*
X0295227Y0083554D01*
X0294990Y0083144D01*
X0294654Y0082808D01*
X0294244Y0082571D01*
X0293786Y0082449D01*
X0290775Y0082449D01*
X0290775Y0086624D01*
X0289225Y0086624D01*
X0289225Y0088173D01*
X0284651Y0088173D01*
X0284651Y0090785D01*
X0284773Y0091243D01*
X0285010Y0091653D01*
X0285346Y0091988D01*
X0285756Y0092225D01*
X0286214Y0092348D01*
X0289225Y0092348D01*
X0289225Y0088173D01*
X0290775Y0088173D01*
X0290775Y0089718D02*
X0289225Y0089718D01*
X0289225Y0088120D02*
X0275775Y0088120D01*
X0274225Y0088120D02*
X0260775Y0088120D01*
X0260775Y0086624D02*
X0265349Y0086624D01*
X0265349Y0084012D01*
X0265227Y0083554D01*
X0264990Y0083144D01*
X0264654Y0082808D01*
X0264244Y0082571D01*
X0263786Y0082449D01*
X0260775Y0082449D01*
X0260775Y0086624D01*
X0260775Y0086521D02*
X0259225Y0086521D01*
X0259225Y0084923D02*
X0260775Y0084923D01*
X0260775Y0083324D02*
X0259225Y0083324D01*
X0254906Y0083324D02*
X0242643Y0083324D01*
X0241800Y0084923D02*
X0250150Y0084923D01*
X0249000Y0086521D02*
X0241773Y0086521D01*
X0240847Y0088120D02*
X0248013Y0088120D01*
X0246415Y0089718D02*
X0239249Y0089718D01*
X0237650Y0091317D02*
X0244816Y0091317D01*
X0244241Y0081726D02*
X0279450Y0081726D01*
X0280349Y0084923D02*
X0281663Y0084923D01*
X0280349Y0086521D02*
X0284651Y0086521D01*
X0284651Y0089718D02*
X0280349Y0089718D01*
X0280184Y0091317D02*
X0284816Y0091317D01*
X0289225Y0091317D02*
X0290775Y0091317D01*
X0295184Y0091317D02*
X0299816Y0091317D01*
X0299651Y0089718D02*
X0295349Y0089718D01*
X0295349Y0086521D02*
X0299651Y0086521D01*
X0299651Y0084923D02*
X0295349Y0084923D01*
X0295094Y0083324D02*
X0299906Y0083324D01*
X0304225Y0083324D02*
X0305775Y0083324D01*
X0305775Y0082449D02*
X0308786Y0082449D01*
X0309244Y0082571D01*
X0309654Y0082808D01*
X0309990Y0083144D01*
X0310227Y0083554D01*
X0310349Y0084012D01*
X0310349Y0086624D01*
X0305775Y0086624D01*
X0305775Y0082449D01*
X0305775Y0084923D02*
X0304225Y0084923D01*
X0304225Y0086521D02*
X0305775Y0086521D01*
X0305775Y0088120D02*
X0315450Y0088120D01*
X0315450Y0089718D02*
X0310349Y0089718D01*
X0311994Y0091317D02*
X0315450Y0091317D01*
X0315450Y0092915D02*
X0312914Y0092915D01*
X0314131Y0094514D02*
X0315450Y0094514D01*
X0322050Y0094514D02*
X0330869Y0094514D01*
X0329271Y0096112D02*
X0322050Y0096112D01*
X0322050Y0097711D02*
X0327836Y0097711D01*
X0327450Y0099309D02*
X0322050Y0099309D01*
X0322775Y0100908D02*
X0327450Y0100908D01*
X0327450Y0102506D02*
X0324373Y0102506D01*
X0325972Y0104105D02*
X0327450Y0104105D01*
X0332468Y0092915D02*
X0322050Y0092915D01*
X0322050Y0091317D02*
X0334066Y0091317D01*
X0335665Y0089718D02*
X0322050Y0089718D01*
X0322050Y0088120D02*
X0337263Y0088120D01*
X0338862Y0086521D02*
X0322050Y0086521D01*
X0322050Y0084923D02*
X0340461Y0084923D01*
X0341700Y0083324D02*
X0322050Y0083324D01*
X0322050Y0081726D02*
X0341700Y0081726D01*
X0341700Y0080127D02*
X0322050Y0080127D01*
X0322050Y0078529D02*
X0341700Y0078529D01*
X0341700Y0076930D02*
X0322050Y0076930D01*
X0322050Y0075332D02*
X0341700Y0075332D01*
X0341700Y0073733D02*
X0322050Y0073733D01*
X0322581Y0072134D02*
X0341700Y0072134D01*
X0341700Y0070536D02*
X0322800Y0070536D01*
X0322362Y0068937D02*
X0341700Y0068937D01*
X0341700Y0067339D02*
X0320977Y0067339D01*
X0316523Y0067339D02*
X0308550Y0067339D01*
X0308550Y0068937D02*
X0315138Y0068937D01*
X0314700Y0070536D02*
X0308550Y0070536D01*
X0310849Y0072134D02*
X0314919Y0072134D01*
X0315450Y0073733D02*
X0310849Y0073733D01*
X0310849Y0075332D02*
X0315450Y0075332D01*
X0315450Y0076930D02*
X0310849Y0076930D01*
X0310849Y0078529D02*
X0315450Y0078529D01*
X0315450Y0080127D02*
X0310849Y0080127D01*
X0315450Y0081726D02*
X0287741Y0081726D01*
X0289225Y0083324D02*
X0290775Y0083324D01*
X0290775Y0084923D02*
X0289225Y0084923D01*
X0289225Y0086521D02*
X0290775Y0086521D01*
X0295849Y0080127D02*
X0299151Y0080127D01*
X0299151Y0078529D02*
X0295849Y0078529D01*
X0295849Y0076930D02*
X0297284Y0076930D01*
X0310094Y0083324D02*
X0315450Y0083324D01*
X0315450Y0084923D02*
X0310349Y0084923D01*
X0310349Y0086521D02*
X0315450Y0086521D01*
X0308550Y0065740D02*
X0341700Y0065740D01*
X0341700Y0064142D02*
X0308550Y0064142D01*
X0308550Y0062543D02*
X0341700Y0062543D01*
X0341700Y0060945D02*
X0308550Y0060945D01*
X0308550Y0059346D02*
X0341700Y0059346D01*
X0341700Y0057748D02*
X0308550Y0057748D01*
X0308550Y0056149D02*
X0341700Y0056149D01*
X0341700Y0054551D02*
X0309666Y0054551D01*
X0310698Y0052952D02*
X0313925Y0052952D01*
X0312760Y0051354D02*
X0310800Y0051354D01*
X0310800Y0049755D02*
X0312450Y0049755D01*
X0312797Y0048157D02*
X0310800Y0048157D01*
X0310800Y0046558D02*
X0314014Y0046558D01*
X0310800Y0044960D02*
X0339000Y0044960D01*
X0339000Y0043361D02*
X0310800Y0043361D01*
X0310800Y0041763D02*
X0339385Y0041763D01*
X0339899Y0040164D02*
X0310800Y0040164D01*
X0310800Y0038566D02*
X0339237Y0038566D01*
X0339000Y0036967D02*
X0310800Y0036967D01*
X0310800Y0035369D02*
X0339098Y0035369D01*
X0339761Y0033770D02*
X0310800Y0033770D01*
X0311419Y0032172D02*
X0341143Y0032172D01*
X0340288Y0030573D02*
X0311550Y0030573D01*
X0311024Y0028975D02*
X0312758Y0028975D01*
X0311159Y0027376D02*
X0309214Y0027376D01*
X0309561Y0025778D02*
X0301000Y0025778D01*
X0301000Y0027376D02*
X0305786Y0027376D01*
X0303976Y0028975D02*
X0300594Y0028975D01*
X0299712Y0030573D02*
X0303450Y0030573D01*
X0303581Y0032172D02*
X0298857Y0032172D01*
X0300239Y0033770D02*
X0304200Y0033770D01*
X0304200Y0035369D02*
X0300901Y0035369D01*
X0301000Y0036967D02*
X0304200Y0036967D01*
X0304200Y0038566D02*
X0300763Y0038566D01*
X0300101Y0040164D02*
X0304200Y0040164D01*
X0304200Y0041763D02*
X0300615Y0041763D01*
X0301000Y0043361D02*
X0304200Y0043361D01*
X0304200Y0044960D02*
X0301000Y0044960D01*
X0301000Y0046558D02*
X0301264Y0046558D01*
X0300409Y0024179D02*
X0307962Y0024179D01*
X0340825Y0052952D02*
X0341700Y0052952D01*
X0384300Y0052952D02*
X0397950Y0052952D01*
X0397950Y0052800D02*
X0390347Y0052800D01*
X0389000Y0051453D01*
X0389000Y0045967D01*
X0385702Y0042669D01*
X0385200Y0041456D01*
X0385200Y0024394D01*
X0385702Y0023181D01*
X0386631Y0022252D01*
X0391131Y0017752D01*
X0392344Y0017250D01*
X0398156Y0017250D01*
X0399369Y0017752D01*
X0400298Y0018681D01*
X0407048Y0025431D01*
X0407550Y0026644D01*
X0407550Y0129956D01*
X0407048Y0131169D01*
X0406119Y0132098D01*
X0391869Y0146348D01*
X0391119Y0146658D01*
X0390794Y0146983D01*
X0389306Y0147600D01*
X0387694Y0147600D01*
X0386206Y0146983D01*
X0385067Y0145844D01*
X0384450Y0144356D01*
X0384450Y0142744D01*
X0385067Y0141256D01*
X0386206Y0140117D01*
X0386246Y0140100D01*
X0385406Y0140100D01*
X0384094Y0140100D01*
X0382881Y0139598D01*
X0380383Y0137100D01*
X0378300Y0137100D01*
X0378300Y0171122D01*
X0378433Y0171256D01*
X0379050Y0172744D01*
X0379050Y0174356D01*
X0378433Y0175844D01*
X0377294Y0176983D01*
X0375806Y0177600D01*
X0374194Y0177600D01*
X0372706Y0176983D01*
X0371567Y0175844D01*
X0370950Y0174356D01*
X0370950Y0172744D01*
X0371567Y0171256D01*
X0371700Y0171122D01*
X0371700Y0119100D01*
X0370444Y0119100D01*
X0368956Y0118483D01*
X0367817Y0117344D01*
X0367200Y0115856D01*
X0367200Y0115350D01*
X0365944Y0115350D01*
X0364456Y0114733D01*
X0363317Y0113594D01*
X0362700Y0112106D01*
X0362700Y0111917D01*
X0355050Y0104267D01*
X0355050Y0109706D01*
X0354548Y0110919D01*
X0353619Y0111848D01*
X0344157Y0121310D01*
X0344294Y0121367D01*
X0345433Y0122506D01*
X0346050Y0123994D01*
X0346050Y0125606D01*
X0345433Y0127094D01*
X0344294Y0128233D01*
X0342806Y0128850D01*
X0342617Y0128850D01*
X0334217Y0137250D01*
X0337406Y0137250D01*
X0338619Y0137752D01*
X0352119Y0151252D01*
X0353048Y0152181D01*
X0353550Y0153394D01*
X0353550Y0167250D01*
X0354806Y0167250D01*
X0356294Y0167867D01*
X0357433Y0169006D01*
X0358050Y0170494D01*
X0358050Y0172106D01*
X0358027Y0172160D01*
X0390369Y0204502D01*
X0391298Y0205431D01*
X0391800Y0206644D01*
X0391800Y0216631D01*
X0393807Y0215800D01*
X0396193Y0215800D01*
X0398399Y0216713D01*
X0400087Y0218401D01*
X0401000Y0220607D01*
X0401000Y0222993D01*
X0400087Y0225199D01*
X0398485Y0226800D01*
X0400087Y0228401D01*
X0401000Y0230607D01*
X0401000Y0232993D01*
X0400087Y0235199D01*
X0399485Y0235800D01*
X0399653Y0235800D01*
X0401000Y0237147D01*
X0401000Y0246453D01*
X0399653Y0247800D01*
X0390347Y0247800D01*
X0389000Y0246453D01*
X0389000Y0240967D01*
X0385702Y0237669D01*
X0385200Y0236456D01*
X0385200Y0208667D01*
X0353550Y0177017D01*
X0353550Y0183433D01*
X0362619Y0192502D01*
X0363548Y0193431D01*
X0364050Y0194644D01*
X0364050Y0246206D01*
X0363548Y0247419D01*
X0351548Y0259419D01*
X0350619Y0260348D01*
X0349406Y0260850D01*
X0060094Y0260850D01*
X0058881Y0260348D01*
X0046333Y0247800D01*
X0040347Y0247800D01*
X0039000Y0246453D01*
X0039000Y0237147D01*
X0040347Y0235800D01*
X0040515Y0235800D01*
X0039913Y0235199D01*
X0039000Y0232993D01*
X0039000Y0230607D01*
X0039913Y0228401D01*
X0041515Y0226800D01*
X0039913Y0225199D01*
X0039000Y0222993D01*
X0039000Y0220607D01*
X0039913Y0218401D01*
X0041601Y0216713D01*
X0041700Y0216673D01*
X0041700Y0182644D01*
X0042202Y0181431D01*
X0043131Y0180502D01*
X0070881Y0152752D01*
X0072094Y0152250D01*
X0091633Y0152250D01*
X0101343Y0142540D01*
X0101206Y0142483D01*
X0100067Y0141344D01*
X0099450Y0139856D01*
X0099450Y0139667D01*
X0081381Y0121598D01*
X0080452Y0120669D01*
X0079950Y0119456D01*
X0079950Y0117600D01*
X0078694Y0117600D01*
X0077206Y0116983D01*
X0076067Y0115844D01*
X0075450Y0114356D01*
X0075450Y0114126D01*
X0074306Y0114600D01*
X0072694Y0114600D01*
X0071206Y0113983D01*
X0070067Y0112844D01*
X0069450Y0111356D01*
X0069450Y0109744D01*
X0070067Y0108256D01*
X0070200Y0108122D01*
X0070200Y0048017D01*
X0066300Y0051917D01*
X0066300Y0111433D01*
X0074048Y0119181D01*
X0074550Y0120394D01*
X0074550Y0138206D01*
X0074048Y0139419D01*
X0073119Y0140348D01*
X0071619Y0141848D01*
X0070406Y0142350D01*
X0048844Y0142350D01*
X0047631Y0141848D01*
X0046702Y0140919D01*
X0042539Y0136756D01*
X0042195Y0137100D01*
X0037805Y0137100D01*
X0034700Y0133995D01*
X0034700Y0129605D01*
X0035044Y0129261D01*
X0017600Y0111817D01*
X0017600Y0261800D01*
X0412400Y0261800D01*
X0412400Y0004400D01*
X0365017Y0004400D01*
X0383619Y0023002D01*
X0384548Y0023931D01*
X0385050Y0025144D01*
X0385050Y0032606D01*
X0384433Y0034094D01*
X0384300Y0034228D01*
X0384300Y0057433D01*
X0389845Y0062978D01*
X0389956Y0062867D01*
X0391444Y0062250D01*
X0391633Y0062250D01*
X0397950Y0055933D01*
X0397950Y0052800D01*
X0397950Y0054551D02*
X0384300Y0054551D01*
X0384300Y0056149D02*
X0397734Y0056149D01*
X0396135Y0057748D02*
X0384615Y0057748D01*
X0386213Y0059346D02*
X0394537Y0059346D01*
X0392938Y0060945D02*
X0387812Y0060945D01*
X0389410Y0062543D02*
X0390736Y0062543D01*
X0389000Y0051354D02*
X0384300Y0051354D01*
X0384300Y0049755D02*
X0389000Y0049755D01*
X0389000Y0048157D02*
X0384300Y0048157D01*
X0384300Y0046558D02*
X0389000Y0046558D01*
X0387993Y0044960D02*
X0384300Y0044960D01*
X0384300Y0043361D02*
X0386394Y0043361D01*
X0385327Y0041763D02*
X0384300Y0041763D01*
X0384300Y0040164D02*
X0385200Y0040164D01*
X0385200Y0038566D02*
X0384300Y0038566D01*
X0384300Y0036967D02*
X0385200Y0036967D01*
X0385200Y0035369D02*
X0384300Y0035369D01*
X0384568Y0033770D02*
X0385200Y0033770D01*
X0385200Y0032172D02*
X0385050Y0032172D01*
X0385050Y0030573D02*
X0385200Y0030573D01*
X0385200Y0028975D02*
X0385050Y0028975D01*
X0385050Y0027376D02*
X0385200Y0027376D01*
X0385200Y0025778D02*
X0385050Y0025778D01*
X0385289Y0024179D02*
X0384651Y0024179D01*
X0383198Y0022581D02*
X0386302Y0022581D01*
X0387901Y0020982D02*
X0381599Y0020982D01*
X0380001Y0019384D02*
X0389499Y0019384D01*
X0391098Y0017785D02*
X0378402Y0017785D01*
X0376803Y0016187D02*
X0412400Y0016187D01*
X0412400Y0017785D02*
X0399402Y0017785D01*
X0401001Y0019384D02*
X0412400Y0019384D01*
X0412400Y0020982D02*
X0402599Y0020982D01*
X0404198Y0022581D02*
X0412400Y0022581D01*
X0412400Y0024179D02*
X0405796Y0024179D01*
X0407191Y0025778D02*
X0412400Y0025778D01*
X0412400Y0027376D02*
X0407550Y0027376D01*
X0407550Y0028975D02*
X0412400Y0028975D01*
X0412400Y0030573D02*
X0407550Y0030573D01*
X0407550Y0032172D02*
X0412400Y0032172D01*
X0412400Y0033770D02*
X0407550Y0033770D01*
X0407550Y0035369D02*
X0412400Y0035369D01*
X0412400Y0036967D02*
X0407550Y0036967D01*
X0407550Y0038566D02*
X0412400Y0038566D01*
X0412400Y0040164D02*
X0407550Y0040164D01*
X0407550Y0041763D02*
X0412400Y0041763D01*
X0412400Y0043361D02*
X0407550Y0043361D01*
X0407550Y0044960D02*
X0412400Y0044960D01*
X0412400Y0046558D02*
X0407550Y0046558D01*
X0407550Y0048157D02*
X0412400Y0048157D01*
X0412400Y0049755D02*
X0407550Y0049755D01*
X0407550Y0051354D02*
X0412400Y0051354D01*
X0412400Y0052952D02*
X0407550Y0052952D01*
X0407550Y0054551D02*
X0412400Y0054551D01*
X0412400Y0056149D02*
X0407550Y0056149D01*
X0407550Y0057748D02*
X0412400Y0057748D01*
X0412400Y0059346D02*
X0407550Y0059346D01*
X0407550Y0060945D02*
X0412400Y0060945D01*
X0412400Y0062543D02*
X0407550Y0062543D01*
X0407550Y0064142D02*
X0412400Y0064142D01*
X0412400Y0065740D02*
X0407550Y0065740D01*
X0407550Y0067339D02*
X0412400Y0067339D01*
X0412400Y0068937D02*
X0407550Y0068937D01*
X0407550Y0070536D02*
X0412400Y0070536D01*
X0412400Y0072134D02*
X0407550Y0072134D01*
X0407550Y0073733D02*
X0412400Y0073733D01*
X0412400Y0075332D02*
X0407550Y0075332D01*
X0407550Y0076930D02*
X0412400Y0076930D01*
X0412400Y0078529D02*
X0407550Y0078529D01*
X0407550Y0080127D02*
X0412400Y0080127D01*
X0412400Y0081726D02*
X0407550Y0081726D01*
X0407550Y0083324D02*
X0412400Y0083324D01*
X0412400Y0084923D02*
X0407550Y0084923D01*
X0407550Y0086521D02*
X0412400Y0086521D01*
X0412400Y0088120D02*
X0407550Y0088120D01*
X0407550Y0089718D02*
X0412400Y0089718D01*
X0412400Y0091317D02*
X0407550Y0091317D01*
X0407550Y0092915D02*
X0412400Y0092915D01*
X0412400Y0094514D02*
X0407550Y0094514D01*
X0407550Y0096112D02*
X0412400Y0096112D01*
X0412400Y0097711D02*
X0407550Y0097711D01*
X0407550Y0099309D02*
X0412400Y0099309D01*
X0412400Y0100908D02*
X0407550Y0100908D01*
X0407550Y0102506D02*
X0412400Y0102506D01*
X0412400Y0104105D02*
X0407550Y0104105D01*
X0407550Y0105703D02*
X0412400Y0105703D01*
X0412400Y0107302D02*
X0407550Y0107302D01*
X0407550Y0108900D02*
X0412400Y0108900D01*
X0412400Y0110499D02*
X0407550Y0110499D01*
X0407550Y0112097D02*
X0412400Y0112097D01*
X0412400Y0113696D02*
X0407550Y0113696D01*
X0407550Y0115294D02*
X0412400Y0115294D01*
X0412400Y0116893D02*
X0407550Y0116893D01*
X0407550Y0118491D02*
X0412400Y0118491D01*
X0412400Y0120090D02*
X0407550Y0120090D01*
X0407550Y0121688D02*
X0412400Y0121688D01*
X0412400Y0123287D02*
X0407550Y0123287D01*
X0407550Y0124885D02*
X0412400Y0124885D01*
X0412400Y0126484D02*
X0407550Y0126484D01*
X0407550Y0128082D02*
X0412400Y0128082D01*
X0412400Y0129681D02*
X0407550Y0129681D01*
X0406937Y0131279D02*
X0412400Y0131279D01*
X0412400Y0132878D02*
X0405339Y0132878D01*
X0406119Y0132098D02*
X0406119Y0132098D01*
X0403740Y0134476D02*
X0412400Y0134476D01*
X0412400Y0136075D02*
X0402142Y0136075D01*
X0400543Y0137673D02*
X0412400Y0137673D01*
X0412400Y0139272D02*
X0398945Y0139272D01*
X0397346Y0140870D02*
X0412400Y0140870D01*
X0412400Y0142469D02*
X0395748Y0142469D01*
X0394149Y0144068D02*
X0412400Y0144068D01*
X0412400Y0145666D02*
X0392551Y0145666D01*
X0390115Y0147265D02*
X0412400Y0147265D01*
X0412400Y0148863D02*
X0378300Y0148863D01*
X0378300Y0147265D02*
X0386885Y0147265D01*
X0384993Y0145666D02*
X0378300Y0145666D01*
X0378300Y0144068D02*
X0384450Y0144068D01*
X0384564Y0142469D02*
X0378300Y0142469D01*
X0378300Y0140870D02*
X0385452Y0140870D01*
X0382555Y0139272D02*
X0378300Y0139272D01*
X0378300Y0137673D02*
X0380957Y0137673D01*
X0371700Y0137673D02*
X0338429Y0137673D01*
X0340139Y0139272D02*
X0371700Y0139272D01*
X0371700Y0140870D02*
X0341737Y0140870D01*
X0343336Y0142469D02*
X0371700Y0142469D01*
X0371700Y0144068D02*
X0344934Y0144068D01*
X0346533Y0145666D02*
X0371700Y0145666D01*
X0371700Y0147265D02*
X0348131Y0147265D01*
X0349730Y0148863D02*
X0371700Y0148863D01*
X0371700Y0150462D02*
X0351328Y0150462D01*
X0352927Y0152060D02*
X0371700Y0152060D01*
X0371700Y0153659D02*
X0353550Y0153659D01*
X0353550Y0155257D02*
X0371700Y0155257D01*
X0371700Y0156856D02*
X0353550Y0156856D01*
X0353550Y0158454D02*
X0371700Y0158454D01*
X0371700Y0160053D02*
X0353550Y0160053D01*
X0353550Y0161651D02*
X0371700Y0161651D01*
X0371700Y0163250D02*
X0353550Y0163250D01*
X0353550Y0164848D02*
X0371700Y0164848D01*
X0371700Y0166447D02*
X0353550Y0166447D01*
X0356473Y0168045D02*
X0371700Y0168045D01*
X0371700Y0169644D02*
X0357698Y0169644D01*
X0358050Y0171242D02*
X0371580Y0171242D01*
X0370950Y0172841D02*
X0358708Y0172841D01*
X0360306Y0174439D02*
X0370985Y0174439D01*
X0371760Y0176038D02*
X0361905Y0176038D01*
X0363503Y0177636D02*
X0412400Y0177636D01*
X0412400Y0176038D02*
X0378240Y0176038D01*
X0379015Y0174439D02*
X0412400Y0174439D01*
X0412400Y0172841D02*
X0379050Y0172841D01*
X0378420Y0171242D02*
X0412400Y0171242D01*
X0412400Y0169644D02*
X0378300Y0169644D01*
X0378300Y0168045D02*
X0412400Y0168045D01*
X0412400Y0166447D02*
X0378300Y0166447D01*
X0378300Y0164848D02*
X0412400Y0164848D01*
X0412400Y0163250D02*
X0378300Y0163250D01*
X0378300Y0161651D02*
X0412400Y0161651D01*
X0412400Y0160053D02*
X0378300Y0160053D01*
X0378300Y0158454D02*
X0412400Y0158454D01*
X0412400Y0156856D02*
X0378300Y0156856D01*
X0378300Y0155257D02*
X0412400Y0155257D01*
X0412400Y0153659D02*
X0378300Y0153659D01*
X0378300Y0152060D02*
X0412400Y0152060D01*
X0412400Y0150462D02*
X0378300Y0150462D01*
X0371700Y0136075D02*
X0335392Y0136075D01*
X0336990Y0134476D02*
X0371700Y0134476D01*
X0371700Y0132878D02*
X0338589Y0132878D01*
X0340187Y0131279D02*
X0371700Y0131279D01*
X0371700Y0129681D02*
X0341786Y0129681D01*
X0344445Y0128082D02*
X0371700Y0128082D01*
X0371700Y0126484D02*
X0345686Y0126484D01*
X0346050Y0124885D02*
X0371700Y0124885D01*
X0371700Y0123287D02*
X0345757Y0123287D01*
X0344616Y0121688D02*
X0371700Y0121688D01*
X0371700Y0120090D02*
X0345377Y0120090D01*
X0346976Y0118491D02*
X0368975Y0118491D01*
X0367630Y0116893D02*
X0348574Y0116893D01*
X0350173Y0115294D02*
X0365810Y0115294D01*
X0363418Y0113696D02*
X0351771Y0113696D01*
X0353370Y0112097D02*
X0362700Y0112097D01*
X0361282Y0110499D02*
X0354722Y0110499D01*
X0355050Y0108900D02*
X0359683Y0108900D01*
X0358085Y0107302D02*
X0355050Y0107302D01*
X0355050Y0105703D02*
X0356486Y0105703D01*
X0275775Y0104105D02*
X0274225Y0104105D01*
X0274225Y0102506D02*
X0275775Y0102506D01*
X0275775Y0107302D02*
X0274225Y0107302D01*
X0274225Y0108900D02*
X0275775Y0108900D01*
X0275775Y0110499D02*
X0274225Y0110499D01*
X0260775Y0110499D02*
X0259225Y0110499D01*
X0259225Y0111151D02*
X0256214Y0111151D01*
X0255756Y0111029D01*
X0255346Y0110792D01*
X0255010Y0110456D01*
X0254773Y0110046D01*
X0254651Y0109588D01*
X0254651Y0106976D01*
X0259225Y0106976D01*
X0259225Y0111151D01*
X0259225Y0108900D02*
X0260775Y0108900D01*
X0260775Y0107302D02*
X0259225Y0107302D01*
X0259225Y0105703D02*
X0236820Y0105703D01*
X0235222Y0104105D02*
X0254651Y0104105D01*
X0254734Y0102506D02*
X0234039Y0102506D01*
X0238419Y0107302D02*
X0254651Y0107302D01*
X0254651Y0108900D02*
X0240017Y0108900D01*
X0241616Y0110499D02*
X0255053Y0110499D01*
X0255350Y0112097D02*
X0243214Y0112097D01*
X0244813Y0113696D02*
X0254151Y0113696D01*
X0270346Y0091988D02*
X0270010Y0091653D01*
X0269773Y0091243D01*
X0269651Y0090785D01*
X0269651Y0088173D01*
X0274225Y0088173D01*
X0274225Y0092348D01*
X0271214Y0092348D01*
X0270756Y0092225D01*
X0270346Y0091988D01*
X0269816Y0091317D02*
X0265184Y0091317D01*
X0265349Y0089718D02*
X0269651Y0089718D01*
X0269651Y0086521D02*
X0265349Y0086521D01*
X0265349Y0084923D02*
X0269651Y0084923D01*
X0269906Y0083324D02*
X0265094Y0083324D01*
X0265849Y0080127D02*
X0269151Y0080127D01*
X0267812Y0078529D02*
X0265849Y0078529D01*
X0265849Y0076930D02*
X0266213Y0076930D01*
X0274225Y0083324D02*
X0275775Y0083324D01*
X0275775Y0084923D02*
X0274225Y0084923D01*
X0274225Y0086521D02*
X0275775Y0086521D01*
X0275775Y0089718D02*
X0274225Y0089718D01*
X0274225Y0091317D02*
X0275775Y0091317D01*
X0260775Y0091317D02*
X0259225Y0091317D01*
X0259225Y0089718D02*
X0260775Y0089718D01*
X0254151Y0080127D02*
X0252900Y0080127D01*
X0248099Y0080127D02*
X0245840Y0080127D01*
X0203700Y0077083D02*
X0203700Y0040667D01*
X0201000Y0037967D01*
X0201000Y0037993D01*
X0200087Y0040199D01*
X0199485Y0040800D01*
X0199653Y0040800D01*
X0201000Y0042147D01*
X0201000Y0051453D01*
X0199653Y0052800D01*
X0190347Y0052800D01*
X0189000Y0051453D01*
X0189000Y0042147D01*
X0190347Y0040800D01*
X0190515Y0040800D01*
X0189913Y0040199D01*
X0189000Y0037993D01*
X0189000Y0035607D01*
X0189913Y0033401D01*
X0191515Y0031800D01*
X0189913Y0030199D01*
X0189285Y0028682D01*
X0151800Y0066167D01*
X0151800Y0070752D01*
X0159502Y0070752D01*
X0160849Y0072099D01*
X0160849Y0074732D01*
X0161290Y0075173D01*
X0161567Y0074506D01*
X0162706Y0073367D01*
X0164194Y0072750D01*
X0165806Y0072750D01*
X0167294Y0073367D01*
X0167619Y0073692D01*
X0168369Y0074002D01*
X0180617Y0086250D01*
X0181783Y0086250D01*
X0175633Y0080100D01*
X0175444Y0080100D01*
X0173956Y0079483D01*
X0172817Y0078344D01*
X0172200Y0076856D01*
X0172200Y0075244D01*
X0172817Y0073756D01*
X0173956Y0072617D01*
X0175444Y0072000D01*
X0177056Y0072000D01*
X0178482Y0072591D01*
X0179206Y0071867D01*
X0180694Y0071250D01*
X0182306Y0071250D01*
X0182510Y0071335D01*
X0182510Y0069930D01*
X0188310Y0069930D01*
X0188310Y0069930D01*
X0182510Y0069930D01*
X0182510Y0068393D01*
X0182633Y0067935D01*
X0182870Y0067525D01*
X0183205Y0067190D01*
X0183615Y0066953D01*
X0184073Y0066830D01*
X0188310Y0066830D01*
X0188310Y0069930D01*
X0188310Y0069930D01*
X0188310Y0066830D01*
X0192547Y0066830D01*
X0193005Y0066953D01*
X0193415Y0067190D01*
X0193751Y0067525D01*
X0193988Y0067935D01*
X0194110Y0068393D01*
X0194110Y0069930D01*
X0194110Y0071467D01*
X0193988Y0071925D01*
X0193944Y0072000D01*
X0197906Y0072000D01*
X0199119Y0072502D01*
X0200048Y0073431D01*
X0203700Y0077083D01*
X0203700Y0076930D02*
X0203547Y0076930D01*
X0203700Y0075332D02*
X0201948Y0075332D01*
X0200350Y0073733D02*
X0203700Y0073733D01*
X0203700Y0072134D02*
X0198231Y0072134D01*
X0194110Y0070536D02*
X0203700Y0070536D01*
X0203700Y0068937D02*
X0194110Y0068937D01*
X0194110Y0069930D02*
X0188310Y0069930D01*
X0194110Y0069930D01*
X0193565Y0067339D02*
X0203700Y0067339D01*
X0203700Y0065740D02*
X0152226Y0065740D01*
X0151800Y0067339D02*
X0183056Y0067339D01*
X0182510Y0068937D02*
X0151800Y0068937D01*
X0151800Y0070536D02*
X0182510Y0070536D01*
X0178938Y0072134D02*
X0177380Y0072134D01*
X0175120Y0072134D02*
X0160849Y0072134D01*
X0160849Y0073733D02*
X0162339Y0073733D01*
X0167719Y0073733D02*
X0172839Y0073733D01*
X0172200Y0075332D02*
X0169698Y0075332D01*
X0171297Y0076930D02*
X0172231Y0076930D01*
X0172895Y0078529D02*
X0173001Y0078529D01*
X0174494Y0080127D02*
X0175660Y0080127D01*
X0176092Y0081726D02*
X0177259Y0081726D01*
X0177691Y0083324D02*
X0178857Y0083324D01*
X0179289Y0084923D02*
X0180456Y0084923D01*
X0188310Y0069930D02*
X0188310Y0069930D01*
X0188310Y0068937D02*
X0188310Y0068937D01*
X0188310Y0067339D02*
X0188310Y0067339D01*
X0203700Y0064142D02*
X0153825Y0064142D01*
X0155423Y0062543D02*
X0203700Y0062543D01*
X0203700Y0060945D02*
X0157022Y0060945D01*
X0158620Y0059346D02*
X0203700Y0059346D01*
X0203700Y0057748D02*
X0160219Y0057748D01*
X0161817Y0056149D02*
X0203700Y0056149D01*
X0203700Y0054551D02*
X0163416Y0054551D01*
X0165015Y0052952D02*
X0203700Y0052952D01*
X0203700Y0051354D02*
X0201000Y0051354D01*
X0201000Y0049755D02*
X0203700Y0049755D01*
X0203700Y0048157D02*
X0201000Y0048157D01*
X0201000Y0046558D02*
X0203700Y0046558D01*
X0203700Y0044960D02*
X0201000Y0044960D01*
X0201000Y0043361D02*
X0203700Y0043361D01*
X0203700Y0041763D02*
X0200615Y0041763D01*
X0200101Y0040164D02*
X0203197Y0040164D01*
X0201599Y0038566D02*
X0200763Y0038566D01*
X0189899Y0040164D02*
X0177803Y0040164D01*
X0179401Y0038566D02*
X0189237Y0038566D01*
X0189000Y0036967D02*
X0181000Y0036967D01*
X0182598Y0035369D02*
X0189098Y0035369D01*
X0189761Y0033770D02*
X0184197Y0033770D01*
X0185795Y0032172D02*
X0191143Y0032172D01*
X0190288Y0030573D02*
X0187394Y0030573D01*
X0188992Y0028975D02*
X0189406Y0028975D01*
X0184454Y0024179D02*
X0182538Y0024179D01*
X0182855Y0025778D02*
X0180939Y0025778D01*
X0181257Y0027376D02*
X0179341Y0027376D01*
X0179658Y0028975D02*
X0177742Y0028975D01*
X0178060Y0030573D02*
X0176144Y0030573D01*
X0176461Y0032172D02*
X0174545Y0032172D01*
X0174863Y0033770D02*
X0172947Y0033770D01*
X0173264Y0035369D02*
X0171348Y0035369D01*
X0171666Y0036967D02*
X0169750Y0036967D01*
X0170067Y0038566D02*
X0168151Y0038566D01*
X0168469Y0040164D02*
X0166553Y0040164D01*
X0166870Y0041763D02*
X0164954Y0041763D01*
X0165272Y0043361D02*
X0163356Y0043361D01*
X0163673Y0044960D02*
X0161757Y0044960D01*
X0162075Y0046558D02*
X0160159Y0046558D01*
X0160476Y0048157D02*
X0158560Y0048157D01*
X0158878Y0049755D02*
X0156962Y0049755D01*
X0157279Y0051354D02*
X0155363Y0051354D01*
X0155681Y0052952D02*
X0153765Y0052952D01*
X0154082Y0054551D02*
X0152166Y0054551D01*
X0152484Y0056149D02*
X0150567Y0056149D01*
X0150885Y0057748D02*
X0148969Y0057748D01*
X0149287Y0059346D02*
X0147370Y0059346D01*
X0147688Y0060945D02*
X0145772Y0060945D01*
X0146090Y0062543D02*
X0144173Y0062543D01*
X0143550Y0064142D02*
X0145201Y0064142D01*
X0145200Y0065740D02*
X0143183Y0065740D01*
X0141939Y0067339D02*
X0145200Y0067339D01*
X0145200Y0068937D02*
X0118279Y0068937D01*
X0116681Y0070536D02*
X0145200Y0070536D01*
X0134151Y0072134D02*
X0130849Y0072134D01*
X0119151Y0072134D02*
X0115849Y0072134D01*
X0115849Y0073733D02*
X0119151Y0073733D01*
X0119151Y0075332D02*
X0115849Y0075332D01*
X0115849Y0076930D02*
X0119151Y0076930D01*
X0119151Y0078529D02*
X0115849Y0078529D01*
X0115849Y0080127D02*
X0119151Y0080127D01*
X0113786Y0101252D02*
X0110775Y0101252D01*
X0110775Y0105427D01*
X0115349Y0105427D01*
X0115349Y0102815D01*
X0115227Y0102357D01*
X0114990Y0101947D01*
X0114654Y0101612D01*
X0114244Y0101375D01*
X0113786Y0101252D01*
X0115266Y0102506D02*
X0119734Y0102506D01*
X0119651Y0104105D02*
X0115349Y0104105D01*
X0110775Y0104105D02*
X0109225Y0104105D01*
X0109225Y0102506D02*
X0110775Y0102506D01*
X0110775Y0107302D02*
X0109225Y0107302D01*
X0109225Y0108900D02*
X0110775Y0108900D01*
X0110775Y0110499D02*
X0109225Y0110499D01*
X0104734Y0102506D02*
X0101550Y0102506D01*
X0124225Y0102506D02*
X0125775Y0102506D01*
X0087866Y0128082D02*
X0074550Y0128082D01*
X0074550Y0126484D02*
X0086267Y0126484D01*
X0084668Y0124885D02*
X0074550Y0124885D01*
X0074550Y0123287D02*
X0083070Y0123287D01*
X0081471Y0121688D02*
X0074550Y0121688D01*
X0074424Y0120090D02*
X0080212Y0120090D01*
X0079950Y0118491D02*
X0073358Y0118491D01*
X0071760Y0116893D02*
X0077115Y0116893D01*
X0075839Y0115294D02*
X0070161Y0115294D01*
X0070918Y0113696D02*
X0068563Y0113696D01*
X0069757Y0112097D02*
X0066964Y0112097D01*
X0066300Y0110499D02*
X0069450Y0110499D01*
X0069800Y0108900D02*
X0066300Y0108900D01*
X0066300Y0107302D02*
X0070200Y0107302D01*
X0070200Y0105703D02*
X0066300Y0105703D01*
X0066300Y0104105D02*
X0070200Y0104105D01*
X0070200Y0102506D02*
X0066300Y0102506D01*
X0066300Y0100908D02*
X0070200Y0100908D01*
X0070200Y0099309D02*
X0066300Y0099309D01*
X0066300Y0097711D02*
X0070200Y0097711D01*
X0070200Y0096112D02*
X0066300Y0096112D01*
X0066300Y0094514D02*
X0070200Y0094514D01*
X0070200Y0092915D02*
X0066300Y0092915D01*
X0066300Y0091317D02*
X0070200Y0091317D01*
X0070200Y0089718D02*
X0066300Y0089718D01*
X0066300Y0088120D02*
X0070200Y0088120D01*
X0070200Y0086521D02*
X0066300Y0086521D01*
X0066300Y0084923D02*
X0070200Y0084923D01*
X0070200Y0083324D02*
X0066300Y0083324D01*
X0066300Y0081726D02*
X0070200Y0081726D01*
X0070200Y0080127D02*
X0066300Y0080127D01*
X0066300Y0078529D02*
X0070200Y0078529D01*
X0070200Y0076930D02*
X0066300Y0076930D01*
X0066300Y0075332D02*
X0070200Y0075332D01*
X0070200Y0073733D02*
X0066300Y0073733D01*
X0066300Y0072134D02*
X0070200Y0072134D01*
X0070200Y0070536D02*
X0066300Y0070536D01*
X0066300Y0068937D02*
X0070200Y0068937D01*
X0070200Y0067339D02*
X0066300Y0067339D01*
X0066300Y0065740D02*
X0070200Y0065740D01*
X0070200Y0064142D02*
X0066300Y0064142D01*
X0066300Y0062543D02*
X0070200Y0062543D01*
X0070200Y0060945D02*
X0066300Y0060945D01*
X0066300Y0059346D02*
X0070200Y0059346D01*
X0070200Y0057748D02*
X0066300Y0057748D01*
X0066300Y0056149D02*
X0070200Y0056149D01*
X0070200Y0054551D02*
X0066300Y0054551D01*
X0066300Y0052952D02*
X0070200Y0052952D01*
X0070200Y0051354D02*
X0066863Y0051354D01*
X0068462Y0049755D02*
X0070200Y0049755D01*
X0070200Y0048157D02*
X0070060Y0048157D01*
X0056700Y0048157D02*
X0051000Y0048157D01*
X0051000Y0049755D02*
X0056700Y0049755D01*
X0056700Y0051354D02*
X0051000Y0051354D01*
X0051000Y0051453D02*
X0049653Y0052800D01*
X0041550Y0052800D01*
X0041550Y0086500D01*
X0042195Y0086500D01*
X0045300Y0089605D01*
X0045300Y0089712D01*
X0048012Y0087000D01*
X0049900Y0087000D01*
X0049900Y0091700D01*
X0050100Y0091700D01*
X0050100Y0091900D01*
X0054800Y0091900D01*
X0054800Y0093788D01*
X0052088Y0096500D01*
X0052195Y0096500D01*
X0055300Y0099605D01*
X0055300Y0103995D01*
X0054831Y0104464D01*
X0056700Y0106333D01*
X0056700Y0043667D01*
X0051000Y0037967D01*
X0051000Y0037993D01*
X0050087Y0040199D01*
X0049485Y0040800D01*
X0049653Y0040800D01*
X0051000Y0042147D01*
X0051000Y0051453D01*
X0056700Y0052952D02*
X0041550Y0052952D01*
X0041550Y0054551D02*
X0056700Y0054551D01*
X0056700Y0056149D02*
X0041550Y0056149D01*
X0041550Y0057748D02*
X0056700Y0057748D01*
X0056700Y0059346D02*
X0041550Y0059346D01*
X0041550Y0060945D02*
X0056700Y0060945D01*
X0056700Y0062543D02*
X0041550Y0062543D01*
X0041550Y0064142D02*
X0056700Y0064142D01*
X0056700Y0065740D02*
X0041550Y0065740D01*
X0041550Y0067339D02*
X0056700Y0067339D01*
X0056700Y0068937D02*
X0041550Y0068937D01*
X0041550Y0070536D02*
X0056700Y0070536D01*
X0056700Y0072134D02*
X0041550Y0072134D01*
X0041550Y0073733D02*
X0056700Y0073733D01*
X0056700Y0075332D02*
X0041550Y0075332D01*
X0041550Y0076930D02*
X0056700Y0076930D01*
X0056700Y0078529D02*
X0041550Y0078529D01*
X0041550Y0080127D02*
X0056700Y0080127D01*
X0056700Y0081726D02*
X0041550Y0081726D01*
X0041550Y0083324D02*
X0056700Y0083324D01*
X0056700Y0084923D02*
X0041550Y0084923D01*
X0042216Y0086521D02*
X0056700Y0086521D01*
X0056700Y0088120D02*
X0053108Y0088120D01*
X0051988Y0087000D02*
X0054800Y0089812D01*
X0054800Y0091700D01*
X0050100Y0091700D01*
X0050100Y0087000D01*
X0051988Y0087000D01*
X0050100Y0088120D02*
X0049900Y0088120D01*
X0049900Y0089718D02*
X0050100Y0089718D01*
X0050100Y0091317D02*
X0049900Y0091317D01*
X0046892Y0088120D02*
X0043815Y0088120D01*
X0054706Y0089718D02*
X0056700Y0089718D01*
X0056700Y0091317D02*
X0054800Y0091317D01*
X0054800Y0092915D02*
X0056700Y0092915D01*
X0056700Y0094514D02*
X0054075Y0094514D01*
X0052476Y0096112D02*
X0056700Y0096112D01*
X0056700Y0097711D02*
X0053406Y0097711D01*
X0055005Y0099309D02*
X0056700Y0099309D01*
X0056700Y0100908D02*
X0055300Y0100908D01*
X0055300Y0102506D02*
X0056700Y0102506D01*
X0056700Y0104105D02*
X0055191Y0104105D01*
X0056070Y0105703D02*
X0056700Y0105703D01*
X0030668Y0124885D02*
X0017600Y0124885D01*
X0017600Y0123287D02*
X0029070Y0123287D01*
X0027471Y0121688D02*
X0017600Y0121688D01*
X0017600Y0120090D02*
X0025873Y0120090D01*
X0024274Y0118491D02*
X0017600Y0118491D01*
X0017600Y0116893D02*
X0022676Y0116893D01*
X0021077Y0115294D02*
X0017600Y0115294D01*
X0017600Y0113696D02*
X0019479Y0113696D01*
X0017880Y0112097D02*
X0017600Y0112097D01*
X0017600Y0126484D02*
X0032267Y0126484D01*
X0033866Y0128082D02*
X0017600Y0128082D01*
X0017600Y0129681D02*
X0034700Y0129681D01*
X0034700Y0131279D02*
X0017600Y0131279D01*
X0017600Y0132878D02*
X0034700Y0132878D01*
X0035181Y0134476D02*
X0017600Y0134476D01*
X0017600Y0136075D02*
X0036780Y0136075D01*
X0043457Y0137673D02*
X0017600Y0137673D01*
X0017600Y0139272D02*
X0045055Y0139272D01*
X0046654Y0140870D02*
X0017600Y0140870D01*
X0017600Y0142469D02*
X0101191Y0142469D01*
X0099870Y0140870D02*
X0072596Y0140870D01*
X0074109Y0139272D02*
X0099055Y0139272D01*
X0097457Y0137673D02*
X0074550Y0137673D01*
X0074550Y0136075D02*
X0095858Y0136075D01*
X0094260Y0134476D02*
X0074550Y0134476D01*
X0074550Y0132878D02*
X0092661Y0132878D01*
X0091063Y0131279D02*
X0074550Y0131279D01*
X0074550Y0129681D02*
X0089464Y0129681D01*
X0099816Y0144068D02*
X0017600Y0144068D01*
X0017600Y0145666D02*
X0098217Y0145666D01*
X0096619Y0147265D02*
X0017600Y0147265D01*
X0017600Y0148863D02*
X0095020Y0148863D01*
X0093422Y0150462D02*
X0017600Y0150462D01*
X0017600Y0152060D02*
X0091823Y0152060D01*
X0095149Y0158068D02*
X0094869Y0158348D01*
X0094851Y0158355D01*
X0094851Y0166302D01*
X0093504Y0167649D01*
X0089628Y0167649D01*
X0087794Y0169483D01*
X0086306Y0170100D01*
X0080843Y0170100D01*
X0080843Y0170390D01*
X0079496Y0171738D01*
X0070504Y0171738D01*
X0069772Y0171006D01*
X0074225Y0172841D02*
X0075775Y0172841D01*
X0075775Y0172362D02*
X0078780Y0172362D01*
X0079238Y0172485D01*
X0079649Y0172722D01*
X0079984Y0173057D01*
X0080221Y0173467D01*
X0080343Y0173925D01*
X0080343Y0176537D01*
X0075775Y0176537D01*
X0075775Y0178087D01*
X0074225Y0178087D01*
X0074225Y0182261D01*
X0071220Y0182261D01*
X0070762Y0182139D01*
X0070351Y0181902D01*
X0070016Y0181567D01*
X0069779Y0181156D01*
X0069657Y0180698D01*
X0069657Y0178087D01*
X0074225Y0178087D01*
X0074225Y0176537D01*
X0075775Y0176537D01*
X0075775Y0172362D01*
X0075775Y0174439D02*
X0074225Y0174439D01*
X0074225Y0176038D02*
X0075775Y0176038D01*
X0075775Y0177636D02*
X0110497Y0177636D01*
X0112095Y0176038D02*
X0080343Y0176038D01*
X0080343Y0174439D02*
X0113694Y0174439D01*
X0114225Y0172348D02*
X0111214Y0172348D01*
X0110756Y0172225D01*
X0110346Y0171988D01*
X0110010Y0171653D01*
X0109773Y0171243D01*
X0109651Y0170785D01*
X0109651Y0168173D01*
X0114225Y0168173D01*
X0114225Y0166624D01*
X0109651Y0166624D01*
X0109651Y0164012D01*
X0109773Y0163554D01*
X0110010Y0163144D01*
X0110346Y0162808D01*
X0110756Y0162571D01*
X0111214Y0162449D01*
X0114225Y0162449D01*
X0114225Y0166624D01*
X0115775Y0166624D01*
X0115775Y0168173D01*
X0114225Y0168173D01*
X0114225Y0172348D01*
X0114225Y0171242D02*
X0115775Y0171242D01*
X0115775Y0169644D02*
X0114225Y0169644D01*
X0114225Y0168045D02*
X0089232Y0168045D01*
X0087407Y0169644D02*
X0109651Y0169644D01*
X0109773Y0171242D02*
X0079992Y0171242D01*
X0079767Y0172841D02*
X0115292Y0172841D01*
X0115775Y0168045D02*
X0120088Y0168045D01*
X0120349Y0166624D02*
X0115775Y0166624D01*
X0115775Y0162449D01*
X0118786Y0162449D01*
X0119244Y0162571D01*
X0119654Y0162808D01*
X0119990Y0163144D01*
X0120227Y0163554D01*
X0120349Y0164012D01*
X0120349Y0166624D01*
X0120349Y0166447D02*
X0121686Y0166447D01*
X0120349Y0164848D02*
X0123285Y0164848D01*
X0124883Y0163250D02*
X0120051Y0163250D01*
X0119502Y0161651D02*
X0110498Y0161651D01*
X0106048Y0161651D01*
X0106048Y0161419D02*
X0106048Y0166302D01*
X0104701Y0167649D01*
X0096496Y0167649D01*
X0095149Y0166302D01*
X0095149Y0158068D01*
X0095149Y0158454D02*
X0094851Y0158454D01*
X0094851Y0160053D02*
X0095149Y0160053D01*
X0095149Y0161651D02*
X0094851Y0161651D01*
X0094851Y0163250D02*
X0095149Y0163250D01*
X0095149Y0164848D02*
X0094851Y0164848D01*
X0094706Y0166447D02*
X0095294Y0166447D01*
X0105903Y0166447D02*
X0109651Y0166447D01*
X0109651Y0164848D02*
X0106048Y0164848D01*
X0106048Y0163250D02*
X0109949Y0163250D01*
X0110498Y0161651D02*
X0109151Y0160304D01*
X0109151Y0159600D01*
X0107867Y0159600D01*
X0106048Y0161419D01*
X0107414Y0160053D02*
X0109151Y0160053D01*
X0114225Y0163250D02*
X0115775Y0163250D01*
X0115775Y0164848D02*
X0114225Y0164848D01*
X0114225Y0166447D02*
X0115775Y0166447D01*
X0108898Y0179235D02*
X0080343Y0179235D01*
X0080343Y0178087D02*
X0080343Y0180698D01*
X0080221Y0181156D01*
X0079984Y0181567D01*
X0079649Y0181902D01*
X0079238Y0182139D01*
X0078780Y0182261D01*
X0075775Y0182261D01*
X0075775Y0178087D01*
X0080343Y0178087D01*
X0080307Y0180833D02*
X0107300Y0180833D01*
X0105701Y0182432D02*
X0065076Y0182432D01*
X0065076Y0180833D02*
X0069693Y0180833D01*
X0069657Y0179235D02*
X0064519Y0179235D01*
X0063455Y0177636D02*
X0074225Y0177636D01*
X0074225Y0179235D02*
X0075775Y0179235D01*
X0075775Y0180833D02*
X0074225Y0180833D01*
X0069657Y0176038D02*
X0064740Y0176038D01*
X0064658Y0184030D02*
X0104103Y0184030D01*
X0102504Y0185629D02*
X0063789Y0185629D01*
X0063300Y0187227D02*
X0100906Y0187227D01*
X0099307Y0188826D02*
X0063300Y0188826D01*
X0063300Y0190424D02*
X0097709Y0190424D01*
X0096110Y0192023D02*
X0063300Y0192023D01*
X0063300Y0193621D02*
X0094512Y0193621D01*
X0092913Y0195220D02*
X0063300Y0195220D01*
X0063300Y0196818D02*
X0091981Y0196818D01*
X0091950Y0198417D02*
X0063300Y0198417D01*
X0063300Y0200015D02*
X0091950Y0200015D01*
X0091950Y0201614D02*
X0063300Y0201614D01*
X0063300Y0203212D02*
X0091950Y0203212D01*
X0091950Y0204811D02*
X0063300Y0204811D01*
X0063300Y0206409D02*
X0091950Y0206409D01*
X0091950Y0208008D02*
X0063300Y0208008D01*
X0063300Y0209606D02*
X0091950Y0209606D01*
X0091950Y0211205D02*
X0063300Y0211205D01*
X0063300Y0212803D02*
X0091950Y0212803D01*
X0091950Y0214402D02*
X0063300Y0214402D01*
X0063300Y0216001D02*
X0091950Y0216001D01*
X0090716Y0217599D02*
X0063300Y0217599D01*
X0063300Y0219198D02*
X0089584Y0219198D01*
X0089000Y0220796D02*
X0063300Y0220796D01*
X0063300Y0222395D02*
X0089000Y0222395D01*
X0089414Y0223993D02*
X0063300Y0223993D01*
X0063300Y0225592D02*
X0090306Y0225592D01*
X0091125Y0227190D02*
X0063300Y0227190D01*
X0041700Y0216001D02*
X0017600Y0216001D01*
X0017600Y0217599D02*
X0040716Y0217599D01*
X0039584Y0219198D02*
X0017600Y0219198D01*
X0017600Y0220796D02*
X0039000Y0220796D01*
X0039000Y0222395D02*
X0017600Y0222395D01*
X0017600Y0223993D02*
X0039414Y0223993D01*
X0040306Y0225592D02*
X0017600Y0225592D01*
X0017600Y0227190D02*
X0041125Y0227190D01*
X0039753Y0228789D02*
X0017600Y0228789D01*
X0017600Y0230387D02*
X0039091Y0230387D01*
X0039000Y0231986D02*
X0017600Y0231986D01*
X0017600Y0233584D02*
X0039245Y0233584D01*
X0039907Y0235183D02*
X0017600Y0235183D01*
X0017600Y0236781D02*
X0039366Y0236781D01*
X0039000Y0238380D02*
X0017600Y0238380D01*
X0017600Y0239978D02*
X0039000Y0239978D01*
X0039000Y0241577D02*
X0017600Y0241577D01*
X0017600Y0243175D02*
X0039000Y0243175D01*
X0039000Y0244774D02*
X0017600Y0244774D01*
X0017600Y0246372D02*
X0039000Y0246372D01*
X0046504Y0247971D02*
X0017600Y0247971D01*
X0017600Y0249569D02*
X0048102Y0249569D01*
X0049701Y0251168D02*
X0017600Y0251168D01*
X0017600Y0252766D02*
X0051299Y0252766D01*
X0052898Y0254365D02*
X0017600Y0254365D01*
X0017600Y0255963D02*
X0054496Y0255963D01*
X0056095Y0257562D02*
X0017600Y0257562D01*
X0017600Y0259160D02*
X0057693Y0259160D01*
X0059874Y0260759D02*
X0017600Y0260759D01*
X0017600Y0214402D02*
X0041700Y0214402D01*
X0041700Y0212803D02*
X0017600Y0212803D01*
X0017600Y0211205D02*
X0041700Y0211205D01*
X0041700Y0209606D02*
X0017600Y0209606D01*
X0017600Y0208008D02*
X0041700Y0208008D01*
X0041700Y0206409D02*
X0017600Y0206409D01*
X0017600Y0204811D02*
X0041700Y0204811D01*
X0041700Y0203212D02*
X0017600Y0203212D01*
X0017600Y0201614D02*
X0041700Y0201614D01*
X0041700Y0200015D02*
X0017600Y0200015D01*
X0017600Y0198417D02*
X0041700Y0198417D01*
X0041700Y0196818D02*
X0017600Y0196818D01*
X0017600Y0195220D02*
X0041700Y0195220D01*
X0041700Y0193621D02*
X0017600Y0193621D01*
X0017600Y0192023D02*
X0041700Y0192023D01*
X0041700Y0190424D02*
X0017600Y0190424D01*
X0017600Y0188826D02*
X0041700Y0188826D01*
X0041700Y0187227D02*
X0037646Y0187227D01*
X0037423Y0187300D02*
X0038267Y0187025D01*
X0039058Y0186623D01*
X0039776Y0186101D01*
X0040403Y0185473D01*
X0040925Y0184755D01*
X0041328Y0183964D01*
X0041602Y0183120D01*
X0041735Y0182280D01*
X0036582Y0182280D01*
X0035623Y0182280D01*
X0035623Y0187433D01*
X0034782Y0187300D01*
X0033938Y0187025D01*
X0033147Y0186623D01*
X0032429Y0186101D01*
X0031801Y0185473D01*
X0031280Y0184755D01*
X0030877Y0183964D01*
X0030603Y0183120D01*
X0030469Y0182280D01*
X0035623Y0182280D01*
X0035623Y0181320D01*
X0036582Y0181320D01*
X0036582Y0176167D01*
X0037423Y0176300D01*
X0038267Y0176575D01*
X0039058Y0176977D01*
X0039776Y0177499D01*
X0040403Y0178127D01*
X0040925Y0178845D01*
X0041328Y0179636D01*
X0041602Y0180480D01*
X0041735Y0181320D01*
X0036582Y0181320D01*
X0036582Y0182280D01*
X0036582Y0187433D01*
X0037423Y0187300D01*
X0036582Y0187227D02*
X0035623Y0187227D01*
X0034559Y0187227D02*
X0017600Y0187227D01*
X0017600Y0185629D02*
X0031957Y0185629D01*
X0030910Y0184030D02*
X0017600Y0184030D01*
X0017600Y0182432D02*
X0030494Y0182432D01*
X0030469Y0181320D02*
X0030603Y0180480D01*
X0030877Y0179636D01*
X0031280Y0178845D01*
X0031801Y0178127D01*
X0032429Y0177499D01*
X0033147Y0176977D01*
X0033938Y0176575D01*
X0034782Y0176300D01*
X0035623Y0176167D01*
X0035623Y0181320D01*
X0030469Y0181320D01*
X0030547Y0180833D02*
X0017600Y0180833D01*
X0017600Y0179235D02*
X0031081Y0179235D01*
X0032292Y0177636D02*
X0017600Y0177636D01*
X0017600Y0176038D02*
X0047595Y0176038D01*
X0045997Y0177636D02*
X0039913Y0177636D01*
X0041124Y0179235D02*
X0044398Y0179235D01*
X0042800Y0180833D02*
X0041658Y0180833D01*
X0041711Y0182432D02*
X0041788Y0182432D01*
X0041700Y0184030D02*
X0041294Y0184030D01*
X0041700Y0185629D02*
X0040248Y0185629D01*
X0036582Y0185629D02*
X0035623Y0185629D01*
X0035623Y0184030D02*
X0036582Y0184030D01*
X0036582Y0182432D02*
X0035623Y0182432D01*
X0035623Y0180833D02*
X0036582Y0180833D01*
X0036582Y0179235D02*
X0035623Y0179235D01*
X0035623Y0177636D02*
X0036582Y0177636D01*
X0049194Y0174439D02*
X0017600Y0174439D01*
X0017600Y0172841D02*
X0050792Y0172841D01*
X0052391Y0171242D02*
X0017600Y0171242D01*
X0017600Y0169644D02*
X0053989Y0169644D01*
X0055588Y0168045D02*
X0049453Y0168045D01*
X0049290Y0168128D02*
X0048446Y0168402D01*
X0047606Y0168535D01*
X0047606Y0163382D01*
X0052759Y0163382D01*
X0052626Y0164223D01*
X0052351Y0165067D01*
X0051949Y0165858D01*
X0051427Y0166576D01*
X0050799Y0167203D01*
X0050081Y0167725D01*
X0049290Y0168128D01*
X0047606Y0168045D02*
X0046646Y0168045D01*
X0046646Y0168535D02*
X0045806Y0168402D01*
X0044962Y0168128D01*
X0044171Y0167725D01*
X0043453Y0167203D01*
X0042825Y0166576D01*
X0042303Y0165858D01*
X0041901Y0165067D01*
X0041626Y0164223D01*
X0041493Y0163382D01*
X0046646Y0163382D01*
X0046646Y0162423D01*
X0041493Y0162423D01*
X0041626Y0161582D01*
X0041901Y0160738D01*
X0042303Y0159947D01*
X0042825Y0159229D01*
X0043453Y0158601D01*
X0044171Y0158080D01*
X0044962Y0157677D01*
X0045806Y0157403D01*
X0046646Y0157269D01*
X0046646Y0162423D01*
X0047606Y0162423D01*
X0047606Y0163382D01*
X0046646Y0163382D01*
X0046646Y0168535D01*
X0044799Y0168045D02*
X0017600Y0168045D01*
X0017600Y0166447D02*
X0042731Y0166447D01*
X0041829Y0164848D02*
X0017600Y0164848D01*
X0017600Y0163250D02*
X0046646Y0163250D01*
X0047606Y0163250D02*
X0060383Y0163250D01*
X0058785Y0164848D02*
X0052423Y0164848D01*
X0051521Y0166447D02*
X0057186Y0166447D01*
X0052759Y0162423D02*
X0047606Y0162423D01*
X0047606Y0157269D01*
X0048446Y0157403D01*
X0049290Y0157677D01*
X0050081Y0158080D01*
X0050799Y0158601D01*
X0051427Y0159229D01*
X0051949Y0159947D01*
X0052351Y0160738D01*
X0052626Y0161582D01*
X0052759Y0162423D01*
X0052637Y0161651D02*
X0061982Y0161651D01*
X0063580Y0160053D02*
X0052002Y0160053D01*
X0050596Y0158454D02*
X0065179Y0158454D01*
X0066777Y0156856D02*
X0017600Y0156856D01*
X0017600Y0158454D02*
X0043656Y0158454D01*
X0042250Y0160053D02*
X0017600Y0160053D01*
X0017600Y0161651D02*
X0041615Y0161651D01*
X0046646Y0161651D02*
X0047606Y0161651D01*
X0047606Y0160053D02*
X0046646Y0160053D01*
X0046646Y0158454D02*
X0047606Y0158454D01*
X0047606Y0164848D02*
X0046646Y0164848D01*
X0046646Y0166447D02*
X0047606Y0166447D01*
X0068376Y0155257D02*
X0017600Y0155257D01*
X0017600Y0153659D02*
X0069975Y0153659D01*
X0159958Y0172841D02*
X0191700Y0172841D01*
X0191700Y0174439D02*
X0161556Y0174439D01*
X0163155Y0176038D02*
X0191700Y0176038D01*
X0191700Y0177636D02*
X0164753Y0177636D01*
X0166352Y0179235D02*
X0191700Y0179235D01*
X0191700Y0180833D02*
X0167950Y0180833D01*
X0169549Y0182432D02*
X0191700Y0182432D01*
X0191700Y0184030D02*
X0171147Y0184030D01*
X0172746Y0185629D02*
X0191700Y0185629D01*
X0191700Y0187227D02*
X0174344Y0187227D01*
X0175943Y0188826D02*
X0191700Y0188826D01*
X0191700Y0190424D02*
X0177541Y0190424D01*
X0179140Y0192023D02*
X0191700Y0192023D01*
X0191700Y0193621D02*
X0180738Y0193621D01*
X0182337Y0195220D02*
X0191700Y0195220D01*
X0191700Y0196818D02*
X0183935Y0196818D01*
X0185249Y0198417D02*
X0191700Y0198417D01*
X0191700Y0200015D02*
X0185550Y0200015D01*
X0185550Y0201614D02*
X0191700Y0201614D01*
X0191700Y0203212D02*
X0185550Y0203212D01*
X0185550Y0204811D02*
X0191700Y0204811D01*
X0191700Y0206409D02*
X0185550Y0206409D01*
X0185550Y0208008D02*
X0191700Y0208008D01*
X0191700Y0209606D02*
X0185550Y0209606D01*
X0185550Y0211205D02*
X0191700Y0211205D01*
X0191700Y0212803D02*
X0185550Y0212803D01*
X0185550Y0214402D02*
X0191700Y0214402D01*
X0191700Y0216001D02*
X0185550Y0216001D01*
X0185550Y0217599D02*
X0190716Y0217599D01*
X0189584Y0219198D02*
X0185550Y0219198D01*
X0185550Y0220796D02*
X0189000Y0220796D01*
X0189000Y0222395D02*
X0185550Y0222395D01*
X0185550Y0223993D02*
X0189414Y0223993D01*
X0190306Y0225592D02*
X0185550Y0225592D01*
X0185550Y0227190D02*
X0191125Y0227190D01*
X0189753Y0228789D02*
X0185550Y0228789D01*
X0185550Y0230387D02*
X0189091Y0230387D01*
X0189000Y0231986D02*
X0185550Y0231986D01*
X0185550Y0233584D02*
X0189245Y0233584D01*
X0189907Y0235183D02*
X0185550Y0235183D01*
X0185550Y0236781D02*
X0189366Y0236781D01*
X0189000Y0238380D02*
X0185747Y0238380D01*
X0187345Y0239978D02*
X0189000Y0239978D01*
X0188944Y0241577D02*
X0189000Y0241577D01*
X0263533Y0156856D02*
X0269715Y0156856D01*
X0353550Y0177636D02*
X0354169Y0177636D01*
X0353550Y0179235D02*
X0355768Y0179235D01*
X0357366Y0180833D02*
X0353550Y0180833D01*
X0353550Y0182432D02*
X0358965Y0182432D01*
X0360563Y0184030D02*
X0354147Y0184030D01*
X0355746Y0185629D02*
X0362162Y0185629D01*
X0363760Y0187227D02*
X0357344Y0187227D01*
X0358943Y0188826D02*
X0365359Y0188826D01*
X0366957Y0190424D02*
X0360541Y0190424D01*
X0362140Y0192023D02*
X0368556Y0192023D01*
X0370154Y0193621D02*
X0363627Y0193621D01*
X0364050Y0195220D02*
X0371753Y0195220D01*
X0373352Y0196818D02*
X0364050Y0196818D01*
X0364050Y0198417D02*
X0374950Y0198417D01*
X0376549Y0200015D02*
X0364050Y0200015D01*
X0364050Y0201614D02*
X0378147Y0201614D01*
X0379746Y0203212D02*
X0364050Y0203212D01*
X0364050Y0204811D02*
X0381344Y0204811D01*
X0382943Y0206409D02*
X0364050Y0206409D01*
X0364050Y0208008D02*
X0384541Y0208008D01*
X0385200Y0209606D02*
X0364050Y0209606D01*
X0364050Y0211205D02*
X0385200Y0211205D01*
X0385200Y0212803D02*
X0364050Y0212803D01*
X0364050Y0214402D02*
X0385200Y0214402D01*
X0385200Y0216001D02*
X0364050Y0216001D01*
X0364050Y0217599D02*
X0385200Y0217599D01*
X0385200Y0219198D02*
X0364050Y0219198D01*
X0364050Y0220796D02*
X0385200Y0220796D01*
X0385200Y0222395D02*
X0364050Y0222395D01*
X0364050Y0223993D02*
X0385200Y0223993D01*
X0385200Y0225592D02*
X0364050Y0225592D01*
X0364050Y0227190D02*
X0385200Y0227190D01*
X0385200Y0228789D02*
X0364050Y0228789D01*
X0364050Y0230387D02*
X0385200Y0230387D01*
X0385200Y0231986D02*
X0364050Y0231986D01*
X0364050Y0233584D02*
X0385200Y0233584D01*
X0385200Y0235183D02*
X0364050Y0235183D01*
X0364050Y0236781D02*
X0385335Y0236781D01*
X0386413Y0238380D02*
X0364050Y0238380D01*
X0364050Y0239978D02*
X0388011Y0239978D01*
X0389000Y0241577D02*
X0364050Y0241577D01*
X0364050Y0243175D02*
X0389000Y0243175D01*
X0389000Y0244774D02*
X0364050Y0244774D01*
X0363981Y0246372D02*
X0389000Y0246372D01*
X0401000Y0246372D02*
X0412400Y0246372D01*
X0412400Y0244774D02*
X0401000Y0244774D01*
X0401000Y0243175D02*
X0412400Y0243175D01*
X0412400Y0241577D02*
X0401000Y0241577D01*
X0401000Y0239978D02*
X0412400Y0239978D01*
X0412400Y0238380D02*
X0401000Y0238380D01*
X0400634Y0236781D02*
X0412400Y0236781D01*
X0412400Y0235183D02*
X0400093Y0235183D01*
X0400755Y0233584D02*
X0412400Y0233584D01*
X0412400Y0231986D02*
X0401000Y0231986D01*
X0400909Y0230387D02*
X0412400Y0230387D01*
X0412400Y0228789D02*
X0400247Y0228789D01*
X0398875Y0227190D02*
X0412400Y0227190D01*
X0412400Y0225592D02*
X0399694Y0225592D01*
X0400586Y0223993D02*
X0412400Y0223993D01*
X0412400Y0222395D02*
X0401000Y0222395D01*
X0401000Y0220796D02*
X0412400Y0220796D01*
X0412400Y0219198D02*
X0400416Y0219198D01*
X0399284Y0217599D02*
X0412400Y0217599D01*
X0412400Y0216001D02*
X0396678Y0216001D01*
X0393322Y0216001D02*
X0391800Y0216001D01*
X0391800Y0214402D02*
X0412400Y0214402D01*
X0412400Y0212803D02*
X0391800Y0212803D01*
X0391800Y0211205D02*
X0412400Y0211205D01*
X0412400Y0209606D02*
X0391800Y0209606D01*
X0391800Y0208008D02*
X0412400Y0208008D01*
X0412400Y0206409D02*
X0391703Y0206409D01*
X0390678Y0204811D02*
X0412400Y0204811D01*
X0412400Y0203212D02*
X0389079Y0203212D01*
X0387481Y0201614D02*
X0412400Y0201614D01*
X0412400Y0200015D02*
X0385882Y0200015D01*
X0384284Y0198417D02*
X0390163Y0198417D01*
X0390412Y0198666D02*
X0388134Y0196388D01*
X0386901Y0193411D01*
X0386901Y0190189D01*
X0388134Y0187212D01*
X0390412Y0184934D01*
X0393389Y0183701D01*
X0396611Y0183701D01*
X0399588Y0184934D01*
X0401866Y0187212D01*
X0403099Y0190189D01*
X0403099Y0193411D01*
X0401866Y0196388D01*
X0399588Y0198666D01*
X0396611Y0199899D01*
X0393389Y0199899D01*
X0390412Y0198666D01*
X0388564Y0196818D02*
X0382685Y0196818D01*
X0381087Y0195220D02*
X0387650Y0195220D01*
X0386988Y0193621D02*
X0379488Y0193621D01*
X0377890Y0192023D02*
X0386901Y0192023D01*
X0386901Y0190424D02*
X0376291Y0190424D01*
X0374693Y0188826D02*
X0387465Y0188826D01*
X0388128Y0187227D02*
X0373094Y0187227D01*
X0371496Y0185629D02*
X0389717Y0185629D01*
X0392593Y0184030D02*
X0369897Y0184030D01*
X0368299Y0182432D02*
X0412400Y0182432D01*
X0412400Y0184030D02*
X0397407Y0184030D01*
X0400283Y0185629D02*
X0412400Y0185629D01*
X0412400Y0187227D02*
X0401872Y0187227D01*
X0402535Y0188826D02*
X0412400Y0188826D01*
X0412400Y0190424D02*
X0403099Y0190424D01*
X0403099Y0192023D02*
X0412400Y0192023D01*
X0412400Y0193621D02*
X0403012Y0193621D01*
X0402350Y0195220D02*
X0412400Y0195220D01*
X0412400Y0196818D02*
X0401436Y0196818D01*
X0399837Y0198417D02*
X0412400Y0198417D01*
X0412400Y0180833D02*
X0366700Y0180833D01*
X0365102Y0179235D02*
X0412400Y0179235D01*
X0412400Y0247971D02*
X0362996Y0247971D01*
X0361398Y0249569D02*
X0412400Y0249569D01*
X0412400Y0251168D02*
X0359799Y0251168D01*
X0358201Y0252766D02*
X0412400Y0252766D01*
X0412400Y0254365D02*
X0356602Y0254365D01*
X0355004Y0255963D02*
X0412400Y0255963D01*
X0412400Y0257562D02*
X0353405Y0257562D01*
X0351807Y0259160D02*
X0412400Y0259160D01*
X0412400Y0260759D02*
X0349626Y0260759D01*
X0189000Y0051354D02*
X0166613Y0051354D01*
X0168212Y0049755D02*
X0189000Y0049755D01*
X0189000Y0048157D02*
X0169810Y0048157D01*
X0171409Y0046558D02*
X0189000Y0046558D01*
X0189000Y0044960D02*
X0173007Y0044960D01*
X0174606Y0043361D02*
X0189000Y0043361D01*
X0189385Y0041763D02*
X0176204Y0041763D01*
X0184136Y0022581D02*
X0186052Y0022581D01*
X0185735Y0020982D02*
X0187651Y0020982D01*
X0056700Y0044960D02*
X0051000Y0044960D01*
X0051000Y0046558D02*
X0056700Y0046558D01*
X0056394Y0043361D02*
X0051000Y0043361D01*
X0050615Y0041763D02*
X0054796Y0041763D01*
X0053197Y0040164D02*
X0050101Y0040164D01*
X0050763Y0038566D02*
X0051599Y0038566D01*
X0365614Y0004997D02*
X0412400Y0004997D01*
X0412400Y0006596D02*
X0367212Y0006596D01*
X0368811Y0008194D02*
X0412400Y0008194D01*
X0412400Y0009793D02*
X0370409Y0009793D01*
X0372008Y0011391D02*
X0412400Y0011391D01*
X0412400Y0012990D02*
X0373606Y0012990D01*
X0375205Y0014588D02*
X0412400Y0014588D01*
D24*
X0038250Y0025050D02*
X0038250Y0090300D01*
X0039750Y0091800D01*
X0040000Y0091800D01*
X0030750Y0088800D02*
X0030750Y0100050D01*
X0037500Y0106800D01*
X0042750Y0106800D01*
X0045000Y0109050D01*
X0045000Y0117300D01*
X0049500Y0121800D01*
X0050000Y0121800D01*
X0057000Y0118800D02*
X0067500Y0129300D01*
X0067500Y0123300D02*
X0060000Y0115800D01*
X0060000Y0042300D01*
X0045000Y0027300D01*
X0045000Y0026800D01*
X0038250Y0025050D02*
X0055500Y0007800D01*
X0339000Y0007800D01*
X0374250Y0043050D01*
X0374250Y0047550D01*
X0348750Y0073050D01*
X0348750Y0104550D01*
X0325500Y0127800D01*
X0294000Y0127800D01*
X0278250Y0143550D01*
X0278250Y0152550D01*
X0277815Y0153220D01*
X0282815Y0153220D02*
X0283500Y0152550D01*
X0283500Y0142800D01*
X0293250Y0133050D01*
X0321750Y0133050D01*
X0324000Y0136800D02*
X0351750Y0109050D01*
X0351750Y0097800D01*
X0357750Y0091800D01*
X0380000Y0091800D01*
X0396000Y0089550D02*
X0377250Y0070800D01*
X0377250Y0040050D01*
X0351000Y0013800D01*
X0338250Y0017550D02*
X0291000Y0017550D01*
X0261750Y0046800D01*
X0261750Y0049800D01*
X0231750Y0079800D01*
X0228000Y0079800D01*
X0227910Y0079930D01*
X0221250Y0077550D02*
X0221250Y0097050D01*
X0223500Y0099300D01*
X0227250Y0099300D01*
X0227910Y0099930D01*
X0227250Y0104550D02*
X0224250Y0104550D01*
X0207000Y0087300D01*
X0207000Y0039300D01*
X0195000Y0027300D01*
X0195000Y0026800D01*
X0192750Y0020550D02*
X0204750Y0020550D01*
X0231000Y0046800D01*
X0245000Y0046800D01*
X0251250Y0051300D02*
X0251250Y0024300D01*
X0252000Y0024300D01*
X0259500Y0016800D01*
X0251250Y0024300D02*
X0244500Y0017550D01*
X0184500Y0017550D01*
X0141750Y0060300D01*
X0116250Y0060300D01*
X0087000Y0089550D01*
X0087000Y0116550D01*
X0083250Y0118800D02*
X0083250Y0085050D01*
X0080250Y0082050D01*
X0098250Y0088050D02*
X0098250Y0127800D01*
X0107250Y0136800D01*
X0107250Y0141300D01*
X0093000Y0155550D01*
X0072750Y0155550D01*
X0045000Y0183300D01*
X0045000Y0221800D01*
X0045000Y0241800D02*
X0060750Y0257550D01*
X0348750Y0257550D01*
X0360750Y0245550D01*
X0360750Y0195300D01*
X0350250Y0184800D01*
X0350250Y0154050D01*
X0336750Y0140550D01*
X0302250Y0140550D01*
X0293250Y0149550D01*
X0293250Y0152550D01*
X0292815Y0153220D01*
X0288000Y0152550D02*
X0287815Y0153220D01*
X0288000Y0152550D02*
X0288000Y0144300D01*
X0298500Y0148800D02*
X0303750Y0143550D01*
X0335250Y0143550D01*
X0342000Y0150300D01*
X0342000Y0181050D01*
X0357750Y0196800D01*
X0357750Y0244050D01*
X0347250Y0254550D01*
X0108000Y0254550D01*
X0095250Y0241800D01*
X0095000Y0241800D01*
X0095000Y0221800D02*
X0095250Y0221550D01*
X0095250Y0197550D01*
X0135750Y0157050D01*
X0135750Y0149550D01*
X0132000Y0139800D02*
X0110250Y0118050D01*
X0110000Y0117398D01*
X0125000Y0117398D02*
X0125250Y0117300D01*
X0130500Y0117300D01*
X0130500Y0118050D01*
X0139500Y0127050D01*
X0139500Y0166050D01*
X0162000Y0188550D01*
X0162000Y0228300D01*
X0183000Y0249300D01*
X0183000Y0250800D01*
X0189000Y0250800D02*
X0165000Y0226800D01*
X0165000Y0187050D01*
X0144750Y0166800D01*
X0144750Y0125550D01*
X0144000Y0124800D01*
X0144000Y0117300D01*
X0140250Y0117300D01*
X0140000Y0117398D01*
X0144000Y0117300D02*
X0148500Y0117300D01*
X0149250Y0112050D02*
X0135750Y0112050D01*
X0130500Y0117300D01*
X0147750Y0122550D02*
X0147750Y0165300D01*
X0182250Y0199800D01*
X0182250Y0239550D01*
X0190500Y0247800D01*
X0249750Y0247800D01*
X0267000Y0230550D01*
X0276000Y0230550D01*
X0307500Y0199050D01*
X0307500Y0193050D01*
X0307815Y0192820D01*
X0303000Y0192300D02*
X0303000Y0189300D01*
X0312000Y0180300D01*
X0317250Y0175800D02*
X0314250Y0172800D01*
X0317250Y0175800D02*
X0317250Y0192300D01*
X0317815Y0192820D01*
X0313500Y0193050D02*
X0312815Y0192820D01*
X0313500Y0193050D02*
X0313500Y0196800D01*
X0320250Y0203550D01*
X0325500Y0199050D02*
X0323250Y0196800D01*
X0323250Y0193050D01*
X0322815Y0192820D01*
X0327815Y0192820D02*
X0328500Y0192300D01*
X0332250Y0192300D01*
X0336000Y0188550D02*
X0336000Y0205050D01*
X0301500Y0239550D01*
X0295000Y0241800D02*
X0294750Y0241800D01*
X0291000Y0238050D01*
X0279000Y0238050D01*
X0277500Y0239550D01*
X0277500Y0244050D01*
X0284250Y0250800D01*
X0346500Y0250800D01*
X0351000Y0246300D01*
X0351000Y0245550D01*
X0354750Y0241800D01*
X0354750Y0218550D01*
X0342750Y0206550D01*
X0342750Y0186300D01*
X0339000Y0182550D01*
X0339000Y0151800D01*
X0333750Y0146550D01*
X0321000Y0146550D01*
X0318000Y0149550D01*
X0318000Y0152550D01*
X0317815Y0153220D01*
X0313500Y0153300D02*
X0312815Y0153220D01*
X0313500Y0153300D02*
X0313500Y0166050D01*
X0336000Y0188550D01*
X0339750Y0187800D02*
X0339750Y0208050D01*
X0351750Y0220050D01*
X0351750Y0235050D01*
X0345000Y0241800D01*
X0345000Y0222300D02*
X0320250Y0247050D01*
X0345000Y0222300D02*
X0345000Y0221800D01*
X0332250Y0199050D02*
X0325500Y0199050D01*
X0339750Y0187800D02*
X0323250Y0171300D01*
X0323250Y0153300D01*
X0322815Y0153220D01*
X0327815Y0153220D02*
X0328500Y0153300D01*
X0334500Y0153300D01*
X0354000Y0171300D02*
X0354000Y0172800D01*
X0388500Y0207300D01*
X0388500Y0235800D01*
X0394500Y0241800D01*
X0395000Y0241800D01*
X0302815Y0192820D02*
X0303000Y0192300D01*
X0298500Y0192300D02*
X0297815Y0192820D01*
X0298500Y0192300D02*
X0298500Y0179550D01*
X0307500Y0170550D01*
X0308250Y0163800D02*
X0309750Y0163800D01*
X0308250Y0163800D02*
X0283500Y0188550D01*
X0283500Y0192300D01*
X0282815Y0192820D01*
X0277815Y0192820D02*
X0277500Y0192300D01*
X0277500Y0188550D01*
X0275250Y0186300D01*
X0270000Y0186300D01*
X0264750Y0191550D01*
X0261000Y0191550D01*
X0260598Y0191800D01*
X0261750Y0183300D02*
X0284250Y0183300D01*
X0307500Y0160050D01*
X0307500Y0153300D01*
X0307815Y0153220D01*
X0302815Y0153220D02*
X0302250Y0153300D01*
X0302250Y0157050D01*
X0288000Y0171300D01*
X0294750Y0185550D02*
X0293250Y0187050D01*
X0293250Y0192300D01*
X0292815Y0192820D01*
X0288000Y0193050D02*
X0287815Y0192820D01*
X0288000Y0193050D02*
X0288000Y0196800D01*
X0295500Y0204300D01*
X0294000Y0203550D01*
X0270750Y0226800D01*
X0288750Y0222300D02*
X0264750Y0246300D01*
X0266250Y0250800D02*
X0189000Y0250800D01*
X0158250Y0229050D02*
X0145500Y0241800D01*
X0145000Y0241800D01*
X0158250Y0229050D02*
X0158250Y0226800D01*
X0195000Y0221800D02*
X0195000Y0157800D01*
X0193500Y0147300D02*
X0193500Y0128550D01*
X0204000Y0118050D01*
X0204000Y0111300D01*
X0192750Y0100050D01*
X0189000Y0100050D01*
X0188310Y0099930D01*
X0188250Y0099300D01*
X0178500Y0099300D01*
X0174750Y0095550D01*
X0174750Y0093300D01*
X0158250Y0076800D01*
X0155250Y0076800D01*
X0155000Y0076202D01*
X0165000Y0076800D02*
X0166500Y0076800D01*
X0179250Y0089550D01*
X0188250Y0089550D01*
X0188310Y0089930D01*
X0189000Y0090300D01*
X0192000Y0090300D01*
X0208500Y0106800D01*
X0208500Y0127050D01*
X0212250Y0124050D02*
X0213000Y0124050D01*
X0213000Y0118050D01*
X0220500Y0110550D01*
X0227250Y0110550D01*
X0227910Y0109930D01*
X0228000Y0105300D02*
X0227910Y0104930D01*
X0227250Y0104550D01*
X0228000Y0105300D02*
X0231750Y0105300D01*
X0243750Y0117300D01*
X0259500Y0117300D01*
X0260000Y0117398D01*
X0274500Y0118050D02*
X0275000Y0117398D01*
X0274500Y0118050D02*
X0274500Y0121800D01*
X0247500Y0148800D01*
X0237750Y0148800D01*
X0213000Y0124050D01*
X0216750Y0120300D02*
X0219000Y0120300D01*
X0224250Y0115050D01*
X0227250Y0115050D01*
X0227910Y0114930D01*
X0228000Y0115050D01*
X0232500Y0115050D01*
X0234750Y0117300D01*
X0230250Y0121050D02*
X0229500Y0120300D01*
X0228000Y0120300D01*
X0227910Y0119930D01*
X0230250Y0121050D02*
X0238500Y0121050D01*
X0219750Y0135300D02*
X0236250Y0151800D01*
X0264750Y0151800D01*
X0294000Y0122550D01*
X0294750Y0122550D01*
X0298500Y0118800D01*
X0297000Y0118050D01*
X0304500Y0118050D01*
X0305000Y0117398D01*
X0312000Y0103800D02*
X0320250Y0112050D01*
X0320250Y0124050D01*
X0327750Y0116550D02*
X0327750Y0115050D01*
X0315750Y0103050D01*
X0315750Y0100800D01*
X0309000Y0094050D01*
X0318750Y0101550D02*
X0318750Y0070800D01*
X0305250Y0073050D02*
X0298500Y0073050D01*
X0305250Y0073050D02*
X0305250Y0076050D01*
X0305000Y0076202D01*
X0305250Y0073050D02*
X0305250Y0054300D01*
X0307500Y0052050D01*
X0307500Y0031050D01*
X0315000Y0026550D02*
X0309000Y0020550D01*
X0292500Y0020550D01*
X0264750Y0048300D01*
X0264750Y0070800D01*
X0250500Y0070800D01*
X0238500Y0082800D01*
X0238500Y0085800D01*
X0234750Y0089550D01*
X0228000Y0089550D01*
X0227910Y0089930D01*
X0228000Y0094800D02*
X0227910Y0094930D01*
X0228000Y0094800D02*
X0246000Y0094800D01*
X0252750Y0088050D01*
X0250500Y0076800D02*
X0259500Y0076800D01*
X0260000Y0076202D01*
X0264750Y0070800D02*
X0270000Y0076050D01*
X0274500Y0076050D01*
X0275000Y0076202D01*
X0283500Y0081300D02*
X0288750Y0076050D01*
X0290000Y0076202D01*
X0289500Y0076050D01*
X0289500Y0052050D01*
X0288750Y0051300D01*
X0288750Y0033300D01*
X0294750Y0027300D01*
X0295000Y0026800D01*
X0315000Y0026550D02*
X0345000Y0026550D01*
X0345000Y0026800D01*
X0337500Y0010800D02*
X0131250Y0010800D01*
X0095250Y0046800D01*
X0095000Y0046800D01*
X0095000Y0026800D02*
X0073500Y0048300D01*
X0073500Y0110550D01*
X0076500Y0107550D02*
X0079500Y0110550D01*
X0079500Y0113550D01*
X0083250Y0118800D02*
X0103500Y0139050D01*
X0106500Y0156300D02*
X0101250Y0161550D01*
X0100598Y0161800D01*
X0106500Y0156300D02*
X0114750Y0156300D01*
X0115000Y0156202D01*
X0071250Y0137550D02*
X0071250Y0121050D01*
X0063000Y0112800D01*
X0063000Y0050550D01*
X0093000Y0020550D01*
X0115500Y0020550D01*
X0125250Y0027300D02*
X0089250Y0063300D01*
X0081750Y0063300D01*
X0076500Y0068550D01*
X0076500Y0107550D01*
X0057000Y0111300D02*
X0057000Y0118800D01*
X0057000Y0111300D02*
X0050250Y0104550D01*
X0050250Y0102300D01*
X0050000Y0101800D01*
X0039750Y0111300D02*
X0037500Y0111300D01*
X0027000Y0100800D01*
X0027000Y0086550D01*
X0033750Y0079800D01*
X0018000Y0107550D02*
X0018000Y0040800D01*
X0054000Y0004800D01*
X0360750Y0004800D01*
X0381750Y0025800D01*
X0381750Y0031800D01*
X0381000Y0031800D01*
X0381000Y0058800D01*
X0388500Y0066300D01*
X0388500Y0077550D01*
X0399000Y0088050D01*
X0399000Y0130050D01*
X0392250Y0136800D01*
X0384750Y0136800D01*
X0380250Y0132300D01*
X0380000Y0131800D01*
X0390000Y0131800D02*
X0390000Y0129300D01*
X0396000Y0123300D01*
X0396000Y0089550D01*
X0385500Y0106800D02*
X0377250Y0106800D01*
X0375000Y0109050D01*
X0375000Y0173550D01*
X0388500Y0143550D02*
X0390000Y0143550D01*
X0404250Y0129300D01*
X0404250Y0027300D01*
X0397500Y0020550D01*
X0393000Y0020550D01*
X0388500Y0025050D01*
X0388500Y0040800D01*
X0394500Y0046800D01*
X0395000Y0046800D01*
X0401250Y0057300D02*
X0392250Y0066300D01*
X0401250Y0057300D02*
X0401250Y0033300D01*
X0395250Y0027300D01*
X0395000Y0026800D01*
X0370500Y0043800D02*
X0337500Y0010800D01*
X0370500Y0043800D02*
X0370500Y0045300D01*
X0345000Y0046800D02*
X0345000Y0085050D01*
X0330750Y0099300D01*
X0330750Y0107550D01*
X0332250Y0115050D02*
X0318750Y0101550D01*
X0312000Y0103050D02*
X0312000Y0103800D01*
X0290000Y0117398D02*
X0289500Y0117300D01*
X0282000Y0117300D01*
X0309750Y0136800D02*
X0324000Y0136800D01*
X0330000Y0136800D02*
X0342000Y0124800D01*
X0355500Y0100050D02*
X0366750Y0111300D01*
X0371250Y0109800D02*
X0371250Y0115050D01*
X0371250Y0109800D02*
X0361500Y0100050D01*
X0385500Y0106800D02*
X0390000Y0111300D01*
X0390000Y0111800D01*
X0298500Y0148800D02*
X0298500Y0152550D01*
X0297815Y0153220D01*
X0261000Y0160050D02*
X0250500Y0160050D01*
X0249000Y0161550D01*
X0211500Y0161550D01*
X0198750Y0178800D02*
X0228000Y0178800D01*
X0241500Y0171300D02*
X0206250Y0206550D01*
X0201000Y0206550D01*
X0198750Y0208800D01*
X0198750Y0214050D01*
X0203250Y0210300D02*
X0222750Y0229800D01*
X0229500Y0215550D02*
X0246000Y0199050D01*
X0288750Y0222300D02*
X0294750Y0222300D01*
X0295000Y0221800D01*
X0246750Y0171300D02*
X0241500Y0171300D01*
X0188250Y0138300D02*
X0165000Y0161550D01*
X0165000Y0161800D01*
X0168750Y0139800D02*
X0168750Y0118050D01*
X0181500Y0105300D01*
X0188250Y0105300D01*
X0188310Y0104930D01*
X0189000Y0105300D01*
X0192000Y0105300D01*
X0200250Y0113550D01*
X0188310Y0114930D02*
X0188250Y0115050D01*
X0183750Y0115050D01*
X0181500Y0117300D01*
X0184500Y0120300D02*
X0188250Y0120300D01*
X0188310Y0119930D01*
X0184500Y0120300D02*
X0181500Y0123300D01*
X0188310Y0124930D02*
X0188250Y0125550D01*
X0188250Y0138300D01*
X0204750Y0135300D02*
X0219750Y0135300D01*
X0188250Y0110550D02*
X0184500Y0110550D01*
X0183000Y0112050D01*
X0180750Y0112050D01*
X0188250Y0110550D02*
X0188310Y0109930D01*
X0188310Y0094930D02*
X0188250Y0094800D01*
X0186750Y0093300D01*
X0178500Y0093300D01*
X0184500Y0084300D02*
X0176250Y0076050D01*
X0181500Y0075300D02*
X0188250Y0075300D01*
X0188310Y0074930D01*
X0189000Y0075300D01*
X0197250Y0075300D01*
X0203250Y0081300D01*
X0195750Y0079800D02*
X0189000Y0079800D01*
X0188310Y0079930D01*
X0188250Y0084300D02*
X0184500Y0084300D01*
X0188250Y0084300D02*
X0188310Y0084930D01*
X0217500Y0085050D02*
X0217500Y0075300D01*
X0219000Y0073800D01*
X0219000Y0046800D01*
X0208500Y0036300D01*
X0208500Y0031800D01*
X0192750Y0020550D02*
X0148500Y0064800D01*
X0148500Y0102300D01*
X0147000Y0103800D01*
X0147000Y0106800D01*
X0155000Y0117398D02*
X0155250Y0118050D01*
X0155250Y0120300D01*
X0158250Y0123300D01*
X0109500Y0076800D02*
X0098250Y0088050D01*
X0109500Y0076800D02*
X0110000Y0076202D01*
X0110250Y0075300D01*
X0110250Y0072300D01*
X0118500Y0064050D01*
X0139500Y0064050D01*
X0140000Y0076202D02*
X0139500Y0076800D01*
X0135000Y0081300D01*
X0134250Y0081300D01*
X0133500Y0076800D02*
X0125250Y0076800D01*
X0125000Y0076202D01*
X0125250Y0027300D02*
X0144750Y0027300D01*
X0145000Y0026800D01*
X0219000Y0073800D02*
X0223500Y0073800D01*
X0224250Y0074550D01*
X0227250Y0074550D01*
X0227910Y0074930D01*
X0227910Y0069930D02*
X0228000Y0069300D01*
X0233250Y0069300D01*
X0251250Y0051300D01*
X0293250Y0053550D02*
X0298500Y0053550D01*
X0302250Y0049800D01*
X0303750Y0049800D01*
X0316500Y0049800D02*
X0338250Y0049800D01*
X0234750Y0083550D02*
X0228750Y0083550D01*
X0228000Y0084300D01*
X0227910Y0084930D01*
X0071250Y0137550D02*
X0069750Y0139050D01*
X0049500Y0139050D01*
X0045000Y0134550D01*
X0045000Y0129300D01*
X0040500Y0124800D01*
X0040500Y0121800D01*
X0040000Y0121800D01*
X0039750Y0129300D02*
X0018000Y0107550D01*
X0039750Y0111300D02*
X0040000Y0111800D01*
X0039750Y0129300D02*
X0039750Y0131550D01*
X0040000Y0131800D01*
M02*
