%
M48
M72
T01C0.01500
T02C0.03600
T03C0.04000
T04C0.05118
T05C0.07874
T06C0.12598
%
T01
X115500Y20550
X139500Y64050
X133500Y76800
X134250Y81300
X162000Y87300
X165000Y76800
X170250Y73800
X176250Y76050
X181500Y75300
X195750Y79800
X203250Y81300
X217500Y85050
X221250Y77550
X234750Y83550
X250500Y76800
X252750Y88050
X283500Y81300
X298500Y73050
X312000Y85050
X309000Y94050
X312000Y103050
X330750Y107550
X332250Y115050
X327750Y116550
X320250Y124050
X321750Y133050
X330000Y136800
X342000Y124800
X366750Y111300
X371250Y115050
X361500Y100050
X355500Y100050
X318750Y70800
X293250Y53550
X303750Y49800
X316500Y49800
X338250Y49800
X370500Y45300
X381000Y31800
X351000Y13800
X338250Y17550
X307500Y31050
X259500Y16800
X208500Y31800
X178500Y93300
X180750Y112050
X181500Y117300
X181500Y123300
X200250Y113550
X212250Y124050
X208500Y127050
X220500Y124800
X216750Y120300
X234750Y117300
X238500Y121050
X245250Y144300
X261000Y160050
X246750Y171300
X241500Y166800
X228000Y178800
X249000Y183300
X261750Y183300
X246000Y199050
X229500Y215550
X222750Y229800
X198750Y214050
X203250Y210300
X158250Y226800
X183000Y250800
X264750Y246300
X266250Y250800
X270750Y226800
X301500Y239550
X320250Y247050
X295500Y204300
X320250Y203550
X332250Y199050
X332250Y192300
X312000Y180300
X314250Y172800
X307500Y170550
X309750Y163800
X288000Y171300
X294750Y185550
X334500Y153300
X354000Y171300
X375000Y173550
X388500Y143550
X309750Y136800
X288000Y144300
X282000Y117300
X297000Y118050
X210750Y153300
X211500Y161550
X195000Y157800
X193500Y147300
X204750Y135300
X168750Y139800
X158250Y123300
X147750Y122550
X148500Y117300
X149250Y112050
X147000Y106800
X102750Y102300
X87000Y116550
X79500Y113550
X73500Y110550
X67500Y123300
X67500Y129300
X103500Y139050
X132000Y139800
X135750Y149550
X198750Y178800
X67500Y175050
X30750Y88800
X33750Y79800
X80250Y82050
X392250Y66300
T02
X390000Y91800
X380000Y91800
X380000Y101800
X390000Y101800
X390000Y111800
X380000Y111800
X380000Y121800
X390000Y121800
X390000Y131800
X380000Y131800
X50000Y131800
X40000Y131800
X40000Y121800
X50000Y121800
X50000Y111800
X40000Y111800
X40000Y101800
X50000Y101800
X50000Y91800
X40000Y91800
T03
X45000Y26800
X45000Y36800
X45000Y46800
X95000Y46800
X95000Y36800
X95000Y26800
X145000Y26800
X145000Y36800
X145000Y46800
X195000Y46800
X195000Y36800
X195000Y26800
X245000Y26800
X245000Y36800
X245000Y46800
X295000Y46800
X295000Y36800
X295000Y26800
X345000Y26800
X345000Y36800
X345000Y46800
X395000Y46800
X395000Y36800
X395000Y26800
X395000Y221800
X395000Y231800
X395000Y241800
X345000Y241800
X345000Y231800
X345000Y221800
X295000Y221800
X295000Y231800
X295000Y241800
X245000Y241800
X245000Y231800
X245000Y221800
X195000Y221800
X195000Y231800
X195000Y241800
X145000Y241800
X145000Y231800
X145000Y221800
X95000Y221800
X95000Y231800
X95000Y241800
X45000Y241800
X45000Y231800
X45000Y221800
T04
X36102Y181800
X58937Y181800
X47126Y162902
T05
X165000Y161800
T06
X85000Y71800
X395000Y191800
M30
