G75*
%MOIN*%
%OFA0B0*%
%FSLAX25Y25*%
%IPPOS*%
%LPD*%
%AMOC8*
5,1,8,0,0,1.08239X$1,22.5*
%
%ADD10C,0.13000*%
%ADD11OC8,0.06000*%
%ADD12R,0.07400X0.07400*%
%ADD13C,0.07400*%
%ADD14C,0.07677*%
%ADD15C,0.03500*%
%ADD16C,0.03500*%
%ADD17C,0.01600*%
%ADD18C,0.02000*%
D10*
X0165000Y0161800D03*
D11*
X0050000Y0131800D03*
X0040000Y0131800D03*
X0040000Y0121800D03*
X0050000Y0121800D03*
X0050000Y0111800D03*
X0040000Y0111800D03*
X0040000Y0101800D03*
X0050000Y0101800D03*
X0050000Y0091800D03*
X0040000Y0091800D03*
X0380000Y0091800D03*
X0390000Y0091800D03*
X0390000Y0101800D03*
X0380000Y0101800D03*
X0380000Y0111800D03*
X0390000Y0111800D03*
X0390000Y0121800D03*
X0380000Y0121800D03*
X0380000Y0131800D03*
X0390000Y0131800D03*
D12*
X0395000Y0046800D03*
X0345000Y0046800D03*
X0295000Y0046800D03*
X0245000Y0046800D03*
X0195000Y0046800D03*
X0145000Y0046800D03*
X0095000Y0046800D03*
X0045000Y0046800D03*
X0045000Y0241800D03*
X0095000Y0241800D03*
X0145000Y0241800D03*
X0195000Y0241800D03*
X0245000Y0241800D03*
X0295000Y0241800D03*
X0345000Y0241800D03*
X0395000Y0241800D03*
D13*
X0395000Y0231800D03*
X0395000Y0221800D03*
X0345000Y0221800D03*
X0345000Y0231800D03*
X0295000Y0231800D03*
X0295000Y0221800D03*
X0245000Y0221800D03*
X0245000Y0231800D03*
X0195000Y0231800D03*
X0195000Y0221800D03*
X0145000Y0221800D03*
X0145000Y0231800D03*
X0095000Y0231800D03*
X0095000Y0221800D03*
X0045000Y0221800D03*
X0045000Y0231800D03*
X0045000Y0036800D03*
X0045000Y0026800D03*
X0095000Y0026800D03*
X0095000Y0036800D03*
X0145000Y0036800D03*
X0145000Y0026800D03*
X0195000Y0026800D03*
X0195000Y0036800D03*
X0245000Y0036800D03*
X0245000Y0026800D03*
X0295000Y0026800D03*
X0295000Y0036800D03*
X0345000Y0036800D03*
X0345000Y0026800D03*
X0395000Y0026800D03*
X0395000Y0036800D03*
D14*
X0058937Y0181800D03*
X0036102Y0181800D03*
X0047126Y0162902D03*
D15*
X0047250Y0163050D01*
X0055500Y0163050D01*
X0067500Y0175050D01*
X0058937Y0181800D02*
X0055500Y0181800D01*
X0025500Y0151800D01*
X0025500Y0054300D01*
X0042000Y0037800D01*
X0043500Y0037800D01*
X0045000Y0036800D01*
X0045000Y0037050D01*
X0094500Y0037050D01*
X0095000Y0036800D01*
X0096750Y0037050D01*
X0144750Y0037050D01*
X0145000Y0036800D01*
X0146250Y0037050D01*
X0195000Y0037050D01*
X0195000Y0036800D01*
X0196500Y0037050D01*
X0244500Y0037050D01*
X0245000Y0036800D01*
X0246750Y0037050D01*
X0294750Y0037050D01*
X0295000Y0036800D01*
X0296250Y0037050D01*
X0345000Y0037050D01*
X0345000Y0036800D01*
X0346500Y0037050D01*
X0394500Y0037050D01*
X0395000Y0036800D01*
X0383250Y0085050D02*
X0312000Y0085050D01*
X0383250Y0085050D02*
X0390000Y0091800D01*
X0249000Y0181050D02*
X0249000Y0183300D01*
X0249000Y0181050D02*
X0241500Y0173550D01*
X0241500Y0166800D01*
X0242250Y0165300D01*
X0245250Y0162300D01*
X0245250Y0144300D01*
X0220500Y0140550D02*
X0211500Y0149550D01*
X0211500Y0151800D01*
X0210750Y0153300D01*
X0216750Y0159300D01*
X0216750Y0210300D01*
X0231750Y0210300D01*
X0234750Y0213300D01*
X0234750Y0221550D01*
X0245000Y0231800D01*
X0246000Y0231300D01*
X0258750Y0218550D01*
X0278250Y0218550D01*
X0291750Y0232050D01*
X0293250Y0232050D01*
X0295000Y0231800D01*
X0295500Y0232050D01*
X0345000Y0232050D01*
X0345000Y0231800D01*
X0346500Y0232050D01*
X0394500Y0232050D01*
X0395000Y0231800D01*
X0216750Y0210300D02*
X0195000Y0232050D01*
X0195000Y0231800D01*
X0193500Y0232050D01*
X0145500Y0232050D01*
X0145000Y0231800D01*
X0143250Y0232050D01*
X0095250Y0232050D01*
X0095000Y0231800D01*
X0220500Y0140550D02*
X0220500Y0124800D01*
X0183750Y0095550D02*
X0180750Y0098550D01*
X0123000Y0098550D01*
X0119250Y0102300D01*
X0102750Y0102300D01*
X0062250Y0102300D01*
X0051750Y0091800D01*
X0050000Y0091800D01*
X0162000Y0087300D02*
X0170250Y0079050D01*
X0171750Y0079800D01*
X0180000Y0088050D01*
X0180750Y0088050D01*
X0183750Y0091050D01*
X0183750Y0095550D01*
X0170250Y0079050D02*
X0170250Y0073800D01*
D16*
X0170250Y0073800D03*
X0165000Y0076800D03*
X0176250Y0076050D03*
X0181500Y0075300D03*
X0195750Y0079800D03*
X0203250Y0081300D03*
X0217500Y0085050D03*
X0221250Y0077550D03*
X0234750Y0083550D03*
X0250500Y0076800D03*
X0252750Y0088050D03*
X0283500Y0081300D03*
X0298500Y0073050D03*
X0312000Y0085050D03*
X0309000Y0094050D03*
X0312000Y0103050D03*
X0330750Y0107550D03*
X0332250Y0115050D03*
X0327750Y0116550D03*
X0320250Y0124050D03*
X0321750Y0133050D03*
X0330000Y0136800D03*
X0342000Y0124800D03*
X0366750Y0111300D03*
X0371250Y0115050D03*
X0361500Y0100050D03*
X0355500Y0100050D03*
X0318750Y0070800D03*
X0293250Y0053550D03*
X0303750Y0049800D03*
X0316500Y0049800D03*
X0338250Y0049800D03*
X0370500Y0045300D03*
X0381000Y0031800D03*
X0351000Y0013800D03*
X0338250Y0017550D03*
X0307500Y0031050D03*
X0259500Y0016800D03*
X0208500Y0031800D03*
X0139500Y0064050D03*
X0133500Y0076800D03*
X0134250Y0081300D03*
X0162000Y0087300D03*
X0178500Y0093300D03*
X0180750Y0112050D03*
X0181500Y0117300D03*
X0181500Y0123300D03*
X0200250Y0113550D03*
X0212250Y0124050D03*
X0208500Y0127050D03*
X0220500Y0124800D03*
X0216750Y0120300D03*
X0234750Y0117300D03*
X0238500Y0121050D03*
X0245250Y0144300D03*
X0261000Y0160050D03*
X0246750Y0171300D03*
X0241500Y0166800D03*
X0228000Y0178800D03*
X0249000Y0183300D03*
X0261750Y0183300D03*
X0246000Y0199050D03*
X0229500Y0215550D03*
X0222750Y0229800D03*
X0198750Y0214050D03*
X0203250Y0210300D03*
X0158250Y0226800D03*
X0183000Y0250800D03*
X0264750Y0246300D03*
X0266250Y0250800D03*
X0270750Y0226800D03*
X0301500Y0239550D03*
X0320250Y0247050D03*
X0295500Y0204300D03*
X0320250Y0203550D03*
X0332250Y0199050D03*
X0332250Y0192300D03*
X0312000Y0180300D03*
X0314250Y0172800D03*
X0307500Y0170550D03*
X0309750Y0163800D03*
X0288000Y0171300D03*
X0294750Y0185550D03*
X0334500Y0153300D03*
X0354000Y0171300D03*
X0375000Y0173550D03*
X0388500Y0143550D03*
X0309750Y0136800D03*
X0288000Y0144300D03*
X0282000Y0117300D03*
X0297000Y0118050D03*
X0210750Y0153300D03*
X0211500Y0161550D03*
X0195000Y0157800D03*
X0193500Y0147300D03*
X0204750Y0135300D03*
X0168750Y0139800D03*
X0158250Y0123300D03*
X0147750Y0122550D03*
X0148500Y0117300D03*
X0149250Y0112050D03*
X0147000Y0106800D03*
X0102750Y0102300D03*
X0087000Y0116550D03*
X0079500Y0113550D03*
X0073500Y0110550D03*
X0067500Y0123300D03*
X0067500Y0129300D03*
X0103500Y0139050D03*
X0132000Y0139800D03*
X0135750Y0149550D03*
X0198750Y0178800D03*
X0067500Y0175050D03*
X0030750Y0088800D03*
X0033750Y0079800D03*
X0080250Y0082050D03*
X0115500Y0020550D03*
X0392250Y0066300D03*
D17*
X0017600Y0004400D02*
X0017600Y0261800D01*
X0412400Y0261800D01*
X0412400Y0004400D01*
X0017600Y0004400D01*
X0017600Y0004997D02*
X0412400Y0004997D01*
X0412400Y0006596D02*
X0017600Y0006596D01*
X0017600Y0008194D02*
X0412400Y0008194D01*
X0412400Y0009793D02*
X0351908Y0009793D01*
X0351806Y0009750D02*
X0353294Y0010367D01*
X0354433Y0011506D01*
X0355050Y0012994D01*
X0355050Y0014250D01*
X0362156Y0014250D01*
X0363369Y0014752D01*
X0377117Y0028500D01*
X0378572Y0028500D01*
X0378706Y0028367D01*
X0380194Y0027750D01*
X0381806Y0027750D01*
X0383294Y0028367D01*
X0384433Y0029506D01*
X0385050Y0030994D01*
X0385050Y0032606D01*
X0384887Y0033000D01*
X0390315Y0033000D01*
X0391515Y0031800D01*
X0389913Y0030199D01*
X0389000Y0027993D01*
X0389000Y0025607D01*
X0389913Y0023401D01*
X0391601Y0021713D01*
X0393807Y0020800D01*
X0396193Y0020800D01*
X0398399Y0021713D01*
X0400087Y0023401D01*
X0401000Y0025607D01*
X0401000Y0027993D01*
X0400087Y0030199D01*
X0398485Y0031800D01*
X0400087Y0033401D01*
X0401000Y0035607D01*
X0401000Y0037993D01*
X0400087Y0040199D01*
X0399485Y0040800D01*
X0399653Y0040800D01*
X0401000Y0042147D01*
X0401000Y0051453D01*
X0399653Y0052800D01*
X0393917Y0052800D01*
X0409298Y0068181D01*
X0409800Y0069394D01*
X0409800Y0136706D01*
X0409298Y0137919D01*
X0408369Y0138848D01*
X0377157Y0170060D01*
X0377294Y0170117D01*
X0378433Y0171256D01*
X0379050Y0172744D01*
X0379050Y0174356D01*
X0378433Y0175844D01*
X0377294Y0176983D01*
X0375806Y0177600D01*
X0375617Y0177600D01*
X0344792Y0208425D01*
X0345548Y0209181D01*
X0354617Y0218250D01*
X0390065Y0218250D01*
X0391601Y0216713D01*
X0393807Y0215800D01*
X0396193Y0215800D01*
X0398399Y0216713D01*
X0400087Y0218401D01*
X0401000Y0220607D01*
X0401000Y0222993D01*
X0400087Y0225199D01*
X0398485Y0226800D01*
X0400087Y0228401D01*
X0401000Y0230607D01*
X0401000Y0232993D01*
X0400087Y0235199D01*
X0399485Y0235800D01*
X0399653Y0235800D01*
X0401000Y0237147D01*
X0401000Y0246453D01*
X0399653Y0247800D01*
X0390347Y0247800D01*
X0389000Y0246453D01*
X0389000Y0237147D01*
X0390047Y0236100D01*
X0349953Y0236100D01*
X0351000Y0237147D01*
X0351000Y0246453D01*
X0349653Y0247800D01*
X0340347Y0247800D01*
X0339000Y0246453D01*
X0339000Y0237147D01*
X0340047Y0236100D01*
X0303754Y0236100D01*
X0303794Y0236117D01*
X0304933Y0237256D01*
X0305550Y0238744D01*
X0305550Y0240356D01*
X0304933Y0241844D01*
X0304800Y0241978D01*
X0304800Y0243750D01*
X0317822Y0243750D01*
X0317956Y0243617D01*
X0319444Y0243000D01*
X0321056Y0243000D01*
X0322544Y0243617D01*
X0323683Y0244756D01*
X0324300Y0246244D01*
X0324300Y0247856D01*
X0323683Y0249344D01*
X0322544Y0250483D01*
X0321056Y0251100D01*
X0319444Y0251100D01*
X0317956Y0250483D01*
X0317822Y0250350D01*
X0305867Y0250350D01*
X0303548Y0252669D01*
X0302619Y0253598D01*
X0301406Y0254100D01*
X0268678Y0254100D01*
X0268544Y0254233D01*
X0267056Y0254850D01*
X0265444Y0254850D01*
X0263956Y0254233D01*
X0262817Y0253094D01*
X0262200Y0251606D01*
X0262200Y0249994D01*
X0262351Y0249629D01*
X0262322Y0249600D01*
X0257867Y0249600D01*
X0254798Y0252669D01*
X0253869Y0253598D01*
X0252656Y0254100D01*
X0185428Y0254100D01*
X0185294Y0254233D01*
X0183806Y0254850D01*
X0182194Y0254850D01*
X0180706Y0254233D01*
X0179567Y0253094D01*
X0178950Y0251606D01*
X0178950Y0249994D01*
X0179567Y0248506D01*
X0180706Y0247367D01*
X0182194Y0246750D01*
X0183806Y0246750D01*
X0185294Y0247367D01*
X0185428Y0247500D01*
X0190047Y0247500D01*
X0189000Y0246453D01*
X0189000Y0237147D01*
X0190047Y0236100D01*
X0149953Y0236100D01*
X0151000Y0237147D01*
X0151000Y0246453D01*
X0149653Y0247800D01*
X0140347Y0247800D01*
X0139000Y0246453D01*
X0139000Y0237147D01*
X0140047Y0236100D01*
X0099953Y0236100D01*
X0101000Y0237147D01*
X0101000Y0246453D01*
X0099653Y0247800D01*
X0090347Y0247800D01*
X0089000Y0246453D01*
X0089000Y0237147D01*
X0090347Y0235800D01*
X0090515Y0235800D01*
X0089913Y0235199D01*
X0089000Y0232993D01*
X0089000Y0230607D01*
X0089913Y0228401D01*
X0091515Y0226800D01*
X0089913Y0225199D01*
X0089000Y0222993D01*
X0089000Y0220607D01*
X0089913Y0218401D01*
X0091601Y0216713D01*
X0093807Y0215800D01*
X0096193Y0215800D01*
X0098399Y0216713D01*
X0100087Y0218401D01*
X0101000Y0220607D01*
X0101000Y0222993D01*
X0100087Y0225199D01*
X0098485Y0226800D01*
X0099685Y0228000D01*
X0140315Y0228000D01*
X0141515Y0226800D01*
X0139913Y0225199D01*
X0139769Y0224850D01*
X0121594Y0224850D01*
X0120381Y0224348D01*
X0032631Y0136598D01*
X0031702Y0135669D01*
X0031200Y0134456D01*
X0031200Y0092850D01*
X0029944Y0092850D01*
X0029550Y0092687D01*
X0029550Y0150122D01*
X0041542Y0162114D01*
X0041626Y0161582D01*
X0041901Y0160738D01*
X0042303Y0159947D01*
X0042825Y0159229D01*
X0043453Y0158601D01*
X0044171Y0158080D01*
X0044962Y0157677D01*
X0045806Y0157403D01*
X0046646Y0157269D01*
X0046646Y0162423D01*
X0047606Y0162423D01*
X0047606Y0163382D01*
X0052759Y0163382D01*
X0052626Y0164223D01*
X0052351Y0165067D01*
X0051949Y0165858D01*
X0051427Y0166576D01*
X0050799Y0167203D01*
X0050081Y0167725D01*
X0049290Y0168128D01*
X0048446Y0168402D01*
X0047914Y0168486D01*
X0055858Y0176431D01*
X0057716Y0175661D01*
X0060158Y0175661D01*
X0062414Y0176596D01*
X0064141Y0178323D01*
X0065076Y0180579D01*
X0065076Y0183021D01*
X0064141Y0185277D01*
X0062414Y0187004D01*
X0060158Y0187939D01*
X0057716Y0187939D01*
X0055460Y0187004D01*
X0054031Y0185575D01*
X0053206Y0185233D01*
X0052067Y0184094D01*
X0022067Y0154094D01*
X0021450Y0152606D01*
X0021450Y0053494D01*
X0022067Y0052006D01*
X0023206Y0050867D01*
X0039378Y0034695D01*
X0039913Y0033401D01*
X0041515Y0031800D01*
X0039913Y0030199D01*
X0039000Y0027993D01*
X0039000Y0025607D01*
X0039913Y0023401D01*
X0041601Y0021713D01*
X0043807Y0020800D01*
X0046193Y0020800D01*
X0048399Y0021713D01*
X0050087Y0023401D01*
X0051000Y0025607D01*
X0051000Y0027993D01*
X0050087Y0030199D01*
X0048485Y0031800D01*
X0049685Y0033000D01*
X0090315Y0033000D01*
X0091515Y0031800D01*
X0089913Y0030199D01*
X0089000Y0027993D01*
X0089000Y0025607D01*
X0089913Y0023401D01*
X0091601Y0021713D01*
X0093807Y0020800D01*
X0096193Y0020800D01*
X0098399Y0021713D01*
X0100087Y0023401D01*
X0101000Y0025607D01*
X0101000Y0027993D01*
X0100087Y0030199D01*
X0098485Y0031800D01*
X0099685Y0033000D01*
X0140315Y0033000D01*
X0141515Y0031800D01*
X0139913Y0030199D01*
X0139000Y0027993D01*
X0139000Y0025607D01*
X0139728Y0023850D01*
X0117928Y0023850D01*
X0117794Y0023983D01*
X0116306Y0024600D01*
X0114694Y0024600D01*
X0113206Y0023983D01*
X0112067Y0022844D01*
X0111450Y0021356D01*
X0111450Y0019744D01*
X0112067Y0018256D01*
X0113206Y0017117D01*
X0114694Y0016500D01*
X0116306Y0016500D01*
X0117794Y0017117D01*
X0117928Y0017250D01*
X0197906Y0017250D01*
X0199119Y0017752D01*
X0209117Y0027750D01*
X0209306Y0027750D01*
X0210794Y0028367D01*
X0211933Y0029506D01*
X0212550Y0030994D01*
X0212550Y0032606D01*
X0212387Y0033000D01*
X0240315Y0033000D01*
X0241515Y0031800D01*
X0239913Y0030199D01*
X0239000Y0027993D01*
X0239000Y0025607D01*
X0239913Y0023401D01*
X0241601Y0021713D01*
X0243807Y0020800D01*
X0246193Y0020800D01*
X0246292Y0020841D01*
X0249381Y0017752D01*
X0250594Y0017250D01*
X0255450Y0017250D01*
X0255450Y0015994D01*
X0256067Y0014506D01*
X0257206Y0013367D01*
X0258694Y0012750D01*
X0258883Y0012750D01*
X0260631Y0011002D01*
X0261844Y0010500D01*
X0348572Y0010500D01*
X0348706Y0010367D01*
X0350194Y0009750D01*
X0351806Y0009750D01*
X0350092Y0009793D02*
X0017600Y0009793D01*
X0017600Y0011391D02*
X0260242Y0011391D01*
X0258116Y0012990D02*
X0017600Y0012990D01*
X0017600Y0014588D02*
X0256033Y0014588D01*
X0255450Y0016187D02*
X0017600Y0016187D01*
X0017600Y0017785D02*
X0112537Y0017785D01*
X0111599Y0019384D02*
X0017600Y0019384D01*
X0017600Y0020982D02*
X0043367Y0020982D01*
X0040734Y0022581D02*
X0017600Y0022581D01*
X0017600Y0024179D02*
X0039591Y0024179D01*
X0039000Y0025778D02*
X0017600Y0025778D01*
X0017600Y0027376D02*
X0039000Y0027376D01*
X0039406Y0028975D02*
X0017600Y0028975D01*
X0017600Y0030573D02*
X0040288Y0030573D01*
X0041143Y0032172D02*
X0017600Y0032172D01*
X0017600Y0033770D02*
X0039761Y0033770D01*
X0038704Y0035369D02*
X0017600Y0035369D01*
X0017600Y0036967D02*
X0037105Y0036967D01*
X0035507Y0038566D02*
X0017600Y0038566D01*
X0017600Y0040164D02*
X0033908Y0040164D01*
X0032310Y0041763D02*
X0017600Y0041763D01*
X0017600Y0043361D02*
X0030711Y0043361D01*
X0029113Y0044960D02*
X0017600Y0044960D01*
X0017600Y0046558D02*
X0027514Y0046558D01*
X0025916Y0048157D02*
X0017600Y0048157D01*
X0017600Y0049755D02*
X0024317Y0049755D01*
X0023206Y0050867D02*
X0023206Y0050867D01*
X0022719Y0051354D02*
X0017600Y0051354D01*
X0017600Y0052952D02*
X0021675Y0052952D01*
X0021450Y0054551D02*
X0017600Y0054551D01*
X0017600Y0056149D02*
X0021450Y0056149D01*
X0021450Y0057748D02*
X0017600Y0057748D01*
X0017600Y0059346D02*
X0021450Y0059346D01*
X0021450Y0060945D02*
X0017600Y0060945D01*
X0017600Y0062543D02*
X0021450Y0062543D01*
X0021450Y0064142D02*
X0017600Y0064142D01*
X0017600Y0065740D02*
X0021450Y0065740D01*
X0021450Y0067339D02*
X0017600Y0067339D01*
X0017600Y0068937D02*
X0021450Y0068937D01*
X0021450Y0070536D02*
X0017600Y0070536D01*
X0017600Y0072134D02*
X0021450Y0072134D01*
X0021450Y0073733D02*
X0017600Y0073733D01*
X0017600Y0075332D02*
X0021450Y0075332D01*
X0021450Y0076930D02*
X0017600Y0076930D01*
X0017600Y0078529D02*
X0021450Y0078529D01*
X0021450Y0080127D02*
X0017600Y0080127D01*
X0017600Y0081726D02*
X0021450Y0081726D01*
X0021450Y0083324D02*
X0017600Y0083324D01*
X0017600Y0084923D02*
X0021450Y0084923D01*
X0021450Y0086521D02*
X0017600Y0086521D01*
X0017600Y0088120D02*
X0021450Y0088120D01*
X0021450Y0089718D02*
X0017600Y0089718D01*
X0017600Y0091317D02*
X0021450Y0091317D01*
X0021450Y0092915D02*
X0017600Y0092915D01*
X0017600Y0094514D02*
X0021450Y0094514D01*
X0021450Y0096112D02*
X0017600Y0096112D01*
X0017600Y0097711D02*
X0021450Y0097711D01*
X0021450Y0099309D02*
X0017600Y0099309D01*
X0017600Y0100908D02*
X0021450Y0100908D01*
X0021450Y0102506D02*
X0017600Y0102506D01*
X0017600Y0104105D02*
X0021450Y0104105D01*
X0021450Y0105703D02*
X0017600Y0105703D01*
X0017600Y0107302D02*
X0021450Y0107302D01*
X0021450Y0108900D02*
X0017600Y0108900D01*
X0017600Y0110499D02*
X0021450Y0110499D01*
X0021450Y0112097D02*
X0017600Y0112097D01*
X0017600Y0113696D02*
X0021450Y0113696D01*
X0021450Y0115294D02*
X0017600Y0115294D01*
X0017600Y0116893D02*
X0021450Y0116893D01*
X0021450Y0118491D02*
X0017600Y0118491D01*
X0017600Y0120090D02*
X0021450Y0120090D01*
X0021450Y0121688D02*
X0017600Y0121688D01*
X0017600Y0123287D02*
X0021450Y0123287D01*
X0021450Y0124885D02*
X0017600Y0124885D01*
X0017600Y0126484D02*
X0021450Y0126484D01*
X0021450Y0128082D02*
X0017600Y0128082D01*
X0017600Y0129681D02*
X0021450Y0129681D01*
X0021450Y0131279D02*
X0017600Y0131279D01*
X0017600Y0132878D02*
X0021450Y0132878D01*
X0021450Y0134476D02*
X0017600Y0134476D01*
X0017600Y0136075D02*
X0021450Y0136075D01*
X0021450Y0137673D02*
X0017600Y0137673D01*
X0017600Y0139272D02*
X0021450Y0139272D01*
X0021450Y0140870D02*
X0017600Y0140870D01*
X0017600Y0142469D02*
X0021450Y0142469D01*
X0021450Y0144068D02*
X0017600Y0144068D01*
X0017600Y0145666D02*
X0021450Y0145666D01*
X0021450Y0147265D02*
X0017600Y0147265D01*
X0017600Y0148863D02*
X0021450Y0148863D01*
X0021450Y0150462D02*
X0017600Y0150462D01*
X0017600Y0152060D02*
X0021450Y0152060D01*
X0021886Y0153659D02*
X0017600Y0153659D01*
X0017600Y0155257D02*
X0023230Y0155257D01*
X0024828Y0156856D02*
X0017600Y0156856D01*
X0017600Y0158454D02*
X0026427Y0158454D01*
X0028025Y0160053D02*
X0017600Y0160053D01*
X0017600Y0161651D02*
X0029624Y0161651D01*
X0031222Y0163250D02*
X0017600Y0163250D01*
X0017600Y0164848D02*
X0032821Y0164848D01*
X0034419Y0166447D02*
X0017600Y0166447D01*
X0017600Y0168045D02*
X0036018Y0168045D01*
X0037616Y0169644D02*
X0017600Y0169644D01*
X0017600Y0171242D02*
X0039215Y0171242D01*
X0040813Y0172841D02*
X0017600Y0172841D01*
X0017600Y0174439D02*
X0042412Y0174439D01*
X0044010Y0176038D02*
X0017600Y0176038D01*
X0017600Y0177636D02*
X0032292Y0177636D01*
X0032429Y0177499D02*
X0033147Y0176977D01*
X0033938Y0176575D01*
X0034782Y0176300D01*
X0035623Y0176167D01*
X0035623Y0181320D01*
X0036582Y0181320D01*
X0036582Y0176167D01*
X0037423Y0176300D01*
X0038267Y0176575D01*
X0039058Y0176977D01*
X0039776Y0177499D01*
X0040403Y0178127D01*
X0040925Y0178845D01*
X0041328Y0179636D01*
X0041602Y0180480D01*
X0041735Y0181320D01*
X0036582Y0181320D01*
X0036582Y0182280D01*
X0035623Y0182280D01*
X0035623Y0187433D01*
X0034782Y0187300D01*
X0033938Y0187025D01*
X0033147Y0186623D01*
X0032429Y0186101D01*
X0031801Y0185473D01*
X0031280Y0184755D01*
X0030877Y0183964D01*
X0030603Y0183120D01*
X0030469Y0182280D01*
X0035623Y0182280D01*
X0035623Y0181320D01*
X0030469Y0181320D01*
X0030603Y0180480D01*
X0030877Y0179636D01*
X0031280Y0178845D01*
X0031801Y0178127D01*
X0032429Y0177499D01*
X0031081Y0179235D02*
X0017600Y0179235D01*
X0017600Y0180833D02*
X0030547Y0180833D01*
X0030494Y0182432D02*
X0017600Y0182432D01*
X0017600Y0184030D02*
X0030910Y0184030D01*
X0031957Y0185629D02*
X0017600Y0185629D01*
X0017600Y0187227D02*
X0034559Y0187227D01*
X0035623Y0187227D02*
X0036582Y0187227D01*
X0036582Y0187433D02*
X0036582Y0182280D01*
X0041735Y0182280D01*
X0041602Y0183120D01*
X0041328Y0183964D01*
X0040925Y0184755D01*
X0040403Y0185473D01*
X0039776Y0186101D01*
X0039058Y0186623D01*
X0038267Y0187025D01*
X0037423Y0187300D01*
X0036582Y0187433D01*
X0037646Y0187227D02*
X0055999Y0187227D01*
X0054085Y0185629D02*
X0040248Y0185629D01*
X0041294Y0184030D02*
X0052003Y0184030D01*
X0050404Y0182432D02*
X0041711Y0182432D01*
X0041658Y0180833D02*
X0048806Y0180833D01*
X0047207Y0179235D02*
X0041124Y0179235D01*
X0039913Y0177636D02*
X0045609Y0177636D01*
X0052268Y0172841D02*
X0068874Y0172841D01*
X0070472Y0174439D02*
X0053867Y0174439D01*
X0055465Y0176038D02*
X0056807Y0176038D01*
X0061067Y0176038D02*
X0072071Y0176038D01*
X0073669Y0177636D02*
X0063455Y0177636D01*
X0064519Y0179235D02*
X0075268Y0179235D01*
X0076866Y0180833D02*
X0065076Y0180833D01*
X0065076Y0182432D02*
X0078465Y0182432D01*
X0080063Y0184030D02*
X0064658Y0184030D01*
X0063789Y0185629D02*
X0081662Y0185629D01*
X0083260Y0187227D02*
X0061875Y0187227D01*
X0067275Y0171242D02*
X0050670Y0171242D01*
X0049071Y0169644D02*
X0065677Y0169644D01*
X0064078Y0168045D02*
X0049453Y0168045D01*
X0051521Y0166447D02*
X0062480Y0166447D01*
X0060881Y0164848D02*
X0052423Y0164848D01*
X0052759Y0162423D02*
X0047606Y0162423D01*
X0047606Y0157269D01*
X0048446Y0157403D01*
X0049290Y0157677D01*
X0050081Y0158080D01*
X0050799Y0158601D01*
X0051427Y0159229D01*
X0051949Y0159947D01*
X0052351Y0160738D01*
X0052626Y0161582D01*
X0052759Y0162423D01*
X0052637Y0161651D02*
X0057684Y0161651D01*
X0056086Y0160053D02*
X0052002Y0160053D01*
X0050596Y0158454D02*
X0054487Y0158454D01*
X0052889Y0156856D02*
X0036283Y0156856D01*
X0037882Y0158454D02*
X0043656Y0158454D01*
X0042250Y0160053D02*
X0039480Y0160053D01*
X0041079Y0161651D02*
X0041615Y0161651D01*
X0046646Y0161651D02*
X0047606Y0161651D01*
X0047606Y0160053D02*
X0046646Y0160053D01*
X0046646Y0158454D02*
X0047606Y0158454D01*
X0051290Y0155257D02*
X0034685Y0155257D01*
X0033086Y0153659D02*
X0049692Y0153659D01*
X0048093Y0152060D02*
X0031488Y0152060D01*
X0029889Y0150462D02*
X0046495Y0150462D01*
X0044896Y0148863D02*
X0029550Y0148863D01*
X0029550Y0147265D02*
X0043298Y0147265D01*
X0041699Y0145666D02*
X0029550Y0145666D01*
X0029550Y0144068D02*
X0040101Y0144068D01*
X0038502Y0142469D02*
X0029550Y0142469D01*
X0029550Y0140870D02*
X0036904Y0140870D01*
X0035305Y0139272D02*
X0029550Y0139272D01*
X0029550Y0137673D02*
X0033707Y0137673D01*
X0032108Y0136075D02*
X0029550Y0136075D01*
X0029550Y0134476D02*
X0031208Y0134476D01*
X0031200Y0132878D02*
X0029550Y0132878D01*
X0029550Y0131279D02*
X0031200Y0131279D01*
X0031200Y0129681D02*
X0029550Y0129681D01*
X0029550Y0128082D02*
X0031200Y0128082D01*
X0031200Y0126484D02*
X0029550Y0126484D01*
X0029550Y0124885D02*
X0031200Y0124885D01*
X0031200Y0123287D02*
X0029550Y0123287D01*
X0029550Y0121688D02*
X0031200Y0121688D01*
X0031200Y0120090D02*
X0029550Y0120090D01*
X0029550Y0118491D02*
X0031200Y0118491D01*
X0031200Y0116893D02*
X0029550Y0116893D01*
X0029550Y0115294D02*
X0031200Y0115294D01*
X0031200Y0113696D02*
X0029550Y0113696D01*
X0029550Y0112097D02*
X0031200Y0112097D01*
X0031200Y0110499D02*
X0029550Y0110499D01*
X0029550Y0108900D02*
X0031200Y0108900D01*
X0031200Y0107302D02*
X0029550Y0107302D01*
X0029550Y0105703D02*
X0031200Y0105703D01*
X0031200Y0104105D02*
X0029550Y0104105D01*
X0029550Y0102506D02*
X0031200Y0102506D01*
X0031200Y0100908D02*
X0029550Y0100908D01*
X0029550Y0099309D02*
X0031200Y0099309D01*
X0031200Y0097711D02*
X0029550Y0097711D01*
X0029550Y0096112D02*
X0031200Y0096112D01*
X0031200Y0094514D02*
X0029550Y0094514D01*
X0029550Y0092915D02*
X0031200Y0092915D01*
X0050100Y0091900D02*
X0053933Y0091900D01*
X0053733Y0091700D01*
X0050100Y0091700D01*
X0050100Y0091900D01*
X0054075Y0094514D02*
X0056547Y0094514D01*
X0054800Y0093788D02*
X0052088Y0096500D01*
X0052195Y0096500D01*
X0055300Y0099605D01*
X0055300Y0103500D01*
X0139633Y0103500D01*
X0141952Y0101181D01*
X0142881Y0100252D01*
X0144094Y0099750D01*
X0211033Y0099750D01*
X0202633Y0091350D01*
X0198844Y0091350D01*
X0197631Y0090848D01*
X0193881Y0087098D01*
X0192952Y0086169D01*
X0192450Y0084956D01*
X0192450Y0083100D01*
X0191344Y0083100D01*
X0190131Y0082598D01*
X0184990Y0077457D01*
X0184933Y0077594D01*
X0183794Y0078733D01*
X0182306Y0079350D01*
X0180694Y0079350D01*
X0179268Y0078759D01*
X0178544Y0079483D01*
X0177056Y0080100D01*
X0175444Y0080100D01*
X0173956Y0079483D01*
X0172817Y0078344D01*
X0172200Y0076856D01*
X0172200Y0075244D01*
X0172662Y0074129D01*
X0165883Y0067350D01*
X0141928Y0067350D01*
X0141794Y0067483D01*
X0140306Y0068100D01*
X0138694Y0068100D01*
X0137206Y0067483D01*
X0136067Y0066344D01*
X0135450Y0064856D01*
X0135450Y0063600D01*
X0114617Y0063600D01*
X0087548Y0090669D01*
X0086619Y0091598D01*
X0085406Y0092100D01*
X0063467Y0092100D01*
X0065867Y0094500D01*
X0115633Y0094500D01*
X0130553Y0079580D01*
X0130067Y0079094D01*
X0129450Y0077606D01*
X0129450Y0075994D01*
X0130067Y0074506D01*
X0131206Y0073367D01*
X0132694Y0072750D01*
X0134306Y0072750D01*
X0135794Y0073367D01*
X0135928Y0073500D01*
X0162572Y0073500D01*
X0162706Y0073367D01*
X0164194Y0072750D01*
X0165806Y0072750D01*
X0167294Y0073367D01*
X0168433Y0074506D01*
X0169050Y0075994D01*
X0169050Y0077606D01*
X0168433Y0079094D01*
X0167294Y0080233D01*
X0165806Y0080850D01*
X0164194Y0080850D01*
X0162706Y0080233D01*
X0162572Y0080100D01*
X0152717Y0080100D01*
X0162617Y0090000D01*
X0176072Y0090000D01*
X0176206Y0089867D01*
X0177694Y0089250D01*
X0179306Y0089250D01*
X0180794Y0089867D01*
X0181933Y0091006D01*
X0182550Y0092494D01*
X0182550Y0094106D01*
X0181933Y0095594D01*
X0180794Y0096733D01*
X0179306Y0097350D01*
X0177694Y0097350D01*
X0176206Y0096733D01*
X0176072Y0096600D01*
X0160594Y0096600D01*
X0159381Y0096098D01*
X0158452Y0095169D01*
X0147883Y0084600D01*
X0136678Y0084600D01*
X0136544Y0084733D01*
X0135056Y0085350D01*
X0134117Y0085350D01*
X0118869Y0100598D01*
X0117656Y0101100D01*
X0063844Y0101100D01*
X0062631Y0100598D01*
X0061702Y0099669D01*
X0054800Y0092767D01*
X0054800Y0093788D01*
X0054800Y0092915D02*
X0054948Y0092915D01*
X0052476Y0096112D02*
X0058145Y0096112D01*
X0059744Y0097711D02*
X0053406Y0097711D01*
X0055005Y0099309D02*
X0061342Y0099309D01*
X0063379Y0100908D02*
X0055300Y0100908D01*
X0055300Y0102506D02*
X0140627Y0102506D01*
X0142225Y0100908D02*
X0118121Y0100908D01*
X0120158Y0099309D02*
X0210592Y0099309D01*
X0208994Y0097711D02*
X0121756Y0097711D01*
X0123355Y0096112D02*
X0159416Y0096112D01*
X0157797Y0094514D02*
X0124953Y0094514D01*
X0126552Y0092915D02*
X0156198Y0092915D01*
X0154600Y0091317D02*
X0128150Y0091317D01*
X0129749Y0089718D02*
X0153001Y0089718D01*
X0151403Y0088120D02*
X0131347Y0088120D01*
X0132946Y0086521D02*
X0149804Y0086521D01*
X0148206Y0084923D02*
X0136087Y0084923D01*
X0130006Y0080127D02*
X0098090Y0080127D01*
X0099688Y0078529D02*
X0129832Y0078529D01*
X0129450Y0076930D02*
X0101287Y0076930D01*
X0102885Y0075332D02*
X0129725Y0075332D01*
X0130839Y0073733D02*
X0104484Y0073733D01*
X0106082Y0072134D02*
X0170668Y0072134D01*
X0169069Y0070536D02*
X0107681Y0070536D01*
X0109279Y0068937D02*
X0167471Y0068937D01*
X0167661Y0073733D02*
X0172266Y0073733D01*
X0172200Y0075332D02*
X0168775Y0075332D01*
X0169050Y0076930D02*
X0172231Y0076930D01*
X0173001Y0078529D02*
X0168668Y0078529D01*
X0167400Y0080127D02*
X0187660Y0080127D01*
X0186062Y0078529D02*
X0183999Y0078529D01*
X0189259Y0081726D02*
X0154342Y0081726D01*
X0152744Y0080127D02*
X0162600Y0080127D01*
X0157539Y0084923D02*
X0192450Y0084923D01*
X0192450Y0083324D02*
X0155941Y0083324D01*
X0159138Y0086521D02*
X0193304Y0086521D01*
X0194903Y0088120D02*
X0160736Y0088120D01*
X0162335Y0089718D02*
X0176564Y0089718D01*
X0180436Y0089718D02*
X0196501Y0089718D01*
X0198763Y0091317D02*
X0182062Y0091317D01*
X0182550Y0092915D02*
X0204198Y0092915D01*
X0205797Y0094514D02*
X0182381Y0094514D01*
X0181415Y0096112D02*
X0207395Y0096112D01*
X0231300Y0124517D02*
X0231300Y0144956D01*
X0230798Y0146169D01*
X0229869Y0147098D01*
X0227550Y0149417D01*
X0227550Y0174750D01*
X0228806Y0174750D01*
X0230294Y0175367D01*
X0231433Y0176506D01*
X0232050Y0177994D01*
X0232050Y0178183D01*
X0238367Y0184500D01*
X0249883Y0184500D01*
X0259131Y0175252D01*
X0260344Y0174750D01*
X0267656Y0174750D01*
X0268869Y0175252D01*
X0269798Y0176181D01*
X0282617Y0189000D01*
X0292496Y0189000D01*
X0292456Y0188983D01*
X0291317Y0187844D01*
X0290700Y0186356D01*
X0290700Y0184744D01*
X0291317Y0183256D01*
X0292456Y0182117D01*
X0293944Y0181500D01*
X0295556Y0181500D01*
X0297044Y0182117D01*
X0297178Y0182250D01*
X0308424Y0182250D01*
X0307950Y0181106D01*
X0307950Y0179850D01*
X0306844Y0179850D01*
X0305631Y0179348D01*
X0304702Y0178419D01*
X0289633Y0163350D01*
X0263428Y0163350D01*
X0263294Y0163483D01*
X0261806Y0164100D01*
X0260194Y0164100D01*
X0258706Y0163483D01*
X0257567Y0162344D01*
X0256950Y0160856D01*
X0256950Y0159244D01*
X0257567Y0157756D01*
X0258706Y0156617D01*
X0260194Y0156000D01*
X0261806Y0156000D01*
X0263294Y0156617D01*
X0263428Y0156750D01*
X0291656Y0156750D01*
X0292869Y0157252D01*
X0302966Y0167350D01*
X0302700Y0166706D01*
X0302700Y0134267D01*
X0292050Y0144917D01*
X0292050Y0145106D01*
X0291433Y0146594D01*
X0290294Y0147733D01*
X0288806Y0148350D01*
X0287194Y0148350D01*
X0285706Y0147733D01*
X0285572Y0147600D01*
X0255094Y0147600D01*
X0253881Y0147098D01*
X0252952Y0146169D01*
X0231300Y0124517D01*
X0231300Y0124885D02*
X0231668Y0124885D01*
X0231300Y0126484D02*
X0233267Y0126484D01*
X0234866Y0128082D02*
X0231300Y0128082D01*
X0231300Y0129681D02*
X0236464Y0129681D01*
X0238063Y0131279D02*
X0231300Y0131279D01*
X0231300Y0132878D02*
X0239661Y0132878D01*
X0241260Y0134476D02*
X0231300Y0134476D01*
X0231300Y0136075D02*
X0242858Y0136075D01*
X0244457Y0137673D02*
X0231300Y0137673D01*
X0231300Y0139272D02*
X0246055Y0139272D01*
X0247654Y0140870D02*
X0231300Y0140870D01*
X0231300Y0142469D02*
X0249252Y0142469D01*
X0250851Y0144068D02*
X0231300Y0144068D01*
X0231006Y0145666D02*
X0252449Y0145666D01*
X0254284Y0147265D02*
X0229702Y0147265D01*
X0228104Y0148863D02*
X0302700Y0148863D01*
X0302700Y0147265D02*
X0290763Y0147265D01*
X0291818Y0145666D02*
X0302700Y0145666D01*
X0302700Y0144068D02*
X0292899Y0144068D01*
X0294498Y0142469D02*
X0302700Y0142469D01*
X0302700Y0140870D02*
X0296096Y0140870D01*
X0297695Y0139272D02*
X0302700Y0139272D01*
X0302700Y0137673D02*
X0299293Y0137673D01*
X0300892Y0136075D02*
X0302700Y0136075D01*
X0302700Y0134476D02*
X0302490Y0134476D01*
X0302700Y0150462D02*
X0227550Y0150462D01*
X0227550Y0152060D02*
X0302700Y0152060D01*
X0302700Y0153659D02*
X0227550Y0153659D01*
X0227550Y0155257D02*
X0302700Y0155257D01*
X0302700Y0156856D02*
X0291911Y0156856D01*
X0294071Y0158454D02*
X0302700Y0158454D01*
X0302700Y0160053D02*
X0295670Y0160053D01*
X0297268Y0161651D02*
X0302700Y0161651D01*
X0302700Y0163250D02*
X0298867Y0163250D01*
X0300465Y0164848D02*
X0302700Y0164848D01*
X0302700Y0166447D02*
X0302064Y0166447D01*
X0297525Y0171242D02*
X0292050Y0171242D01*
X0292050Y0170494D02*
X0292050Y0172106D01*
X0291433Y0173594D01*
X0290294Y0174733D01*
X0288806Y0175350D01*
X0287194Y0175350D01*
X0285706Y0174733D01*
X0285572Y0174600D01*
X0249178Y0174600D01*
X0249044Y0174733D01*
X0247556Y0175350D01*
X0245944Y0175350D01*
X0244456Y0174733D01*
X0243317Y0173594D01*
X0242700Y0172106D01*
X0242700Y0170494D01*
X0243317Y0169006D01*
X0244456Y0167867D01*
X0245944Y0167250D01*
X0247556Y0167250D01*
X0249044Y0167867D01*
X0249178Y0168000D01*
X0285572Y0168000D01*
X0285706Y0167867D01*
X0287194Y0167250D01*
X0288806Y0167250D01*
X0290294Y0167867D01*
X0291433Y0169006D01*
X0292050Y0170494D01*
X0291698Y0169644D02*
X0295927Y0169644D01*
X0294328Y0168045D02*
X0290473Y0168045D01*
X0292730Y0166447D02*
X0227550Y0166447D01*
X0227550Y0168045D02*
X0244277Y0168045D01*
X0243052Y0169644D02*
X0227550Y0169644D01*
X0227550Y0171242D02*
X0242700Y0171242D01*
X0243005Y0172841D02*
X0227550Y0172841D01*
X0227550Y0174439D02*
X0244162Y0174439D01*
X0251951Y0182432D02*
X0236299Y0182432D01*
X0237897Y0184030D02*
X0250353Y0184030D01*
X0253550Y0180833D02*
X0234700Y0180833D01*
X0233102Y0179235D02*
X0255148Y0179235D01*
X0256747Y0177636D02*
X0231902Y0177636D01*
X0230965Y0176038D02*
X0258345Y0176038D01*
X0269655Y0176038D02*
X0302321Y0176038D01*
X0303919Y0177636D02*
X0271253Y0177636D01*
X0272852Y0179235D02*
X0305518Y0179235D01*
X0307950Y0180833D02*
X0274450Y0180833D01*
X0276049Y0182432D02*
X0292141Y0182432D01*
X0290996Y0184030D02*
X0277647Y0184030D01*
X0279246Y0185629D02*
X0290700Y0185629D01*
X0291061Y0187227D02*
X0280844Y0187227D01*
X0282443Y0188826D02*
X0292298Y0188826D01*
X0290588Y0174439D02*
X0300722Y0174439D01*
X0299124Y0172841D02*
X0291745Y0172841D01*
X0291131Y0164848D02*
X0227550Y0164848D01*
X0227550Y0163250D02*
X0258472Y0163250D01*
X0257280Y0161651D02*
X0227550Y0161651D01*
X0227550Y0160053D02*
X0256950Y0160053D01*
X0257277Y0158454D02*
X0227550Y0158454D01*
X0227550Y0156856D02*
X0258467Y0156856D01*
X0345209Y0208008D02*
X0412400Y0208008D01*
X0412400Y0209606D02*
X0345973Y0209606D01*
X0347572Y0211205D02*
X0412400Y0211205D01*
X0412400Y0212803D02*
X0349170Y0212803D01*
X0350769Y0214402D02*
X0412400Y0214402D01*
X0412400Y0216001D02*
X0396678Y0216001D01*
X0399284Y0217599D02*
X0412400Y0217599D01*
X0412400Y0219198D02*
X0400416Y0219198D01*
X0401000Y0220796D02*
X0412400Y0220796D01*
X0412400Y0222395D02*
X0401000Y0222395D01*
X0400586Y0223993D02*
X0412400Y0223993D01*
X0412400Y0225592D02*
X0399694Y0225592D01*
X0398875Y0227190D02*
X0412400Y0227190D01*
X0412400Y0228789D02*
X0400247Y0228789D01*
X0400909Y0230387D02*
X0412400Y0230387D01*
X0412400Y0231986D02*
X0401000Y0231986D01*
X0400755Y0233584D02*
X0412400Y0233584D01*
X0412400Y0235183D02*
X0400093Y0235183D01*
X0400634Y0236781D02*
X0412400Y0236781D01*
X0412400Y0238380D02*
X0401000Y0238380D01*
X0401000Y0239978D02*
X0412400Y0239978D01*
X0412400Y0241577D02*
X0401000Y0241577D01*
X0401000Y0243175D02*
X0412400Y0243175D01*
X0412400Y0244774D02*
X0401000Y0244774D01*
X0401000Y0246372D02*
X0412400Y0246372D01*
X0412400Y0247971D02*
X0324252Y0247971D01*
X0324300Y0246372D02*
X0339000Y0246372D01*
X0339000Y0244774D02*
X0323691Y0244774D01*
X0321479Y0243175D02*
X0339000Y0243175D01*
X0339000Y0241577D02*
X0305044Y0241577D01*
X0304800Y0243175D02*
X0319021Y0243175D01*
X0323458Y0249569D02*
X0412400Y0249569D01*
X0412400Y0251168D02*
X0305049Y0251168D01*
X0303451Y0252766D02*
X0412400Y0252766D01*
X0412400Y0254365D02*
X0268227Y0254365D01*
X0264273Y0254365D02*
X0184977Y0254365D01*
X0181023Y0254365D02*
X0017600Y0254365D01*
X0017600Y0255963D02*
X0412400Y0255963D01*
X0412400Y0257562D02*
X0017600Y0257562D01*
X0017600Y0259160D02*
X0412400Y0259160D01*
X0412400Y0260759D02*
X0017600Y0260759D01*
X0017600Y0252766D02*
X0179431Y0252766D01*
X0178950Y0251168D02*
X0017600Y0251168D01*
X0017600Y0249569D02*
X0179126Y0249569D01*
X0180102Y0247971D02*
X0017600Y0247971D01*
X0017600Y0246372D02*
X0039000Y0246372D01*
X0039000Y0246453D02*
X0039000Y0237147D01*
X0040347Y0235800D01*
X0040515Y0235800D01*
X0039913Y0235199D01*
X0039000Y0232993D01*
X0039000Y0230607D01*
X0039913Y0228401D01*
X0041515Y0226800D01*
X0039913Y0225199D01*
X0039000Y0222993D01*
X0039000Y0220607D01*
X0039913Y0218401D01*
X0041601Y0216713D01*
X0043807Y0215800D01*
X0046193Y0215800D01*
X0048399Y0216713D01*
X0050087Y0218401D01*
X0051000Y0220607D01*
X0051000Y0222993D01*
X0050087Y0225199D01*
X0048485Y0226800D01*
X0050087Y0228401D01*
X0051000Y0230607D01*
X0051000Y0232993D01*
X0050087Y0235199D01*
X0049485Y0235800D01*
X0049653Y0235800D01*
X0051000Y0237147D01*
X0051000Y0246453D01*
X0049653Y0247800D01*
X0040347Y0247800D01*
X0039000Y0246453D01*
X0039000Y0244774D02*
X0017600Y0244774D01*
X0017600Y0243175D02*
X0039000Y0243175D01*
X0039000Y0241577D02*
X0017600Y0241577D01*
X0017600Y0239978D02*
X0039000Y0239978D01*
X0039000Y0238380D02*
X0017600Y0238380D01*
X0017600Y0236781D02*
X0039366Y0236781D01*
X0039907Y0235183D02*
X0017600Y0235183D01*
X0017600Y0233584D02*
X0039245Y0233584D01*
X0039000Y0231986D02*
X0017600Y0231986D01*
X0017600Y0230387D02*
X0039091Y0230387D01*
X0039753Y0228789D02*
X0017600Y0228789D01*
X0017600Y0227190D02*
X0041125Y0227190D01*
X0040306Y0225592D02*
X0017600Y0225592D01*
X0017600Y0223993D02*
X0039414Y0223993D01*
X0039000Y0222395D02*
X0017600Y0222395D01*
X0017600Y0220796D02*
X0039000Y0220796D01*
X0039584Y0219198D02*
X0017600Y0219198D01*
X0017600Y0217599D02*
X0040716Y0217599D01*
X0043322Y0216001D02*
X0017600Y0216001D01*
X0017600Y0214402D02*
X0110435Y0214402D01*
X0108837Y0212803D02*
X0017600Y0212803D01*
X0017600Y0211205D02*
X0107238Y0211205D01*
X0105640Y0209606D02*
X0017600Y0209606D01*
X0017600Y0208008D02*
X0104041Y0208008D01*
X0102443Y0206409D02*
X0017600Y0206409D01*
X0017600Y0204811D02*
X0100844Y0204811D01*
X0099246Y0203212D02*
X0017600Y0203212D01*
X0017600Y0201614D02*
X0097647Y0201614D01*
X0096049Y0200015D02*
X0017600Y0200015D01*
X0017600Y0198417D02*
X0094450Y0198417D01*
X0092851Y0196818D02*
X0017600Y0196818D01*
X0017600Y0195220D02*
X0091253Y0195220D01*
X0089654Y0193621D02*
X0017600Y0193621D01*
X0017600Y0192023D02*
X0088056Y0192023D01*
X0086457Y0190424D02*
X0017600Y0190424D01*
X0017600Y0188826D02*
X0084859Y0188826D01*
X0093322Y0216001D02*
X0046678Y0216001D01*
X0049284Y0217599D02*
X0090716Y0217599D01*
X0089584Y0219198D02*
X0050416Y0219198D01*
X0051000Y0220796D02*
X0089000Y0220796D01*
X0089000Y0222395D02*
X0051000Y0222395D01*
X0050586Y0223993D02*
X0089414Y0223993D01*
X0090306Y0225592D02*
X0049694Y0225592D01*
X0048875Y0227190D02*
X0091125Y0227190D01*
X0089753Y0228789D02*
X0050247Y0228789D01*
X0050909Y0230387D02*
X0089091Y0230387D01*
X0089000Y0231986D02*
X0051000Y0231986D01*
X0050755Y0233584D02*
X0089245Y0233584D01*
X0089907Y0235183D02*
X0050093Y0235183D01*
X0050634Y0236781D02*
X0089366Y0236781D01*
X0089000Y0238380D02*
X0051000Y0238380D01*
X0051000Y0239978D02*
X0089000Y0239978D01*
X0089000Y0241577D02*
X0051000Y0241577D01*
X0051000Y0243175D02*
X0089000Y0243175D01*
X0089000Y0244774D02*
X0051000Y0244774D01*
X0051000Y0246372D02*
X0089000Y0246372D01*
X0101000Y0246372D02*
X0139000Y0246372D01*
X0139000Y0244774D02*
X0101000Y0244774D01*
X0101000Y0243175D02*
X0139000Y0243175D01*
X0139000Y0241577D02*
X0101000Y0241577D01*
X0101000Y0239978D02*
X0139000Y0239978D01*
X0139000Y0238380D02*
X0101000Y0238380D01*
X0100634Y0236781D02*
X0139366Y0236781D01*
X0150634Y0236781D02*
X0189366Y0236781D01*
X0189000Y0238380D02*
X0151000Y0238380D01*
X0151000Y0239978D02*
X0189000Y0239978D01*
X0189000Y0241577D02*
X0151000Y0241577D01*
X0151000Y0243175D02*
X0189000Y0243175D01*
X0189000Y0244774D02*
X0151000Y0244774D01*
X0151000Y0246372D02*
X0189000Y0246372D01*
X0141125Y0227190D02*
X0098875Y0227190D01*
X0099694Y0225592D02*
X0140306Y0225592D01*
X0120026Y0223993D02*
X0100586Y0223993D01*
X0101000Y0222395D02*
X0118428Y0222395D01*
X0116829Y0220796D02*
X0101000Y0220796D01*
X0100416Y0219198D02*
X0115231Y0219198D01*
X0113632Y0217599D02*
X0099284Y0217599D01*
X0096678Y0216001D02*
X0112034Y0216001D01*
X0036582Y0185629D02*
X0035623Y0185629D01*
X0035623Y0184030D02*
X0036582Y0184030D01*
X0036582Y0182432D02*
X0035623Y0182432D01*
X0035623Y0180833D02*
X0036582Y0180833D01*
X0036582Y0179235D02*
X0035623Y0179235D01*
X0035623Y0177636D02*
X0036582Y0177636D01*
X0047606Y0163250D02*
X0059283Y0163250D01*
X0064282Y0092915D02*
X0117218Y0092915D01*
X0118816Y0091317D02*
X0086900Y0091317D01*
X0088499Y0089718D02*
X0120415Y0089718D01*
X0122013Y0088120D02*
X0090097Y0088120D01*
X0091696Y0086521D02*
X0123612Y0086521D01*
X0125211Y0084923D02*
X0093294Y0084923D01*
X0094893Y0083324D02*
X0126809Y0083324D01*
X0128408Y0081726D02*
X0096491Y0081726D01*
X0110878Y0067339D02*
X0137061Y0067339D01*
X0135817Y0065740D02*
X0112476Y0065740D01*
X0114075Y0064142D02*
X0135450Y0064142D01*
X0141143Y0032172D02*
X0098857Y0032172D01*
X0099712Y0030573D02*
X0140288Y0030573D01*
X0139406Y0028975D02*
X0100594Y0028975D01*
X0101000Y0027376D02*
X0139000Y0027376D01*
X0139000Y0025778D02*
X0101000Y0025778D01*
X0100409Y0024179D02*
X0113678Y0024179D01*
X0111957Y0022581D02*
X0099266Y0022581D01*
X0096633Y0020982D02*
X0111450Y0020982D01*
X0117322Y0024179D02*
X0139591Y0024179D01*
X0093367Y0020982D02*
X0046633Y0020982D01*
X0049266Y0022581D02*
X0090734Y0022581D01*
X0089591Y0024179D02*
X0050409Y0024179D01*
X0051000Y0025778D02*
X0089000Y0025778D01*
X0089000Y0027376D02*
X0051000Y0027376D01*
X0050594Y0028975D02*
X0089406Y0028975D01*
X0090288Y0030573D02*
X0049712Y0030573D01*
X0048857Y0032172D02*
X0091143Y0032172D01*
X0199152Y0017785D02*
X0249348Y0017785D01*
X0247749Y0019384D02*
X0200751Y0019384D01*
X0202349Y0020982D02*
X0243367Y0020982D01*
X0240734Y0022581D02*
X0203948Y0022581D01*
X0205546Y0024179D02*
X0239591Y0024179D01*
X0239000Y0025778D02*
X0207145Y0025778D01*
X0208743Y0027376D02*
X0239000Y0027376D01*
X0239406Y0028975D02*
X0211402Y0028975D01*
X0212376Y0030573D02*
X0240288Y0030573D01*
X0241143Y0032172D02*
X0212550Y0032172D01*
X0287387Y0080100D02*
X0287550Y0080494D01*
X0287550Y0082106D01*
X0286933Y0083594D01*
X0285794Y0084733D01*
X0284306Y0085350D01*
X0282694Y0085350D01*
X0281206Y0084733D01*
X0281072Y0084600D01*
X0264617Y0084600D01*
X0258467Y0090750D01*
X0306572Y0090750D01*
X0306706Y0090617D01*
X0308194Y0090000D01*
X0309806Y0090000D01*
X0311294Y0090617D01*
X0312433Y0091756D01*
X0313050Y0093244D01*
X0313050Y0094500D01*
X0317383Y0094500D01*
X0317452Y0094431D01*
X0318381Y0093502D01*
X0319594Y0093000D01*
X0358406Y0093000D01*
X0359619Y0093502D01*
X0362117Y0096000D01*
X0362306Y0096000D01*
X0363794Y0096617D01*
X0364933Y0097756D01*
X0365550Y0099244D01*
X0365550Y0100500D01*
X0374700Y0100500D01*
X0374700Y0099605D01*
X0377505Y0096800D01*
X0374700Y0093995D01*
X0374700Y0089605D01*
X0377805Y0086500D01*
X0382195Y0086500D01*
X0385300Y0089605D01*
X0385300Y0089712D01*
X0388012Y0087000D01*
X0389900Y0087000D01*
X0389900Y0091700D01*
X0390100Y0091700D01*
X0390100Y0091900D01*
X0394800Y0091900D01*
X0394800Y0093788D01*
X0392088Y0096500D01*
X0392195Y0096500D01*
X0395300Y0099605D01*
X0395300Y0102933D01*
X0397950Y0105583D01*
X0397950Y0070667D01*
X0395740Y0068457D01*
X0395683Y0068594D01*
X0394544Y0069733D01*
X0393056Y0070350D01*
X0392867Y0070350D01*
X0388298Y0074919D01*
X0387369Y0075848D01*
X0386156Y0076350D01*
X0323867Y0076350D01*
X0321548Y0078669D01*
X0320619Y0079598D01*
X0319406Y0080100D01*
X0287387Y0080100D01*
X0287398Y0080127D02*
X0397950Y0080127D01*
X0397950Y0078529D02*
X0321688Y0078529D01*
X0323287Y0076930D02*
X0397950Y0076930D01*
X0397950Y0075332D02*
X0387885Y0075332D01*
X0389484Y0073733D02*
X0397950Y0073733D01*
X0397950Y0072134D02*
X0391082Y0072134D01*
X0392681Y0070536D02*
X0397819Y0070536D01*
X0396221Y0068937D02*
X0395340Y0068937D01*
X0403660Y0062543D02*
X0412400Y0062543D01*
X0412400Y0060945D02*
X0402062Y0060945D01*
X0400463Y0059346D02*
X0412400Y0059346D01*
X0412400Y0057748D02*
X0398865Y0057748D01*
X0397266Y0056149D02*
X0412400Y0056149D01*
X0412400Y0054551D02*
X0395668Y0054551D01*
X0394069Y0052952D02*
X0412400Y0052952D01*
X0412400Y0051354D02*
X0401000Y0051354D01*
X0401000Y0049755D02*
X0412400Y0049755D01*
X0412400Y0048157D02*
X0401000Y0048157D01*
X0401000Y0046558D02*
X0412400Y0046558D01*
X0412400Y0044960D02*
X0401000Y0044960D01*
X0401000Y0043361D02*
X0412400Y0043361D01*
X0412400Y0041763D02*
X0400615Y0041763D01*
X0400101Y0040164D02*
X0412400Y0040164D01*
X0412400Y0038566D02*
X0400763Y0038566D01*
X0401000Y0036967D02*
X0412400Y0036967D01*
X0412400Y0035369D02*
X0400901Y0035369D01*
X0400239Y0033770D02*
X0412400Y0033770D01*
X0412400Y0032172D02*
X0398857Y0032172D01*
X0399712Y0030573D02*
X0412400Y0030573D01*
X0412400Y0028975D02*
X0400594Y0028975D01*
X0401000Y0027376D02*
X0412400Y0027376D01*
X0412400Y0025778D02*
X0401000Y0025778D01*
X0400409Y0024179D02*
X0412400Y0024179D01*
X0412400Y0022581D02*
X0399266Y0022581D01*
X0396633Y0020982D02*
X0412400Y0020982D01*
X0412400Y0019384D02*
X0368001Y0019384D01*
X0369599Y0020982D02*
X0393367Y0020982D01*
X0390734Y0022581D02*
X0371198Y0022581D01*
X0372796Y0024179D02*
X0389591Y0024179D01*
X0389000Y0025778D02*
X0374395Y0025778D01*
X0375993Y0027376D02*
X0389000Y0027376D01*
X0389406Y0028975D02*
X0383902Y0028975D01*
X0384876Y0030573D02*
X0390288Y0030573D01*
X0391143Y0032172D02*
X0385050Y0032172D01*
X0366402Y0017785D02*
X0412400Y0017785D01*
X0412400Y0016187D02*
X0364803Y0016187D01*
X0362973Y0014588D02*
X0412400Y0014588D01*
X0412400Y0012990D02*
X0355048Y0012990D01*
X0354319Y0011391D02*
X0412400Y0011391D01*
X0412400Y0064142D02*
X0405259Y0064142D01*
X0406857Y0065740D02*
X0412400Y0065740D01*
X0412400Y0067339D02*
X0408456Y0067339D01*
X0409611Y0068937D02*
X0412400Y0068937D01*
X0412400Y0070536D02*
X0409800Y0070536D01*
X0409800Y0072134D02*
X0412400Y0072134D01*
X0412400Y0073733D02*
X0409800Y0073733D01*
X0409800Y0075332D02*
X0412400Y0075332D01*
X0412400Y0076930D02*
X0409800Y0076930D01*
X0409800Y0078529D02*
X0412400Y0078529D01*
X0412400Y0080127D02*
X0409800Y0080127D01*
X0409800Y0081726D02*
X0412400Y0081726D01*
X0412400Y0083324D02*
X0409800Y0083324D01*
X0409800Y0084923D02*
X0412400Y0084923D01*
X0412400Y0086521D02*
X0409800Y0086521D01*
X0409800Y0088120D02*
X0412400Y0088120D01*
X0412400Y0089718D02*
X0409800Y0089718D01*
X0409800Y0091317D02*
X0412400Y0091317D01*
X0412400Y0092915D02*
X0409800Y0092915D01*
X0409800Y0094514D02*
X0412400Y0094514D01*
X0412400Y0096112D02*
X0409800Y0096112D01*
X0409800Y0097711D02*
X0412400Y0097711D01*
X0412400Y0099309D02*
X0409800Y0099309D01*
X0409800Y0100908D02*
X0412400Y0100908D01*
X0412400Y0102506D02*
X0409800Y0102506D01*
X0409800Y0104105D02*
X0412400Y0104105D01*
X0412400Y0105703D02*
X0409800Y0105703D01*
X0409800Y0107302D02*
X0412400Y0107302D01*
X0412400Y0108900D02*
X0409800Y0108900D01*
X0409800Y0110499D02*
X0412400Y0110499D01*
X0412400Y0112097D02*
X0409800Y0112097D01*
X0409800Y0113696D02*
X0412400Y0113696D01*
X0412400Y0115294D02*
X0409800Y0115294D01*
X0409800Y0116893D02*
X0412400Y0116893D01*
X0412400Y0118491D02*
X0409800Y0118491D01*
X0409800Y0120090D02*
X0412400Y0120090D01*
X0412400Y0121688D02*
X0409800Y0121688D01*
X0409800Y0123287D02*
X0412400Y0123287D01*
X0412400Y0124885D02*
X0409800Y0124885D01*
X0409800Y0126484D02*
X0412400Y0126484D01*
X0412400Y0128082D02*
X0409800Y0128082D01*
X0409800Y0129681D02*
X0412400Y0129681D01*
X0412400Y0131279D02*
X0409800Y0131279D01*
X0409800Y0132878D02*
X0412400Y0132878D01*
X0412400Y0134476D02*
X0409800Y0134476D01*
X0409800Y0136075D02*
X0412400Y0136075D01*
X0412400Y0137673D02*
X0409399Y0137673D01*
X0407945Y0139272D02*
X0412400Y0139272D01*
X0412400Y0140870D02*
X0406346Y0140870D01*
X0404748Y0142469D02*
X0412400Y0142469D01*
X0412400Y0144068D02*
X0403149Y0144068D01*
X0401551Y0145666D02*
X0412400Y0145666D01*
X0412400Y0147265D02*
X0399952Y0147265D01*
X0398354Y0148863D02*
X0412400Y0148863D01*
X0412400Y0150462D02*
X0396755Y0150462D01*
X0395157Y0152060D02*
X0412400Y0152060D01*
X0412400Y0153659D02*
X0393558Y0153659D01*
X0391960Y0155257D02*
X0412400Y0155257D01*
X0412400Y0156856D02*
X0390361Y0156856D01*
X0388763Y0158454D02*
X0412400Y0158454D01*
X0412400Y0160053D02*
X0387164Y0160053D01*
X0385566Y0161651D02*
X0412400Y0161651D01*
X0412400Y0163250D02*
X0383967Y0163250D01*
X0382369Y0164848D02*
X0412400Y0164848D01*
X0412400Y0166447D02*
X0380770Y0166447D01*
X0379172Y0168045D02*
X0412400Y0168045D01*
X0412400Y0169644D02*
X0377573Y0169644D01*
X0378420Y0171242D02*
X0412400Y0171242D01*
X0412400Y0172841D02*
X0379050Y0172841D01*
X0379015Y0174439D02*
X0412400Y0174439D01*
X0412400Y0176038D02*
X0378240Y0176038D01*
X0375581Y0177636D02*
X0412400Y0177636D01*
X0412400Y0179235D02*
X0373982Y0179235D01*
X0372384Y0180833D02*
X0412400Y0180833D01*
X0412400Y0182432D02*
X0370785Y0182432D01*
X0369187Y0184030D02*
X0392593Y0184030D01*
X0393389Y0183701D02*
X0396611Y0183701D01*
X0399588Y0184934D01*
X0401866Y0187212D01*
X0403099Y0190189D01*
X0403099Y0193411D01*
X0401866Y0196388D01*
X0399588Y0198666D01*
X0396611Y0199899D01*
X0393389Y0199899D01*
X0390412Y0198666D01*
X0388134Y0196388D01*
X0386901Y0193411D01*
X0386901Y0190189D01*
X0388134Y0187212D01*
X0390412Y0184934D01*
X0393389Y0183701D01*
X0397407Y0184030D02*
X0412400Y0184030D01*
X0412400Y0185629D02*
X0400283Y0185629D01*
X0401872Y0187227D02*
X0412400Y0187227D01*
X0412400Y0188826D02*
X0402535Y0188826D01*
X0403099Y0190424D02*
X0412400Y0190424D01*
X0412400Y0192023D02*
X0403099Y0192023D01*
X0403012Y0193621D02*
X0412400Y0193621D01*
X0412400Y0195220D02*
X0402350Y0195220D01*
X0401436Y0196818D02*
X0412400Y0196818D01*
X0412400Y0198417D02*
X0399837Y0198417D01*
X0390163Y0198417D02*
X0354800Y0198417D01*
X0353201Y0200015D02*
X0412400Y0200015D01*
X0412400Y0201614D02*
X0351603Y0201614D01*
X0350004Y0203212D02*
X0412400Y0203212D01*
X0412400Y0204811D02*
X0348406Y0204811D01*
X0346807Y0206409D02*
X0412400Y0206409D01*
X0393322Y0216001D02*
X0352367Y0216001D01*
X0353966Y0217599D02*
X0390716Y0217599D01*
X0389366Y0236781D02*
X0350634Y0236781D01*
X0351000Y0238380D02*
X0389000Y0238380D01*
X0389000Y0239978D02*
X0351000Y0239978D01*
X0351000Y0241577D02*
X0389000Y0241577D01*
X0389000Y0243175D02*
X0351000Y0243175D01*
X0351000Y0244774D02*
X0389000Y0244774D01*
X0389000Y0246372D02*
X0351000Y0246372D01*
X0339000Y0239978D02*
X0305550Y0239978D01*
X0305399Y0238380D02*
X0339000Y0238380D01*
X0339366Y0236781D02*
X0304459Y0236781D01*
X0262681Y0252766D02*
X0254701Y0252766D01*
X0256299Y0251168D02*
X0262200Y0251168D01*
X0356398Y0196818D02*
X0388564Y0196818D01*
X0387650Y0195220D02*
X0357997Y0195220D01*
X0359596Y0193621D02*
X0386988Y0193621D01*
X0386901Y0192023D02*
X0361194Y0192023D01*
X0362793Y0190424D02*
X0386901Y0190424D01*
X0387465Y0188826D02*
X0364391Y0188826D01*
X0365990Y0187227D02*
X0388128Y0187227D01*
X0389717Y0185629D02*
X0367588Y0185629D01*
X0396472Y0104105D02*
X0397950Y0104105D01*
X0397950Y0102506D02*
X0395300Y0102506D01*
X0395300Y0100908D02*
X0397950Y0100908D01*
X0397950Y0099309D02*
X0395005Y0099309D01*
X0393406Y0097711D02*
X0397950Y0097711D01*
X0397950Y0096112D02*
X0392476Y0096112D01*
X0394075Y0094514D02*
X0397950Y0094514D01*
X0397950Y0092915D02*
X0394800Y0092915D01*
X0394800Y0091700D02*
X0390100Y0091700D01*
X0390100Y0087000D01*
X0391988Y0087000D01*
X0394800Y0089812D01*
X0394800Y0091700D01*
X0394800Y0091317D02*
X0397950Y0091317D01*
X0397950Y0089718D02*
X0394706Y0089718D01*
X0393108Y0088120D02*
X0397950Y0088120D01*
X0397950Y0086521D02*
X0382216Y0086521D01*
X0383815Y0088120D02*
X0386892Y0088120D01*
X0389900Y0088120D02*
X0390100Y0088120D01*
X0390100Y0089718D02*
X0389900Y0089718D01*
X0389900Y0091317D02*
X0390100Y0091317D01*
X0397950Y0084923D02*
X0285337Y0084923D01*
X0287045Y0083324D02*
X0397950Y0083324D01*
X0397950Y0081726D02*
X0287550Y0081726D01*
X0281663Y0084923D02*
X0264294Y0084923D01*
X0262696Y0086521D02*
X0377784Y0086521D01*
X0376185Y0088120D02*
X0261097Y0088120D01*
X0259499Y0089718D02*
X0374700Y0089718D01*
X0374700Y0091317D02*
X0311994Y0091317D01*
X0312914Y0092915D02*
X0374700Y0092915D01*
X0375218Y0094514D02*
X0360631Y0094514D01*
X0362576Y0096112D02*
X0376817Y0096112D01*
X0376594Y0097711D02*
X0364888Y0097711D01*
X0365550Y0099309D02*
X0374995Y0099309D01*
D18*
X0378000Y0103800D02*
X0380000Y0101800D01*
X0378000Y0103800D02*
X0328500Y0103800D01*
X0288000Y0144300D01*
X0255750Y0144300D01*
X0214500Y0103050D01*
X0144750Y0103050D01*
X0141000Y0106800D01*
X0047250Y0106800D01*
X0042750Y0102300D01*
X0040500Y0102300D01*
X0040000Y0101800D01*
X0034500Y0089550D02*
X0038250Y0085800D01*
X0052500Y0085800D01*
X0064500Y0097800D01*
X0117000Y0097800D01*
X0133500Y0081300D01*
X0134250Y0081300D01*
X0149250Y0081300D01*
X0161250Y0093300D01*
X0178500Y0093300D01*
X0195750Y0084300D02*
X0195750Y0079800D01*
X0192000Y0079800D01*
X0168750Y0056550D01*
X0112500Y0056550D01*
X0083250Y0085800D01*
X0061500Y0085800D01*
X0055500Y0079800D01*
X0033750Y0079800D01*
X0036750Y0082800D02*
X0030750Y0088800D01*
X0034500Y0089550D02*
X0034500Y0133800D01*
X0122250Y0221550D01*
X0144750Y0221550D01*
X0145000Y0221800D01*
X0158250Y0226800D02*
X0171000Y0214050D01*
X0198750Y0214050D01*
X0203250Y0210300D02*
X0120750Y0210300D01*
X0045000Y0134550D01*
X0045000Y0119550D01*
X0049500Y0115050D01*
X0049500Y0112050D01*
X0050000Y0111800D01*
X0062250Y0119550D02*
X0050000Y0131800D01*
X0062250Y0119550D02*
X0079500Y0119550D01*
X0082500Y0116550D01*
X0087000Y0116550D01*
X0084000Y0113550D02*
X0079500Y0113550D01*
X0076500Y0110550D02*
X0077250Y0109800D01*
X0129000Y0109800D01*
X0149250Y0130050D01*
X0195000Y0130050D01*
X0204750Y0120300D01*
X0216750Y0120300D01*
X0216000Y0113550D02*
X0225000Y0122550D01*
X0225000Y0142800D01*
X0221250Y0146550D01*
X0221250Y0184800D01*
X0244500Y0208050D01*
X0244500Y0221550D01*
X0245000Y0221800D01*
X0229500Y0215550D02*
X0221250Y0215550D01*
X0195000Y0241800D01*
X0183000Y0250800D02*
X0252000Y0250800D01*
X0256500Y0246300D01*
X0264750Y0246300D01*
X0266250Y0250800D02*
X0300750Y0250800D01*
X0304500Y0247050D01*
X0320250Y0247050D01*
X0301500Y0245550D02*
X0301500Y0239550D01*
X0301500Y0245550D02*
X0299250Y0247800D01*
X0290250Y0247800D01*
X0285000Y0242550D01*
X0285000Y0232050D01*
X0276000Y0223050D01*
X0264000Y0223050D01*
X0245250Y0241800D01*
X0245000Y0241800D01*
X0240750Y0247800D02*
X0249750Y0247800D01*
X0270750Y0226800D01*
X0252000Y0211050D02*
X0224250Y0183300D01*
X0224250Y0148050D01*
X0228000Y0144300D01*
X0228000Y0121050D01*
X0216750Y0109800D01*
X0195750Y0109800D01*
X0182250Y0123300D01*
X0181500Y0123300D01*
X0158250Y0123300D01*
X0147750Y0122550D02*
X0144750Y0119550D01*
X0144750Y0109050D01*
X0147000Y0106800D01*
X0149250Y0112050D02*
X0180750Y0112050D01*
X0181500Y0117300D02*
X0148500Y0117300D01*
X0128250Y0133050D02*
X0196500Y0133050D01*
X0206250Y0123300D01*
X0211500Y0123300D01*
X0212250Y0124050D01*
X0208500Y0127050D02*
X0208500Y0137550D01*
X0207000Y0139050D01*
X0195750Y0139050D01*
X0185250Y0149550D01*
X0135750Y0149550D01*
X0133500Y0153300D02*
X0184500Y0153300D01*
X0192750Y0161550D01*
X0211500Y0161550D01*
X0195000Y0157800D02*
X0195000Y0148800D01*
X0193500Y0147300D01*
X0204000Y0136050D02*
X0204750Y0135300D01*
X0204000Y0136050D02*
X0126750Y0136050D01*
X0123000Y0132300D01*
X0084750Y0132300D01*
X0075750Y0123300D01*
X0067500Y0123300D01*
X0067500Y0129300D02*
X0077250Y0129300D01*
X0083250Y0135300D01*
X0115500Y0135300D01*
X0133500Y0153300D01*
X0132000Y0139800D02*
X0168750Y0139800D01*
X0200250Y0113550D02*
X0216000Y0113550D01*
X0222750Y0106800D02*
X0204000Y0088050D01*
X0199500Y0088050D01*
X0195750Y0084300D01*
X0199500Y0083550D02*
X0199500Y0077550D01*
X0168750Y0046800D01*
X0145000Y0046800D01*
X0139500Y0064050D02*
X0167250Y0064050D01*
X0176250Y0073050D01*
X0176250Y0076050D01*
X0181500Y0075300D02*
X0181500Y0073800D01*
X0168000Y0060300D01*
X0113250Y0060300D01*
X0084750Y0088800D01*
X0060000Y0088800D01*
X0054000Y0082800D01*
X0036750Y0082800D01*
X0045000Y0046800D02*
X0080250Y0082050D01*
X0076500Y0110550D02*
X0073500Y0110550D01*
X0084000Y0113550D02*
X0084750Y0112800D01*
X0108000Y0112800D01*
X0128250Y0133050D01*
X0103500Y0139050D02*
X0143250Y0178800D01*
X0198750Y0178800D01*
X0228000Y0178800D02*
X0237000Y0187800D01*
X0251250Y0187800D01*
X0261000Y0178050D01*
X0267000Y0178050D01*
X0281250Y0192300D01*
X0332250Y0192300D01*
X0332250Y0199050D02*
X0339000Y0199050D01*
X0401250Y0136800D01*
X0401250Y0069300D01*
X0377250Y0045300D01*
X0370500Y0045300D01*
X0378000Y0041550D02*
X0360750Y0041550D01*
X0349500Y0052800D01*
X0340500Y0052800D01*
X0338250Y0050550D01*
X0338250Y0049800D01*
X0316500Y0049800D02*
X0303750Y0049800D01*
X0295000Y0046800D02*
X0294750Y0046800D01*
X0318750Y0070800D01*
X0322500Y0073050D02*
X0318750Y0076800D01*
X0250500Y0076800D01*
X0241500Y0076800D01*
X0234750Y0083550D01*
X0236250Y0077550D02*
X0221250Y0077550D01*
X0220500Y0081300D02*
X0203250Y0081300D01*
X0199500Y0083550D02*
X0201000Y0085050D01*
X0205500Y0085050D01*
X0223500Y0103050D01*
X0312000Y0103050D01*
X0314250Y0106800D02*
X0222750Y0106800D01*
X0232500Y0097800D02*
X0318750Y0097800D01*
X0320250Y0096300D01*
X0357750Y0096300D01*
X0361500Y0100050D01*
X0355500Y0100050D02*
X0321000Y0100050D01*
X0314250Y0106800D01*
X0309000Y0094050D02*
X0233250Y0094050D01*
X0220500Y0081300D01*
X0219750Y0085050D02*
X0232500Y0097800D01*
X0219750Y0085050D02*
X0217500Y0085050D01*
X0236250Y0077550D02*
X0240750Y0073050D01*
X0298500Y0073050D01*
X0283500Y0081300D02*
X0263250Y0081300D01*
X0256500Y0088050D01*
X0252750Y0088050D01*
X0234750Y0117300D02*
X0282000Y0117300D01*
X0284250Y0121050D02*
X0287250Y0118050D01*
X0297000Y0118050D01*
X0284250Y0121050D02*
X0238500Y0121050D01*
X0261000Y0160050D02*
X0291000Y0160050D01*
X0307500Y0176550D01*
X0316500Y0176550D01*
X0321750Y0171300D01*
X0321750Y0133050D01*
X0339750Y0133050D01*
X0346500Y0139800D01*
X0393750Y0139800D01*
X0398250Y0135300D01*
X0398250Y0110550D01*
X0390000Y0102300D01*
X0390000Y0101800D01*
X0380000Y0111800D02*
X0379500Y0111300D01*
X0366750Y0111300D01*
X0371250Y0115050D02*
X0372750Y0115050D01*
X0379500Y0121800D01*
X0380000Y0121800D01*
X0390000Y0121800D02*
X0390000Y0124050D01*
X0395250Y0129300D01*
X0395250Y0133800D01*
X0392250Y0136800D01*
X0348000Y0136800D01*
X0327750Y0116550D01*
X0332250Y0115050D02*
X0342000Y0124800D01*
X0330000Y0136800D02*
X0330000Y0167550D01*
X0317250Y0180300D01*
X0312000Y0180300D01*
X0314250Y0172800D02*
X0314250Y0130050D01*
X0320250Y0124050D01*
X0306000Y0132300D02*
X0330750Y0107550D01*
X0306000Y0132300D02*
X0306000Y0166050D01*
X0307500Y0167550D01*
X0307500Y0170550D01*
X0309750Y0163800D02*
X0309750Y0136800D01*
X0334500Y0153300D02*
X0336000Y0153300D01*
X0354000Y0171300D01*
X0375000Y0173550D02*
X0341250Y0207300D01*
X0318000Y0207300D01*
X0315000Y0204300D01*
X0295500Y0204300D01*
X0320250Y0203550D02*
X0339000Y0203550D01*
X0406500Y0136050D01*
X0406500Y0070050D01*
X0378000Y0041550D01*
X0375750Y0031800D02*
X0381000Y0031800D01*
X0375750Y0031800D02*
X0361500Y0017550D01*
X0338250Y0017550D01*
X0351000Y0013800D02*
X0262500Y0013800D01*
X0259500Y0016800D01*
X0251250Y0020550D02*
X0245000Y0026800D01*
X0251250Y0020550D02*
X0297000Y0020550D01*
X0307500Y0031050D01*
X0293250Y0053550D02*
X0201750Y0053550D01*
X0195000Y0046800D01*
X0208500Y0031800D02*
X0197250Y0020550D01*
X0115500Y0020550D01*
X0133500Y0076800D02*
X0165000Y0076800D01*
X0246750Y0171300D02*
X0288000Y0171300D01*
X0294750Y0185550D02*
X0346500Y0185550D01*
X0388500Y0143550D01*
X0342750Y0211050D02*
X0252000Y0211050D01*
X0246000Y0199050D02*
X0261750Y0183300D01*
X0222750Y0229800D02*
X0240750Y0247800D01*
X0342750Y0211050D02*
X0353250Y0221550D01*
X0394500Y0221550D01*
X0395000Y0221800D01*
X0385500Y0073050D02*
X0322500Y0073050D01*
X0385500Y0073050D02*
X0392250Y0066300D01*
M02*
