G75*
%MOIN*%
%OFA0B0*%
%FSLAX25Y25*%
%IPPOS*%
%LPD*%
%AMOC8*
5,1,8,0,0,1.08239X$1,22.5*
%
%ADD10C,0.13000*%
%ADD11OC8,0.06000*%
%ADD12OC8,0.05600*%
%ADD13R,0.07400X0.07400*%
%ADD14C,0.07400*%
%ADD15C,0.07677*%
%ADD16C,0.03500*%
%ADD17C,0.03500*%
%ADD18C,0.02400*%
%ADD19C,0.02000*%
D10*
X0122200Y0241000D03*
D11*
X0037200Y0211000D03*
X0037200Y0201000D03*
X0037200Y0191000D03*
X0037200Y0181000D03*
X0027200Y0181000D03*
X0027200Y0191000D03*
X0027200Y0201000D03*
X0027200Y0211000D03*
X0027200Y0171000D03*
X0037200Y0171000D03*
X0307200Y0171000D03*
X0317200Y0171000D03*
X0317200Y0181000D03*
X0317200Y0191000D03*
X0317200Y0201000D03*
X0317200Y0211000D03*
X0307200Y0211000D03*
X0307200Y0201000D03*
X0307200Y0191000D03*
X0307200Y0181000D03*
D12*
X0257200Y0211000D03*
X0247200Y0211000D03*
X0222200Y0206000D03*
X0207200Y0201000D03*
X0207200Y0186000D03*
X0207200Y0171000D03*
X0207200Y0156000D03*
X0207200Y0141000D03*
X0207200Y0126000D03*
X0177200Y0126000D03*
X0177200Y0141000D03*
X0177200Y0156000D03*
X0177200Y0171000D03*
X0177200Y0186000D03*
X0177200Y0201000D03*
X0177200Y0216000D03*
X0177200Y0231000D03*
X0182200Y0246000D03*
X0182200Y0256000D03*
X0187200Y0271000D03*
X0207200Y0251000D03*
X0217200Y0251000D03*
X0222200Y0236000D03*
X0207200Y0231000D03*
X0207200Y0216000D03*
X0217200Y0271000D03*
X0137200Y0211000D03*
X0127200Y0211000D03*
X0097200Y0216000D03*
X0097200Y0201000D03*
X0097200Y0186000D03*
X0097200Y0171000D03*
X0097200Y0156000D03*
X0097200Y0141000D03*
X0097200Y0126000D03*
X0067200Y0126000D03*
X0067200Y0141000D03*
X0067200Y0156000D03*
X0067200Y0171000D03*
X0067200Y0186000D03*
X0067200Y0201000D03*
X0067200Y0216000D03*
X0067200Y0231000D03*
X0097200Y0231000D03*
D13*
X0102200Y0081000D03*
X0062200Y0081000D03*
X0022200Y0081000D03*
X0022200Y0031000D03*
X0062200Y0031000D03*
X0102200Y0031000D03*
X0142200Y0031000D03*
X0182200Y0031000D03*
X0222200Y0031000D03*
X0262200Y0031000D03*
X0302200Y0031000D03*
X0302200Y0081000D03*
X0262200Y0081000D03*
X0222200Y0081000D03*
X0182200Y0081000D03*
X0142200Y0081000D03*
D14*
X0152200Y0081000D03*
X0162200Y0081000D03*
X0192200Y0081000D03*
X0202200Y0081000D03*
X0232200Y0081000D03*
X0242200Y0081000D03*
X0272200Y0081000D03*
X0282200Y0081000D03*
X0312200Y0081000D03*
X0322200Y0081000D03*
X0322200Y0031000D03*
X0312200Y0031000D03*
X0282200Y0031000D03*
X0272200Y0031000D03*
X0242200Y0031000D03*
X0232200Y0031000D03*
X0202200Y0031000D03*
X0192200Y0031000D03*
X0162200Y0031000D03*
X0152200Y0031000D03*
X0122200Y0031000D03*
X0112200Y0031000D03*
X0082200Y0031000D03*
X0072200Y0031000D03*
X0042200Y0031000D03*
X0032200Y0031000D03*
X0032200Y0081000D03*
X0042200Y0081000D03*
X0072200Y0081000D03*
X0082200Y0081000D03*
X0112200Y0081000D03*
X0122200Y0081000D03*
D15*
X0252200Y0247063D03*
X0233302Y0258874D03*
X0252200Y0269898D03*
D16*
X0233302Y0258874D02*
X0232200Y0259750D01*
X0232200Y0261000D01*
X0217200Y0261000D01*
X0217200Y0251000D01*
X0217200Y0242250D01*
X0207200Y0232250D01*
X0207200Y0231000D01*
X0207200Y0216000D01*
X0207200Y0201000D01*
X0207200Y0186000D01*
X0207200Y0171000D01*
X0207200Y0156000D01*
X0167200Y0198500D02*
X0163450Y0194750D01*
X0167200Y0198500D02*
X0167200Y0231000D01*
X0182200Y0246000D01*
X0217200Y0261000D02*
X0217200Y0271000D01*
X0252200Y0247063D02*
X0252200Y0246000D01*
X0257200Y0241000D01*
X0257200Y0211000D01*
X0257200Y0204750D01*
X0265950Y0196000D01*
X0265950Y0194750D01*
X0259700Y0188500D01*
X0259700Y0148500D01*
X0272200Y0136000D01*
X0272200Y0081000D01*
X0272200Y0031000D01*
X0312200Y0031000D02*
X0312200Y0081000D01*
X0232200Y0081000D02*
X0232200Y0056000D01*
X0192200Y0056000D01*
X0192200Y0031000D01*
X0192200Y0056000D02*
X0192200Y0081000D01*
X0152200Y0081000D02*
X0152200Y0031000D01*
X0150950Y0031000D01*
X0150950Y0023500D01*
X0118450Y0023500D01*
X0112200Y0029750D01*
X0112200Y0031000D01*
X0110950Y0029750D01*
X0110950Y0023500D01*
X0070950Y0023500D01*
X0070950Y0031000D01*
X0072200Y0031000D01*
X0072200Y0081000D01*
X0032200Y0081000D02*
X0032200Y0031000D01*
X0032200Y0029750D01*
X0038450Y0023500D01*
X0070950Y0023500D01*
X0112200Y0031000D02*
X0112200Y0081000D01*
X0067200Y0141000D02*
X0067200Y0156000D01*
X0067200Y0171000D02*
X0067200Y0186000D01*
X0067200Y0201000D01*
X0067200Y0216000D01*
X0067200Y0231000D01*
X0127200Y0211000D02*
X0127200Y0201000D01*
X0132200Y0196000D01*
X0232200Y0056000D02*
X0232200Y0031000D01*
D17*
X0248450Y0044750D03*
X0277200Y0052250D03*
X0244700Y0091000D03*
X0229700Y0102250D03*
X0225950Y0094750D03*
X0218450Y0106000D03*
X0214700Y0121000D03*
X0234700Y0124750D03*
X0258450Y0142250D03*
X0280950Y0157250D03*
X0265950Y0178500D03*
X0264700Y0184750D03*
X0265950Y0196000D03*
X0240950Y0188500D03*
X0225950Y0188500D03*
X0224700Y0162250D03*
X0225950Y0157250D03*
X0222200Y0147250D03*
X0214700Y0152250D03*
X0185950Y0132250D03*
X0168450Y0124750D03*
X0168450Y0113500D03*
X0193450Y0098500D03*
X0208450Y0072250D03*
X0168450Y0039750D03*
X0172200Y0024750D03*
X0147200Y0058500D03*
X0137200Y0074750D03*
X0119700Y0092250D03*
X0134700Y0102250D03*
X0132200Y0113500D03*
X0147200Y0139750D03*
X0137200Y0149750D03*
X0128450Y0161000D03*
X0132200Y0164750D03*
X0123450Y0159750D03*
X0108450Y0158500D03*
X0103450Y0156000D03*
X0095950Y0164750D03*
X0108450Y0184750D03*
X0108450Y0192250D03*
X0100950Y0192250D03*
X0114700Y0198500D03*
X0132200Y0196000D03*
X0137200Y0204750D03*
X0162200Y0217250D03*
X0163450Y0194750D03*
X0164700Y0189750D03*
X0163450Y0179750D03*
X0180950Y0191000D03*
X0194700Y0191000D03*
X0145950Y0236000D03*
X0092200Y0248500D03*
X0078450Y0221000D03*
X0047200Y0218500D03*
X0022200Y0219750D03*
X0018450Y0209750D03*
X0082200Y0139750D03*
X0078450Y0121000D03*
X0093450Y0109750D03*
X0089700Y0099750D03*
X0107200Y0051000D03*
X0250950Y0162250D03*
X0254700Y0167250D03*
X0294700Y0183500D03*
X0270950Y0231000D03*
X0222200Y0256000D03*
X0254700Y0277250D03*
X0295950Y0131000D03*
X0297200Y0114750D03*
X0288450Y0098500D03*
D18*
X0005400Y0014200D02*
X0005400Y0287800D01*
X0028500Y0287800D01*
X0028500Y0277003D01*
X0027128Y0278375D01*
X0023930Y0279699D01*
X0020470Y0279699D01*
X0017272Y0278375D01*
X0014825Y0275928D01*
X0013501Y0272730D01*
X0013501Y0269270D01*
X0014825Y0266072D01*
X0017272Y0263625D01*
X0020470Y0262301D01*
X0023930Y0262301D01*
X0027128Y0263625D01*
X0028500Y0264997D01*
X0028500Y0216700D01*
X0025900Y0216700D01*
X0025900Y0217157D01*
X0025973Y0217229D01*
X0026650Y0218865D01*
X0026650Y0220635D01*
X0025973Y0222271D01*
X0024721Y0223523D01*
X0023085Y0224200D01*
X0021315Y0224200D01*
X0019679Y0223523D01*
X0018427Y0222271D01*
X0017750Y0220635D01*
X0017750Y0218865D01*
X0018427Y0217229D01*
X0018500Y0217157D01*
X0018500Y0214200D01*
X0017565Y0214200D01*
X0015929Y0213523D01*
X0014677Y0212271D01*
X0014000Y0210635D01*
X0014000Y0208865D01*
X0014677Y0207229D01*
X0014750Y0207157D01*
X0014750Y0179014D01*
X0015313Y0177654D01*
X0021500Y0171467D01*
X0021500Y0168639D01*
X0024839Y0165300D01*
X0029561Y0165300D01*
X0032554Y0168293D01*
X0035046Y0165800D01*
X0037200Y0165800D01*
X0039354Y0165800D01*
X0042400Y0168846D01*
X0042400Y0171000D01*
X0042400Y0173154D01*
X0039907Y0175646D01*
X0042900Y0178639D01*
X0042900Y0181467D01*
X0051000Y0189567D01*
X0051000Y0115033D01*
X0023367Y0087400D01*
X0017963Y0087400D01*
X0016971Y0086989D01*
X0016211Y0086229D01*
X0015800Y0085237D01*
X0015800Y0076763D01*
X0016211Y0075771D01*
X0016971Y0075011D01*
X0017963Y0074600D01*
X0026437Y0074600D01*
X0027429Y0075011D01*
X0027750Y0075332D01*
X0027750Y0036668D01*
X0027429Y0036989D01*
X0026437Y0037400D01*
X0017963Y0037400D01*
X0016971Y0036989D01*
X0016211Y0036229D01*
X0015800Y0035237D01*
X0015800Y0026763D01*
X0016211Y0025771D01*
X0016971Y0025011D01*
X0017963Y0024600D01*
X0026437Y0024600D01*
X0027429Y0025011D01*
X0028189Y0025771D01*
X0028244Y0025905D01*
X0028575Y0025574D01*
X0030927Y0024600D01*
X0031057Y0024600D01*
X0034677Y0020979D01*
X0035929Y0019727D01*
X0037565Y0019050D01*
X0111835Y0019050D01*
X0113471Y0019727D01*
X0114700Y0020957D01*
X0115929Y0019727D01*
X0117565Y0019050D01*
X0151835Y0019050D01*
X0153471Y0019727D01*
X0154723Y0020979D01*
X0155400Y0022615D01*
X0155400Y0025398D01*
X0155825Y0025574D01*
X0157200Y0026949D01*
X0158575Y0025574D01*
X0160927Y0024600D01*
X0163367Y0024600D01*
X0164750Y0023217D01*
X0164750Y0021514D01*
X0165313Y0020154D01*
X0166563Y0018904D01*
X0167604Y0017863D01*
X0168964Y0017300D01*
X0176686Y0017300D01*
X0178046Y0017863D01*
X0178500Y0018317D01*
X0178500Y0017764D01*
X0179063Y0016404D01*
X0180104Y0015363D01*
X0181464Y0014800D01*
X0279186Y0014800D01*
X0280546Y0015363D01*
X0281587Y0016404D01*
X0295337Y0030154D01*
X0295800Y0031273D01*
X0295800Y0026763D01*
X0296211Y0025771D01*
X0296971Y0025011D01*
X0297963Y0024600D01*
X0306437Y0024600D01*
X0307429Y0025011D01*
X0308189Y0025771D01*
X0308244Y0025905D01*
X0308575Y0025574D01*
X0310927Y0024600D01*
X0313473Y0024600D01*
X0315825Y0025574D01*
X0317200Y0026949D01*
X0318575Y0025574D01*
X0320927Y0024600D01*
X0323473Y0024600D01*
X0325825Y0025574D01*
X0327626Y0027375D01*
X0328600Y0029727D01*
X0328600Y0032167D01*
X0330546Y0034113D01*
X0331587Y0035154D01*
X0332150Y0036514D01*
X0332150Y0084236D01*
X0331587Y0085596D01*
X0301650Y0115533D01*
X0301650Y0115635D01*
X0300973Y0117271D01*
X0299721Y0118523D01*
X0298085Y0119200D01*
X0296315Y0119200D01*
X0295900Y0119028D01*
X0295900Y0126550D01*
X0296835Y0126550D01*
X0298471Y0127227D01*
X0299723Y0128479D01*
X0300400Y0130115D01*
X0300400Y0130217D01*
X0326587Y0156404D01*
X0327150Y0157764D01*
X0327150Y0195486D01*
X0326587Y0196846D01*
X0325546Y0197887D01*
X0322900Y0200533D01*
X0322900Y0203361D01*
X0320261Y0206000D01*
X0322900Y0208639D01*
X0322900Y0213361D01*
X0319561Y0216700D01*
X0314839Y0216700D01*
X0312200Y0214061D01*
X0309561Y0216700D01*
X0304839Y0216700D01*
X0301500Y0213361D01*
X0301500Y0208639D01*
X0304139Y0206000D01*
X0301500Y0203361D01*
X0301500Y0201933D01*
X0282150Y0221283D01*
X0282150Y0269236D01*
X0281587Y0270596D01*
X0264383Y0287800D01*
X0339000Y0287800D01*
X0339000Y0014200D01*
X0005400Y0014200D01*
X0005400Y0015391D02*
X0180076Y0015391D01*
X0178500Y0017790D02*
X0177868Y0017790D01*
X0167782Y0017790D02*
X0005400Y0017790D01*
X0005400Y0020188D02*
X0035469Y0020188D01*
X0033070Y0022587D02*
X0005400Y0022587D01*
X0005400Y0024985D02*
X0017033Y0024985D01*
X0015800Y0027384D02*
X0005400Y0027384D01*
X0005400Y0029782D02*
X0015800Y0029782D01*
X0015800Y0032181D02*
X0005400Y0032181D01*
X0005400Y0034579D02*
X0015800Y0034579D01*
X0016959Y0036978D02*
X0005400Y0036978D01*
X0005400Y0039376D02*
X0027750Y0039376D01*
X0027750Y0036978D02*
X0027441Y0036978D01*
X0027750Y0041775D02*
X0005400Y0041775D01*
X0005400Y0044173D02*
X0027750Y0044173D01*
X0027750Y0046572D02*
X0005400Y0046572D01*
X0005400Y0048970D02*
X0027750Y0048970D01*
X0027750Y0051369D02*
X0005400Y0051369D01*
X0005400Y0053767D02*
X0027750Y0053767D01*
X0027750Y0056166D02*
X0005400Y0056166D01*
X0005400Y0058564D02*
X0027750Y0058564D01*
X0027750Y0060963D02*
X0005400Y0060963D01*
X0005400Y0063361D02*
X0027750Y0063361D01*
X0027750Y0065760D02*
X0005400Y0065760D01*
X0005400Y0068158D02*
X0027750Y0068158D01*
X0027750Y0070557D02*
X0005400Y0070557D01*
X0005400Y0072955D02*
X0027750Y0072955D01*
X0016628Y0075354D02*
X0005400Y0075354D01*
X0005400Y0077752D02*
X0015800Y0077752D01*
X0015800Y0080151D02*
X0005400Y0080151D01*
X0005400Y0082549D02*
X0015800Y0082549D01*
X0015800Y0084948D02*
X0005400Y0084948D01*
X0005400Y0087346D02*
X0017834Y0087346D01*
X0025712Y0089745D02*
X0005400Y0089745D01*
X0005400Y0092143D02*
X0028111Y0092143D01*
X0030509Y0094542D02*
X0005400Y0094542D01*
X0005400Y0096940D02*
X0032908Y0096940D01*
X0035306Y0099339D02*
X0005400Y0099339D01*
X0005400Y0101737D02*
X0037705Y0101737D01*
X0040103Y0104136D02*
X0005400Y0104136D01*
X0005400Y0106534D02*
X0042502Y0106534D01*
X0044900Y0108933D02*
X0005400Y0108933D01*
X0005400Y0111332D02*
X0047299Y0111332D01*
X0049697Y0113730D02*
X0005400Y0113730D01*
X0005400Y0116129D02*
X0051000Y0116129D01*
X0051000Y0118527D02*
X0005400Y0118527D01*
X0005400Y0120926D02*
X0051000Y0120926D01*
X0051000Y0123324D02*
X0005400Y0123324D01*
X0005400Y0125723D02*
X0051000Y0125723D01*
X0051000Y0128121D02*
X0005400Y0128121D01*
X0005400Y0130520D02*
X0051000Y0130520D01*
X0051000Y0132918D02*
X0005400Y0132918D01*
X0005400Y0135317D02*
X0051000Y0135317D01*
X0051000Y0137715D02*
X0005400Y0137715D01*
X0005400Y0140114D02*
X0051000Y0140114D01*
X0051000Y0142512D02*
X0005400Y0142512D01*
X0005400Y0144911D02*
X0051000Y0144911D01*
X0051000Y0147309D02*
X0005400Y0147309D01*
X0005400Y0149708D02*
X0051000Y0149708D01*
X0051000Y0152106D02*
X0005400Y0152106D01*
X0005400Y0154505D02*
X0051000Y0154505D01*
X0051000Y0156903D02*
X0005400Y0156903D01*
X0005400Y0159302D02*
X0051000Y0159302D01*
X0051000Y0161700D02*
X0005400Y0161700D01*
X0005400Y0164099D02*
X0051000Y0164099D01*
X0051000Y0166497D02*
X0040051Y0166497D01*
X0037200Y0166497D02*
X0037200Y0166497D01*
X0037200Y0165800D02*
X0037200Y0171000D01*
X0042400Y0171000D01*
X0037200Y0171000D01*
X0037200Y0171000D01*
X0037200Y0165800D01*
X0034349Y0166497D02*
X0030758Y0166497D01*
X0037200Y0168896D02*
X0037200Y0168896D01*
X0037200Y0171000D02*
X0037200Y0171000D01*
X0042400Y0171294D02*
X0051000Y0171294D01*
X0051000Y0168896D02*
X0042400Y0168896D01*
X0041861Y0173693D02*
X0051000Y0173693D01*
X0051000Y0176091D02*
X0040352Y0176091D01*
X0042751Y0178490D02*
X0051000Y0178490D01*
X0051000Y0180888D02*
X0042900Y0180888D01*
X0044719Y0183287D02*
X0051000Y0183287D01*
X0051000Y0185685D02*
X0047118Y0185685D01*
X0049516Y0188084D02*
X0051000Y0188084D01*
X0058400Y0188084D02*
X0062213Y0188084D01*
X0062200Y0188071D02*
X0062200Y0186000D01*
X0067200Y0186000D01*
X0072200Y0186000D01*
X0072200Y0188071D01*
X0069271Y0191000D01*
X0067200Y0191000D01*
X0067200Y0186000D01*
X0067200Y0186000D01*
X0067200Y0186000D01*
X0072200Y0186000D01*
X0072200Y0183929D01*
X0069271Y0181000D01*
X0067200Y0181000D01*
X0067200Y0186000D01*
X0067200Y0186000D01*
X0067200Y0186000D01*
X0067200Y0191000D01*
X0065129Y0191000D01*
X0062200Y0188071D01*
X0062200Y0186000D02*
X0062200Y0183929D01*
X0065129Y0181000D01*
X0067200Y0181000D01*
X0067200Y0186000D01*
X0062200Y0186000D01*
X0062200Y0185685D02*
X0058400Y0185685D01*
X0058400Y0183287D02*
X0062842Y0183287D01*
X0067200Y0183287D02*
X0067200Y0183287D01*
X0067200Y0185685D02*
X0067200Y0185685D01*
X0067200Y0188084D02*
X0067200Y0188084D01*
X0067200Y0190482D02*
X0067200Y0190482D01*
X0069789Y0190482D02*
X0074750Y0190482D01*
X0074750Y0188084D02*
X0072187Y0188084D01*
X0072200Y0185685D02*
X0074750Y0185685D01*
X0074750Y0183287D02*
X0071558Y0183287D01*
X0074750Y0180888D02*
X0058400Y0180888D01*
X0058400Y0178490D02*
X0074750Y0178490D01*
X0074750Y0176091D02*
X0058400Y0176091D01*
X0058400Y0173693D02*
X0062822Y0173693D01*
X0062200Y0173071D02*
X0062200Y0171000D01*
X0067200Y0171000D01*
X0072200Y0171000D01*
X0072200Y0173071D01*
X0069271Y0176000D01*
X0067200Y0176000D01*
X0067200Y0171000D01*
X0067200Y0171000D01*
X0067200Y0171000D01*
X0072200Y0171000D01*
X0072200Y0168929D01*
X0069271Y0166000D01*
X0067200Y0166000D01*
X0067200Y0171000D01*
X0067200Y0171000D01*
X0067200Y0171000D01*
X0067200Y0176000D01*
X0065129Y0176000D01*
X0062200Y0173071D01*
X0062200Y0171294D02*
X0058400Y0171294D01*
X0058400Y0168896D02*
X0062233Y0168896D01*
X0062200Y0168929D02*
X0065129Y0166000D01*
X0067200Y0166000D01*
X0067200Y0171000D01*
X0062200Y0171000D01*
X0062200Y0168929D01*
X0064632Y0166497D02*
X0058400Y0166497D01*
X0058400Y0164099D02*
X0074750Y0164099D01*
X0074750Y0166497D02*
X0069768Y0166497D01*
X0067200Y0166497D02*
X0067200Y0166497D01*
X0067200Y0168896D02*
X0067200Y0168896D01*
X0067200Y0171294D02*
X0067200Y0171294D01*
X0067200Y0173693D02*
X0067200Y0173693D01*
X0071578Y0173693D02*
X0074750Y0173693D01*
X0074750Y0171294D02*
X0072200Y0171294D01*
X0072167Y0168896D02*
X0074750Y0168896D01*
X0074750Y0161700D02*
X0058400Y0161700D01*
X0058400Y0159302D02*
X0063431Y0159302D01*
X0062200Y0158071D02*
X0065129Y0161000D01*
X0067200Y0161000D01*
X0069271Y0161000D01*
X0072200Y0158071D01*
X0072200Y0156000D01*
X0067200Y0156000D01*
X0067200Y0156000D01*
X0067200Y0156000D01*
X0067200Y0161000D01*
X0067200Y0156000D01*
X0072200Y0156000D01*
X0072200Y0153929D01*
X0069271Y0151000D01*
X0067200Y0151000D01*
X0067200Y0156000D01*
X0067200Y0156000D01*
X0067200Y0156000D01*
X0062200Y0156000D01*
X0062200Y0158071D01*
X0062200Y0156903D02*
X0058400Y0156903D01*
X0058400Y0154505D02*
X0062200Y0154505D01*
X0062200Y0153929D02*
X0065129Y0151000D01*
X0067200Y0151000D01*
X0067200Y0156000D01*
X0062200Y0156000D01*
X0062200Y0153929D01*
X0064023Y0152106D02*
X0058400Y0152106D01*
X0058400Y0149708D02*
X0074750Y0149708D01*
X0074750Y0152106D02*
X0070377Y0152106D01*
X0072200Y0154505D02*
X0074750Y0154505D01*
X0074750Y0156903D02*
X0072200Y0156903D01*
X0070969Y0159302D02*
X0074750Y0159302D01*
X0067200Y0159302D02*
X0067200Y0159302D01*
X0067200Y0156903D02*
X0067200Y0156903D01*
X0067200Y0154505D02*
X0067200Y0154505D01*
X0067200Y0152106D02*
X0067200Y0152106D01*
X0067200Y0146000D02*
X0065129Y0146000D01*
X0062200Y0143071D01*
X0062200Y0141000D01*
X0067200Y0141000D01*
X0072200Y0141000D01*
X0072200Y0143071D01*
X0069271Y0146000D01*
X0067200Y0146000D01*
X0067200Y0141000D01*
X0067200Y0141000D01*
X0067200Y0141000D01*
X0072200Y0141000D01*
X0072200Y0138929D01*
X0069271Y0136000D01*
X0067200Y0136000D01*
X0067200Y0141000D01*
X0067200Y0141000D01*
X0067200Y0141000D01*
X0067200Y0146000D01*
X0067200Y0144911D02*
X0067200Y0144911D01*
X0067200Y0142512D02*
X0067200Y0142512D01*
X0067200Y0141000D02*
X0062200Y0141000D01*
X0062200Y0138929D01*
X0065129Y0136000D01*
X0067200Y0136000D01*
X0067200Y0141000D01*
X0067200Y0140114D02*
X0067200Y0140114D01*
X0067200Y0137715D02*
X0067200Y0137715D01*
X0070986Y0137715D02*
X0074750Y0137715D01*
X0074750Y0135317D02*
X0058400Y0135317D01*
X0058400Y0137715D02*
X0063414Y0137715D01*
X0062200Y0140114D02*
X0058400Y0140114D01*
X0058400Y0142512D02*
X0062200Y0142512D01*
X0064040Y0144911D02*
X0058400Y0144911D01*
X0058400Y0147309D02*
X0074750Y0147309D01*
X0074750Y0144911D02*
X0070360Y0144911D01*
X0072200Y0142512D02*
X0074750Y0142512D01*
X0074750Y0140114D02*
X0072200Y0140114D01*
X0074750Y0132918D02*
X0058400Y0132918D01*
X0058400Y0130520D02*
X0064649Y0130520D01*
X0065129Y0131000D02*
X0062200Y0128071D01*
X0062200Y0126000D01*
X0067200Y0126000D01*
X0067200Y0126000D01*
X0067200Y0131000D01*
X0069271Y0131000D01*
X0071869Y0128402D01*
X0074750Y0131283D01*
X0074750Y0218407D01*
X0074677Y0218479D01*
X0074000Y0220115D01*
X0074000Y0221885D01*
X0074677Y0223521D01*
X0075929Y0224773D01*
X0077565Y0225450D01*
X0079335Y0225450D01*
X0080971Y0224773D01*
X0082223Y0223521D01*
X0082250Y0223454D01*
X0082250Y0249236D01*
X0082813Y0250596D01*
X0087813Y0255596D01*
X0088854Y0256637D01*
X0090214Y0257200D01*
X0162936Y0257200D01*
X0164296Y0256637D01*
X0165337Y0255596D01*
X0165900Y0254236D01*
X0165900Y0235993D01*
X0176700Y0246793D01*
X0176700Y0248278D01*
X0179422Y0251000D01*
X0176700Y0253722D01*
X0176700Y0258278D01*
X0179922Y0261500D01*
X0182467Y0261500D01*
X0183500Y0262533D01*
X0183500Y0266922D01*
X0181700Y0268722D01*
X0181700Y0272300D01*
X0058400Y0272300D01*
X0058400Y0114933D01*
X0064798Y0121331D01*
X0062200Y0123929D01*
X0062200Y0126000D01*
X0067200Y0126000D01*
X0067200Y0126000D01*
X0067200Y0131000D01*
X0065129Y0131000D01*
X0067200Y0130520D02*
X0067200Y0130520D01*
X0067200Y0128121D02*
X0067200Y0128121D01*
X0069751Y0130520D02*
X0073987Y0130520D01*
X0062250Y0128121D02*
X0058400Y0128121D01*
X0058400Y0125723D02*
X0062200Y0125723D01*
X0062805Y0123324D02*
X0058400Y0123324D01*
X0058400Y0120926D02*
X0064393Y0120926D01*
X0061994Y0118527D02*
X0058400Y0118527D01*
X0058400Y0116129D02*
X0059596Y0116129D01*
X0023642Y0166497D02*
X0005400Y0166497D01*
X0005400Y0168896D02*
X0021500Y0168896D01*
X0021500Y0171294D02*
X0005400Y0171294D01*
X0005400Y0173693D02*
X0019275Y0173693D01*
X0016876Y0176091D02*
X0005400Y0176091D01*
X0005400Y0178490D02*
X0014967Y0178490D01*
X0014750Y0180888D02*
X0005400Y0180888D01*
X0005400Y0183287D02*
X0014750Y0183287D01*
X0014750Y0185685D02*
X0005400Y0185685D01*
X0005400Y0188084D02*
X0014750Y0188084D01*
X0014750Y0190482D02*
X0005400Y0190482D01*
X0005400Y0192881D02*
X0014750Y0192881D01*
X0014750Y0195279D02*
X0005400Y0195279D01*
X0005400Y0197678D02*
X0014750Y0197678D01*
X0014750Y0200076D02*
X0005400Y0200076D01*
X0005400Y0202475D02*
X0014750Y0202475D01*
X0014750Y0204873D02*
X0005400Y0204873D01*
X0005400Y0207272D02*
X0014660Y0207272D01*
X0014000Y0209670D02*
X0005400Y0209670D01*
X0005400Y0212069D02*
X0014594Y0212069D01*
X0018500Y0214468D02*
X0005400Y0214468D01*
X0005400Y0216866D02*
X0018500Y0216866D01*
X0017750Y0219265D02*
X0005400Y0219265D01*
X0005400Y0221663D02*
X0018176Y0221663D01*
X0020981Y0224062D02*
X0005400Y0224062D01*
X0005400Y0226460D02*
X0028500Y0226460D01*
X0028500Y0224062D02*
X0023419Y0224062D01*
X0026224Y0221663D02*
X0028500Y0221663D01*
X0028500Y0219265D02*
X0026650Y0219265D01*
X0025900Y0216866D02*
X0028500Y0216866D01*
X0028500Y0228859D02*
X0005400Y0228859D01*
X0005400Y0231257D02*
X0028500Y0231257D01*
X0028500Y0233656D02*
X0005400Y0233656D01*
X0005400Y0236054D02*
X0028500Y0236054D01*
X0028500Y0238453D02*
X0005400Y0238453D01*
X0005400Y0240851D02*
X0028500Y0240851D01*
X0028500Y0243250D02*
X0005400Y0243250D01*
X0005400Y0245648D02*
X0028500Y0245648D01*
X0028500Y0248047D02*
X0005400Y0248047D01*
X0005400Y0250445D02*
X0028500Y0250445D01*
X0028500Y0252844D02*
X0005400Y0252844D01*
X0005400Y0255242D02*
X0028500Y0255242D01*
X0028500Y0257641D02*
X0005400Y0257641D01*
X0005400Y0260039D02*
X0028500Y0260039D01*
X0028500Y0262438D02*
X0024261Y0262438D01*
X0028339Y0264836D02*
X0028500Y0264836D01*
X0020139Y0262438D02*
X0005400Y0262438D01*
X0005400Y0264836D02*
X0016061Y0264836D01*
X0014344Y0267235D02*
X0005400Y0267235D01*
X0005400Y0269633D02*
X0013501Y0269633D01*
X0013501Y0272032D02*
X0005400Y0272032D01*
X0005400Y0274430D02*
X0014205Y0274430D01*
X0015726Y0276829D02*
X0005400Y0276829D01*
X0005400Y0279227D02*
X0019330Y0279227D01*
X0025070Y0279227D02*
X0028500Y0279227D01*
X0028500Y0281626D02*
X0005400Y0281626D01*
X0005400Y0284024D02*
X0028500Y0284024D01*
X0028500Y0286423D02*
X0005400Y0286423D01*
X0058400Y0272032D02*
X0181700Y0272032D01*
X0181700Y0269633D02*
X0058400Y0269633D01*
X0058400Y0267235D02*
X0183187Y0267235D01*
X0183500Y0264836D02*
X0058400Y0264836D01*
X0058400Y0262438D02*
X0183405Y0262438D01*
X0188500Y0257067D02*
X0188500Y0192764D01*
X0189063Y0191404D01*
X0190104Y0190363D01*
X0190250Y0190217D01*
X0190250Y0190115D01*
X0190927Y0188479D01*
X0192179Y0187227D01*
X0193815Y0186550D01*
X0195585Y0186550D01*
X0197221Y0187227D01*
X0198473Y0188479D01*
X0199150Y0190115D01*
X0199150Y0191885D01*
X0198473Y0193521D01*
X0197221Y0194773D01*
X0195900Y0195320D01*
X0195900Y0274236D01*
X0195337Y0275596D01*
X0194883Y0276050D01*
X0241000Y0276050D01*
X0241000Y0264014D01*
X0241563Y0262654D01*
X0250699Y0253519D01*
X0248496Y0252606D01*
X0246657Y0250767D01*
X0245661Y0248364D01*
X0245661Y0245762D01*
X0246657Y0243359D01*
X0248496Y0241520D01*
X0250899Y0240524D01*
X0251382Y0240524D01*
X0252750Y0239157D01*
X0252750Y0214328D01*
X0251846Y0213425D01*
X0249271Y0216000D01*
X0247200Y0216000D01*
X0247200Y0211000D01*
X0247200Y0211000D01*
X0247200Y0206000D01*
X0249271Y0206000D01*
X0251846Y0208575D01*
X0252750Y0207672D01*
X0252750Y0203865D01*
X0253427Y0202229D01*
X0254679Y0200977D01*
X0260282Y0195375D01*
X0257179Y0192273D01*
X0255927Y0191021D01*
X0255250Y0189385D01*
X0255250Y0171700D01*
X0253815Y0171700D01*
X0252179Y0171023D01*
X0250927Y0169771D01*
X0250250Y0168135D01*
X0250250Y0166700D01*
X0250065Y0166700D01*
X0248429Y0166023D01*
X0247177Y0164771D01*
X0246500Y0163135D01*
X0246500Y0163033D01*
X0246354Y0162887D01*
X0245313Y0161846D01*
X0244750Y0160486D01*
X0244750Y0119933D01*
X0239150Y0125533D01*
X0239150Y0125635D01*
X0238473Y0127271D01*
X0237221Y0128523D01*
X0235585Y0129200D01*
X0233815Y0129200D01*
X0232179Y0128523D01*
X0230927Y0127271D01*
X0230250Y0125635D01*
X0230250Y0123865D01*
X0230927Y0122229D01*
X0232179Y0120977D01*
X0233815Y0120300D01*
X0233917Y0120300D01*
X0241000Y0113217D01*
X0241000Y0093593D01*
X0240927Y0093521D01*
X0240250Y0091885D01*
X0240250Y0090115D01*
X0240927Y0088479D01*
X0242007Y0087400D01*
X0241033Y0087400D01*
X0233400Y0095033D01*
X0233400Y0099657D01*
X0233473Y0099729D01*
X0234150Y0101365D01*
X0234150Y0103135D01*
X0233473Y0104771D01*
X0232221Y0106023D01*
X0230585Y0106700D01*
X0229650Y0106700D01*
X0229650Y0154657D01*
X0229723Y0154729D01*
X0230400Y0156365D01*
X0230400Y0158135D01*
X0229723Y0159771D01*
X0228851Y0160642D01*
X0229150Y0161365D01*
X0229150Y0163135D01*
X0228473Y0164771D01*
X0227221Y0166023D01*
X0225585Y0166700D01*
X0223815Y0166700D01*
X0222179Y0166023D01*
X0220927Y0164771D01*
X0220250Y0163135D01*
X0220250Y0163033D01*
X0216354Y0159137D01*
X0215313Y0158096D01*
X0214750Y0156736D01*
X0214750Y0156700D01*
X0213815Y0156700D01*
X0212200Y0156031D01*
X0212200Y0158071D01*
X0209271Y0161000D01*
X0207200Y0161000D01*
X0207200Y0156000D01*
X0207200Y0156000D01*
X0207200Y0151000D01*
X0209271Y0151000D01*
X0209750Y0151479D01*
X0209750Y0145521D01*
X0209271Y0146000D01*
X0207200Y0146000D01*
X0207200Y0141000D01*
X0207200Y0141000D01*
X0207200Y0141000D01*
X0202200Y0141000D01*
X0202200Y0143071D01*
X0205129Y0146000D01*
X0207200Y0146000D01*
X0207200Y0141000D01*
X0202200Y0141000D01*
X0202200Y0138929D01*
X0204798Y0136331D01*
X0195104Y0126637D01*
X0194063Y0125596D01*
X0193500Y0124236D01*
X0193500Y0103683D01*
X0189650Y0107533D01*
X0189650Y0129657D01*
X0189723Y0129729D01*
X0190400Y0131365D01*
X0190400Y0133135D01*
X0189723Y0134771D01*
X0188471Y0136023D01*
X0186835Y0136700D01*
X0185900Y0136700D01*
X0185900Y0181736D01*
X0185337Y0183096D01*
X0182700Y0185733D01*
X0182700Y0186908D01*
X0183471Y0187227D01*
X0184723Y0188479D01*
X0185400Y0190115D01*
X0185400Y0190307D01*
X0185900Y0191514D01*
X0185900Y0211736D01*
X0185337Y0213096D01*
X0182700Y0215733D01*
X0182700Y0218278D01*
X0179478Y0221500D01*
X0175900Y0221500D01*
X0175900Y0224467D01*
X0176933Y0225500D01*
X0179478Y0225500D01*
X0182700Y0228722D01*
X0182700Y0233278D01*
X0179478Y0236500D01*
X0178993Y0236500D01*
X0182993Y0240500D01*
X0184478Y0240500D01*
X0187700Y0243722D01*
X0187700Y0248278D01*
X0184978Y0251000D01*
X0187700Y0253722D01*
X0187700Y0256267D01*
X0188500Y0257067D01*
X0188500Y0255242D02*
X0187700Y0255242D01*
X0188500Y0252844D02*
X0186822Y0252844D01*
X0185533Y0250445D02*
X0188500Y0250445D01*
X0188500Y0248047D02*
X0187700Y0248047D01*
X0187700Y0245648D02*
X0188500Y0245648D01*
X0188500Y0243250D02*
X0187228Y0243250D01*
X0188500Y0240851D02*
X0184829Y0240851D01*
X0188500Y0238453D02*
X0180946Y0238453D01*
X0179924Y0236054D02*
X0188500Y0236054D01*
X0188500Y0233656D02*
X0182323Y0233656D01*
X0182700Y0231257D02*
X0188500Y0231257D01*
X0188500Y0228859D02*
X0182700Y0228859D01*
X0180438Y0226460D02*
X0188500Y0226460D01*
X0188500Y0224062D02*
X0175900Y0224062D01*
X0175900Y0221663D02*
X0188500Y0221663D01*
X0188500Y0219265D02*
X0181714Y0219265D01*
X0182700Y0216866D02*
X0188500Y0216866D01*
X0188500Y0214468D02*
X0183965Y0214468D01*
X0185762Y0212069D02*
X0188500Y0212069D01*
X0188500Y0209670D02*
X0185900Y0209670D01*
X0185900Y0207272D02*
X0188500Y0207272D01*
X0188500Y0204873D02*
X0185900Y0204873D01*
X0185900Y0202475D02*
X0188500Y0202475D01*
X0188500Y0200076D02*
X0185900Y0200076D01*
X0185900Y0197678D02*
X0188500Y0197678D01*
X0188500Y0195279D02*
X0185900Y0195279D01*
X0185900Y0192881D02*
X0188500Y0192881D01*
X0189985Y0190482D02*
X0185473Y0190482D01*
X0184327Y0188084D02*
X0191323Y0188084D01*
X0198077Y0188084D02*
X0202213Y0188084D01*
X0202200Y0188071D02*
X0202200Y0186000D01*
X0207200Y0186000D01*
X0212200Y0186000D01*
X0212200Y0188071D01*
X0209271Y0191000D01*
X0207200Y0191000D01*
X0207200Y0186000D01*
X0207200Y0186000D01*
X0207200Y0186000D01*
X0212200Y0186000D01*
X0212200Y0183929D01*
X0209271Y0181000D01*
X0207200Y0181000D01*
X0207200Y0186000D01*
X0207200Y0186000D01*
X0207200Y0186000D01*
X0207200Y0191000D01*
X0205129Y0191000D01*
X0202200Y0188071D01*
X0202200Y0186000D02*
X0202200Y0183929D01*
X0205129Y0181000D01*
X0207200Y0181000D01*
X0207200Y0186000D01*
X0202200Y0186000D01*
X0202200Y0185685D02*
X0182747Y0185685D01*
X0185146Y0183287D02*
X0202842Y0183287D01*
X0207200Y0183287D02*
X0207200Y0183287D01*
X0207200Y0185685D02*
X0207200Y0185685D01*
X0207200Y0188084D02*
X0207200Y0188084D01*
X0207200Y0190482D02*
X0207200Y0190482D01*
X0209789Y0190482D02*
X0212250Y0190482D01*
X0212187Y0188084D02*
X0212250Y0188084D01*
X0212200Y0185685D02*
X0212250Y0185685D01*
X0212250Y0183287D02*
X0211558Y0183287D01*
X0212250Y0180888D02*
X0185900Y0180888D01*
X0185900Y0178490D02*
X0212250Y0178490D01*
X0212250Y0177764D02*
X0212813Y0176404D01*
X0213854Y0175363D01*
X0215214Y0174800D01*
X0231686Y0174800D01*
X0233046Y0175363D01*
X0234087Y0176404D01*
X0241733Y0184050D01*
X0241835Y0184050D01*
X0243471Y0184727D01*
X0244723Y0185979D01*
X0245400Y0187615D01*
X0245400Y0189385D01*
X0244723Y0191021D01*
X0243471Y0192273D01*
X0241835Y0192950D01*
X0240065Y0192950D01*
X0238429Y0192273D01*
X0237177Y0191021D01*
X0236500Y0189385D01*
X0236500Y0189283D01*
X0229417Y0182200D01*
X0219650Y0182200D01*
X0219650Y0201479D01*
X0220129Y0201000D01*
X0222200Y0201000D01*
X0224271Y0201000D01*
X0224750Y0201479D01*
X0224750Y0192820D01*
X0223429Y0192273D01*
X0222177Y0191021D01*
X0221500Y0189385D01*
X0221500Y0187615D01*
X0222177Y0185979D01*
X0223429Y0184727D01*
X0225065Y0184050D01*
X0226835Y0184050D01*
X0228471Y0184727D01*
X0229723Y0185979D01*
X0230400Y0187615D01*
X0230400Y0187717D01*
X0230546Y0187863D01*
X0231587Y0188904D01*
X0232150Y0190264D01*
X0232150Y0250486D01*
X0231587Y0251846D01*
X0226650Y0256783D01*
X0226650Y0256885D01*
X0225973Y0258521D01*
X0224721Y0259773D01*
X0223085Y0260450D01*
X0221315Y0260450D01*
X0219679Y0259773D01*
X0218427Y0258521D01*
X0217750Y0256885D01*
X0217750Y0256000D01*
X0217200Y0256000D01*
X0217200Y0251000D01*
X0217200Y0251000D01*
X0217200Y0246000D01*
X0219271Y0246000D01*
X0222200Y0248929D01*
X0222200Y0250767D01*
X0224750Y0248217D01*
X0224750Y0241228D01*
X0224478Y0241500D01*
X0219922Y0241500D01*
X0216700Y0238278D01*
X0216700Y0235733D01*
X0212813Y0231846D01*
X0212250Y0230486D01*
X0212250Y0177764D01*
X0213126Y0176091D02*
X0185900Y0176091D01*
X0185900Y0173693D02*
X0202822Y0173693D01*
X0202200Y0173071D02*
X0202200Y0171000D01*
X0207200Y0171000D01*
X0212200Y0171000D01*
X0212200Y0173071D01*
X0209271Y0176000D01*
X0207200Y0176000D01*
X0207200Y0171000D01*
X0207200Y0171000D01*
X0207200Y0171000D01*
X0212200Y0171000D01*
X0212200Y0168929D01*
X0209271Y0166000D01*
X0207200Y0166000D01*
X0207200Y0171000D01*
X0207200Y0171000D01*
X0207200Y0171000D01*
X0207200Y0176000D01*
X0205129Y0176000D01*
X0202200Y0173071D01*
X0202200Y0171294D02*
X0185900Y0171294D01*
X0185900Y0168896D02*
X0202233Y0168896D01*
X0202200Y0168929D02*
X0205129Y0166000D01*
X0207200Y0166000D01*
X0207200Y0171000D01*
X0202200Y0171000D01*
X0202200Y0168929D01*
X0204632Y0166497D02*
X0185900Y0166497D01*
X0185900Y0164099D02*
X0220649Y0164099D01*
X0218918Y0161700D02*
X0185900Y0161700D01*
X0185900Y0159302D02*
X0203431Y0159302D01*
X0202200Y0158071D02*
X0205129Y0161000D01*
X0207200Y0161000D01*
X0207200Y0156000D01*
X0207200Y0156000D01*
X0207200Y0156000D01*
X0202200Y0156000D01*
X0202200Y0158071D01*
X0202200Y0156903D02*
X0185900Y0156903D01*
X0185900Y0154505D02*
X0202200Y0154505D01*
X0202200Y0153929D02*
X0205129Y0151000D01*
X0207200Y0151000D01*
X0207200Y0156000D01*
X0202200Y0156000D01*
X0202200Y0153929D01*
X0204023Y0152106D02*
X0185900Y0152106D01*
X0185900Y0149708D02*
X0209750Y0149708D01*
X0209750Y0147309D02*
X0185900Y0147309D01*
X0185900Y0144911D02*
X0204040Y0144911D01*
X0202200Y0142512D02*
X0185900Y0142512D01*
X0185900Y0140114D02*
X0202200Y0140114D01*
X0203414Y0137715D02*
X0185900Y0137715D01*
X0189177Y0135317D02*
X0203784Y0135317D01*
X0201386Y0132918D02*
X0190400Y0132918D01*
X0190050Y0130520D02*
X0198987Y0130520D01*
X0196589Y0128121D02*
X0189650Y0128121D01*
X0189650Y0125723D02*
X0194190Y0125723D01*
X0195104Y0126637D02*
X0195104Y0126637D01*
X0193500Y0123324D02*
X0189650Y0123324D01*
X0189650Y0120926D02*
X0193500Y0120926D01*
X0193500Y0118527D02*
X0189650Y0118527D01*
X0189650Y0116129D02*
X0193500Y0116129D01*
X0193500Y0113730D02*
X0189650Y0113730D01*
X0189650Y0111332D02*
X0193500Y0111332D01*
X0193500Y0108933D02*
X0189650Y0108933D01*
X0190648Y0106534D02*
X0193500Y0106534D01*
X0193500Y0104136D02*
X0193047Y0104136D01*
X0200900Y0104136D02*
X0204750Y0104136D01*
X0204750Y0106534D02*
X0200900Y0106534D01*
X0200900Y0108933D02*
X0204750Y0108933D01*
X0204750Y0111332D02*
X0200900Y0111332D01*
X0200900Y0113730D02*
X0204750Y0113730D01*
X0204750Y0115486D02*
X0204750Y0086871D01*
X0203473Y0087400D01*
X0200927Y0087400D01*
X0198575Y0086426D01*
X0197200Y0085051D01*
X0195825Y0086426D01*
X0193727Y0087295D01*
X0200337Y0093904D01*
X0200900Y0095264D01*
X0200900Y0121967D01*
X0202531Y0123598D01*
X0205129Y0121000D01*
X0207200Y0121000D01*
X0209271Y0121000D01*
X0210316Y0122045D01*
X0210250Y0121885D01*
X0210250Y0121783D01*
X0206354Y0117887D01*
X0205313Y0116846D01*
X0204750Y0115486D01*
X0205016Y0116129D02*
X0200900Y0116129D01*
X0200900Y0118527D02*
X0206994Y0118527D01*
X0207200Y0121000D02*
X0207200Y0126000D01*
X0212200Y0126000D01*
X0212200Y0128071D01*
X0209602Y0130669D01*
X0214750Y0135817D01*
X0214750Y0125450D01*
X0213815Y0125450D01*
X0212200Y0124781D01*
X0212200Y0126000D01*
X0207200Y0126000D01*
X0207200Y0126000D01*
X0207200Y0126000D01*
X0207200Y0121000D01*
X0209393Y0120926D02*
X0200900Y0120926D01*
X0202257Y0123324D02*
X0202805Y0123324D01*
X0207200Y0123324D02*
X0207200Y0123324D01*
X0207200Y0125723D02*
X0207200Y0125723D01*
X0212200Y0125723D02*
X0214750Y0125723D01*
X0214750Y0128121D02*
X0212150Y0128121D01*
X0209751Y0130520D02*
X0214750Y0130520D01*
X0214750Y0132918D02*
X0211851Y0132918D01*
X0214249Y0135317D02*
X0214750Y0135317D01*
X0207200Y0142512D02*
X0207200Y0142512D01*
X0207200Y0144911D02*
X0207200Y0144911D01*
X0207200Y0152106D02*
X0207200Y0152106D01*
X0207200Y0154505D02*
X0207200Y0154505D01*
X0207200Y0156903D02*
X0207200Y0156903D01*
X0207200Y0159302D02*
X0207200Y0159302D01*
X0210969Y0159302D02*
X0216519Y0159302D01*
X0214819Y0156903D02*
X0212200Y0156903D01*
X0209768Y0166497D02*
X0223325Y0166497D01*
X0226075Y0166497D02*
X0249575Y0166497D01*
X0250565Y0168896D02*
X0212167Y0168896D01*
X0212200Y0171294D02*
X0252835Y0171294D01*
X0255250Y0173693D02*
X0211578Y0173693D01*
X0207200Y0173693D02*
X0207200Y0173693D01*
X0207200Y0171294D02*
X0207200Y0171294D01*
X0207200Y0168896D02*
X0207200Y0168896D01*
X0207200Y0166497D02*
X0207200Y0166497D01*
X0219650Y0183287D02*
X0230504Y0183287D01*
X0229429Y0185685D02*
X0232903Y0185685D01*
X0230766Y0188084D02*
X0235301Y0188084D01*
X0236954Y0190482D02*
X0232150Y0190482D01*
X0232150Y0192881D02*
X0239898Y0192881D01*
X0242002Y0192881D02*
X0257788Y0192881D01*
X0255704Y0190482D02*
X0244946Y0190482D01*
X0245400Y0188084D02*
X0255250Y0188084D01*
X0255250Y0185685D02*
X0244429Y0185685D01*
X0240969Y0183287D02*
X0255250Y0183287D01*
X0255250Y0180888D02*
X0238571Y0180888D01*
X0236172Y0178490D02*
X0255250Y0178490D01*
X0255250Y0176091D02*
X0233774Y0176091D01*
X0222471Y0185685D02*
X0219650Y0185685D01*
X0219650Y0188084D02*
X0221500Y0188084D01*
X0221954Y0190482D02*
X0219650Y0190482D01*
X0219650Y0192881D02*
X0224750Y0192881D01*
X0224750Y0195279D02*
X0219650Y0195279D01*
X0219650Y0197678D02*
X0224750Y0197678D01*
X0224750Y0200076D02*
X0219650Y0200076D01*
X0222200Y0201000D02*
X0222200Y0206000D01*
X0222200Y0206000D01*
X0222200Y0211000D01*
X0224271Y0211000D01*
X0224750Y0210521D01*
X0224750Y0230772D01*
X0224478Y0230500D01*
X0221933Y0230500D01*
X0219650Y0228217D01*
X0219650Y0210521D01*
X0220129Y0211000D01*
X0222200Y0211000D01*
X0222200Y0206000D01*
X0222200Y0201000D01*
X0222200Y0202475D02*
X0222200Y0202475D01*
X0222200Y0204873D02*
X0222200Y0204873D01*
X0222200Y0206000D02*
X0222200Y0206000D01*
X0222200Y0207272D02*
X0222200Y0207272D01*
X0222200Y0209670D02*
X0222200Y0209670D01*
X0219650Y0212069D02*
X0224750Y0212069D01*
X0224750Y0214468D02*
X0219650Y0214468D01*
X0219650Y0216866D02*
X0224750Y0216866D01*
X0224750Y0219265D02*
X0219650Y0219265D01*
X0219650Y0221663D02*
X0224750Y0221663D01*
X0224750Y0224062D02*
X0219650Y0224062D01*
X0219650Y0226460D02*
X0224750Y0226460D01*
X0224750Y0228859D02*
X0220291Y0228859D01*
X0214623Y0233656D02*
X0211615Y0233656D01*
X0212200Y0233071D02*
X0209271Y0236000D01*
X0207200Y0236000D01*
X0207200Y0231000D01*
X0212200Y0231000D01*
X0212200Y0233071D01*
X0212200Y0231257D02*
X0212569Y0231257D01*
X0212200Y0231000D02*
X0207200Y0231000D01*
X0207200Y0231000D01*
X0207200Y0231000D01*
X0207200Y0226000D01*
X0209271Y0226000D01*
X0212200Y0228929D01*
X0212200Y0231000D01*
X0212250Y0228859D02*
X0212130Y0228859D01*
X0212250Y0226460D02*
X0209731Y0226460D01*
X0207200Y0226460D02*
X0207200Y0226460D01*
X0207200Y0226000D02*
X0205129Y0226000D01*
X0202200Y0228929D01*
X0202200Y0231000D01*
X0207200Y0231000D01*
X0207200Y0231000D01*
X0207200Y0231000D01*
X0207200Y0236000D01*
X0205129Y0236000D01*
X0202200Y0233071D01*
X0202200Y0231000D01*
X0207200Y0231000D01*
X0207200Y0226000D01*
X0204669Y0226460D02*
X0195900Y0226460D01*
X0195900Y0224062D02*
X0212250Y0224062D01*
X0212250Y0221663D02*
X0195900Y0221663D01*
X0195900Y0219265D02*
X0203393Y0219265D01*
X0202200Y0218071D02*
X0202200Y0216000D01*
X0207200Y0216000D01*
X0212200Y0216000D01*
X0212200Y0218071D01*
X0209271Y0221000D01*
X0207200Y0221000D01*
X0207200Y0216000D01*
X0207200Y0216000D01*
X0207200Y0216000D01*
X0212200Y0216000D01*
X0212200Y0213929D01*
X0209271Y0211000D01*
X0207200Y0211000D01*
X0207200Y0216000D01*
X0207200Y0216000D01*
X0207200Y0216000D01*
X0207200Y0221000D01*
X0205129Y0221000D01*
X0202200Y0218071D01*
X0202200Y0216866D02*
X0195900Y0216866D01*
X0195900Y0214468D02*
X0202200Y0214468D01*
X0202200Y0213929D02*
X0202200Y0216000D01*
X0207200Y0216000D01*
X0207200Y0211000D01*
X0205129Y0211000D01*
X0202200Y0213929D01*
X0204060Y0212069D02*
X0195900Y0212069D01*
X0195900Y0209670D02*
X0212250Y0209670D01*
X0212250Y0207272D02*
X0195900Y0207272D01*
X0195900Y0204873D02*
X0204002Y0204873D01*
X0205129Y0206000D02*
X0202200Y0203071D01*
X0202200Y0201000D01*
X0207200Y0201000D01*
X0212200Y0201000D01*
X0212200Y0203071D01*
X0209271Y0206000D01*
X0207200Y0206000D01*
X0207200Y0201000D01*
X0207200Y0201000D01*
X0207200Y0201000D01*
X0212200Y0201000D01*
X0212200Y0198929D01*
X0209271Y0196000D01*
X0207200Y0196000D01*
X0207200Y0201000D01*
X0207200Y0201000D01*
X0207200Y0201000D01*
X0207200Y0206000D01*
X0205129Y0206000D01*
X0207200Y0204873D02*
X0207200Y0204873D01*
X0207200Y0202475D02*
X0207200Y0202475D01*
X0207200Y0201000D02*
X0202200Y0201000D01*
X0202200Y0198929D01*
X0205129Y0196000D01*
X0207200Y0196000D01*
X0207200Y0201000D01*
X0207200Y0200076D02*
X0207200Y0200076D01*
X0207200Y0197678D02*
X0207200Y0197678D01*
X0210949Y0197678D02*
X0212250Y0197678D01*
X0212200Y0200076D02*
X0212250Y0200076D01*
X0212200Y0202475D02*
X0212250Y0202475D01*
X0212250Y0204873D02*
X0210398Y0204873D01*
X0203451Y0197678D02*
X0195900Y0197678D01*
X0195900Y0200076D02*
X0202200Y0200076D01*
X0202200Y0202475D02*
X0195900Y0202475D01*
X0195997Y0195279D02*
X0212250Y0195279D01*
X0212250Y0192881D02*
X0198738Y0192881D01*
X0199150Y0190482D02*
X0204611Y0190482D01*
X0207200Y0212069D02*
X0207200Y0212069D01*
X0207200Y0214468D02*
X0207200Y0214468D01*
X0207200Y0216866D02*
X0207200Y0216866D01*
X0207200Y0219265D02*
X0207200Y0219265D01*
X0211007Y0219265D02*
X0212250Y0219265D01*
X0212200Y0216866D02*
X0212250Y0216866D01*
X0212200Y0214468D02*
X0212250Y0214468D01*
X0212250Y0212069D02*
X0210340Y0212069D01*
X0207200Y0228859D02*
X0207200Y0228859D01*
X0207200Y0231257D02*
X0207200Y0231257D01*
X0207200Y0233656D02*
X0207200Y0233656D01*
X0202785Y0233656D02*
X0195900Y0233656D01*
X0195900Y0236054D02*
X0216700Y0236054D01*
X0216874Y0238453D02*
X0195900Y0238453D01*
X0195900Y0240851D02*
X0219273Y0240851D01*
X0217200Y0246000D02*
X0215129Y0246000D01*
X0212554Y0248575D01*
X0209478Y0245500D01*
X0204922Y0245500D01*
X0201700Y0248722D01*
X0201700Y0253278D01*
X0204922Y0256500D01*
X0209478Y0256500D01*
X0212554Y0253425D01*
X0215129Y0256000D01*
X0217200Y0256000D01*
X0217200Y0251000D01*
X0217200Y0251000D01*
X0217200Y0246000D01*
X0217200Y0248047D02*
X0217200Y0248047D01*
X0217200Y0250445D02*
X0217200Y0250445D01*
X0217200Y0252844D02*
X0217200Y0252844D01*
X0217200Y0255242D02*
X0217200Y0255242D01*
X0218063Y0257641D02*
X0195900Y0257641D01*
X0195900Y0260039D02*
X0220323Y0260039D01*
X0214371Y0255242D02*
X0210736Y0255242D01*
X0203664Y0255242D02*
X0195900Y0255242D01*
X0195900Y0252844D02*
X0201700Y0252844D01*
X0201700Y0250445D02*
X0195900Y0250445D01*
X0195900Y0248047D02*
X0202375Y0248047D01*
X0204774Y0245648D02*
X0195900Y0245648D01*
X0195900Y0243250D02*
X0224750Y0243250D01*
X0224750Y0245648D02*
X0209626Y0245648D01*
X0212025Y0248047D02*
X0213082Y0248047D01*
X0221318Y0248047D02*
X0224750Y0248047D01*
X0222522Y0250445D02*
X0222200Y0250445D01*
X0228190Y0255242D02*
X0228477Y0255242D01*
X0228696Y0254940D02*
X0229368Y0254268D01*
X0230137Y0253709D01*
X0230984Y0253278D01*
X0231888Y0252984D01*
X0232827Y0252835D01*
X0233223Y0252835D01*
X0233223Y0258794D01*
X0233382Y0258794D01*
X0233382Y0252835D01*
X0233778Y0252835D01*
X0234716Y0252984D01*
X0235620Y0253278D01*
X0236467Y0253709D01*
X0237236Y0254268D01*
X0237908Y0254940D01*
X0238467Y0255709D01*
X0238899Y0256556D01*
X0239192Y0257460D01*
X0239341Y0258399D01*
X0239341Y0258794D01*
X0233382Y0258794D01*
X0233382Y0258954D01*
X0233223Y0258954D01*
X0233223Y0264913D01*
X0232827Y0264913D01*
X0231888Y0264764D01*
X0230984Y0264470D01*
X0230137Y0264039D01*
X0229368Y0263480D01*
X0228696Y0262808D01*
X0228138Y0262039D01*
X0227706Y0261192D01*
X0227412Y0260288D01*
X0227264Y0259349D01*
X0227264Y0258954D01*
X0233223Y0258954D01*
X0233223Y0258794D01*
X0227264Y0258794D01*
X0227264Y0258399D01*
X0227412Y0257460D01*
X0227706Y0256556D01*
X0228138Y0255709D01*
X0228696Y0254940D01*
X0230589Y0252844D02*
X0232775Y0252844D01*
X0233223Y0252844D02*
X0233382Y0252844D01*
X0233830Y0252844D02*
X0249070Y0252844D01*
X0248975Y0255242D02*
X0238128Y0255242D01*
X0239221Y0257641D02*
X0246577Y0257641D01*
X0244178Y0260039D02*
X0239232Y0260039D01*
X0239192Y0260288D02*
X0239341Y0259349D01*
X0239341Y0258954D01*
X0233382Y0258954D01*
X0233382Y0264913D01*
X0233778Y0264913D01*
X0234716Y0264764D01*
X0235620Y0264470D01*
X0236467Y0264039D01*
X0237236Y0263480D01*
X0237908Y0262808D01*
X0238467Y0262039D01*
X0238899Y0261192D01*
X0239192Y0260288D01*
X0238177Y0262438D02*
X0241780Y0262438D01*
X0241000Y0264836D02*
X0234260Y0264836D01*
X0233382Y0264836D02*
X0233223Y0264836D01*
X0232345Y0264836D02*
X0195900Y0264836D01*
X0195900Y0262438D02*
X0228427Y0262438D01*
X0227373Y0260039D02*
X0224077Y0260039D01*
X0226337Y0257641D02*
X0227384Y0257641D01*
X0233223Y0257641D02*
X0233382Y0257641D01*
X0233382Y0260039D02*
X0233223Y0260039D01*
X0233223Y0262438D02*
X0233382Y0262438D01*
X0233382Y0255242D02*
X0233223Y0255242D01*
X0232150Y0250445D02*
X0246524Y0250445D01*
X0245661Y0248047D02*
X0232150Y0248047D01*
X0232150Y0245648D02*
X0245709Y0245648D01*
X0246766Y0243250D02*
X0232150Y0243250D01*
X0232150Y0240851D02*
X0250111Y0240851D01*
X0252750Y0238453D02*
X0232150Y0238453D01*
X0232150Y0236054D02*
X0252750Y0236054D01*
X0252750Y0233656D02*
X0232150Y0233656D01*
X0232150Y0231257D02*
X0252750Y0231257D01*
X0252750Y0228859D02*
X0232150Y0228859D01*
X0232150Y0226460D02*
X0252750Y0226460D01*
X0252750Y0224062D02*
X0232150Y0224062D01*
X0232150Y0221663D02*
X0252750Y0221663D01*
X0252750Y0219265D02*
X0232150Y0219265D01*
X0232150Y0216866D02*
X0252750Y0216866D01*
X0252750Y0214468D02*
X0250804Y0214468D01*
X0247200Y0214468D02*
X0247200Y0214468D01*
X0247200Y0216000D02*
X0245129Y0216000D01*
X0242200Y0213071D01*
X0242200Y0211000D01*
X0247200Y0211000D01*
X0247200Y0211000D01*
X0247200Y0211000D01*
X0247200Y0216000D01*
X0243596Y0214468D02*
X0232150Y0214468D01*
X0232150Y0212069D02*
X0242200Y0212069D01*
X0242200Y0211000D02*
X0242200Y0208929D01*
X0245129Y0206000D01*
X0247200Y0206000D01*
X0247200Y0211000D01*
X0242200Y0211000D01*
X0242200Y0209670D02*
X0232150Y0209670D01*
X0232150Y0207272D02*
X0243857Y0207272D01*
X0247200Y0207272D02*
X0247200Y0207272D01*
X0247200Y0209670D02*
X0247200Y0209670D01*
X0247200Y0212069D02*
X0247200Y0212069D01*
X0250543Y0207272D02*
X0252750Y0207272D01*
X0252750Y0204873D02*
X0232150Y0204873D01*
X0232150Y0202475D02*
X0253326Y0202475D01*
X0255580Y0200076D02*
X0232150Y0200076D01*
X0232150Y0197678D02*
X0257979Y0197678D01*
X0260186Y0195279D02*
X0232150Y0195279D01*
X0264150Y0174429D02*
X0265065Y0174050D01*
X0266835Y0174050D01*
X0268471Y0174727D01*
X0268543Y0174800D01*
X0291686Y0174800D01*
X0293046Y0175363D01*
X0294087Y0176404D01*
X0294650Y0177764D01*
X0294650Y0178317D01*
X0301500Y0171467D01*
X0301500Y0168639D01*
X0304839Y0165300D01*
X0309561Y0165300D01*
X0312554Y0168293D01*
X0315046Y0165800D01*
X0317200Y0165800D01*
X0319354Y0165800D01*
X0319750Y0166196D01*
X0319750Y0160033D01*
X0295900Y0136183D01*
X0295900Y0146736D01*
X0295337Y0148096D01*
X0294296Y0149137D01*
X0285400Y0158033D01*
X0285400Y0158135D01*
X0284723Y0159771D01*
X0283471Y0161023D01*
X0281835Y0161700D01*
X0280065Y0161700D01*
X0278429Y0161023D01*
X0277177Y0159771D01*
X0276500Y0158135D01*
X0276500Y0156365D01*
X0277177Y0154729D01*
X0278429Y0153477D01*
X0280065Y0152800D01*
X0280167Y0152800D01*
X0288500Y0144467D01*
X0288500Y0102950D01*
X0287565Y0102950D01*
X0285929Y0102273D01*
X0284677Y0101021D01*
X0284000Y0099385D01*
X0284000Y0097615D01*
X0284677Y0095979D01*
X0284750Y0095907D01*
X0284750Y0086871D01*
X0283473Y0087400D01*
X0280927Y0087400D01*
X0278575Y0086426D01*
X0277200Y0085051D01*
X0276650Y0085601D01*
X0276650Y0136885D01*
X0275973Y0138521D01*
X0274721Y0139773D01*
X0264150Y0150343D01*
X0264150Y0174429D01*
X0264150Y0173693D02*
X0299275Y0173693D01*
X0301500Y0171294D02*
X0264150Y0171294D01*
X0264150Y0168896D02*
X0301500Y0168896D01*
X0303642Y0166497D02*
X0264150Y0166497D01*
X0264150Y0164099D02*
X0319750Y0164099D01*
X0319750Y0161700D02*
X0264150Y0161700D01*
X0264150Y0159302D02*
X0276983Y0159302D01*
X0276500Y0156903D02*
X0264150Y0156903D01*
X0264150Y0154505D02*
X0277402Y0154505D01*
X0280861Y0152106D02*
X0264150Y0152106D01*
X0264786Y0149708D02*
X0283260Y0149708D01*
X0285658Y0147309D02*
X0267184Y0147309D01*
X0269583Y0144911D02*
X0288057Y0144911D01*
X0288500Y0142512D02*
X0271981Y0142512D01*
X0274380Y0140114D02*
X0288500Y0140114D01*
X0288500Y0137715D02*
X0276306Y0137715D01*
X0276650Y0135317D02*
X0288500Y0135317D01*
X0288500Y0132918D02*
X0276650Y0132918D01*
X0276650Y0130520D02*
X0288500Y0130520D01*
X0288500Y0128121D02*
X0276650Y0128121D01*
X0276650Y0125723D02*
X0288500Y0125723D01*
X0288500Y0123324D02*
X0276650Y0123324D01*
X0276650Y0120926D02*
X0288500Y0120926D01*
X0288500Y0118527D02*
X0276650Y0118527D01*
X0276650Y0116129D02*
X0288500Y0116129D01*
X0288500Y0113730D02*
X0276650Y0113730D01*
X0276650Y0111332D02*
X0288500Y0111332D01*
X0288500Y0108933D02*
X0276650Y0108933D01*
X0276650Y0106534D02*
X0288500Y0106534D01*
X0288500Y0104136D02*
X0276650Y0104136D01*
X0276650Y0101737D02*
X0285394Y0101737D01*
X0284000Y0099339D02*
X0276650Y0099339D01*
X0276650Y0096940D02*
X0284279Y0096940D01*
X0284750Y0094542D02*
X0276650Y0094542D01*
X0276650Y0092143D02*
X0284750Y0092143D01*
X0284750Y0089745D02*
X0276650Y0089745D01*
X0276650Y0087346D02*
X0280798Y0087346D01*
X0283602Y0087346D02*
X0284750Y0087346D01*
X0308250Y0108933D02*
X0339000Y0108933D01*
X0339000Y0106534D02*
X0310648Y0106534D01*
X0313047Y0104136D02*
X0339000Y0104136D01*
X0339000Y0101737D02*
X0315445Y0101737D01*
X0317844Y0099339D02*
X0339000Y0099339D01*
X0339000Y0096940D02*
X0320242Y0096940D01*
X0322641Y0094542D02*
X0339000Y0094542D01*
X0339000Y0092143D02*
X0325039Y0092143D01*
X0327438Y0089745D02*
X0339000Y0089745D01*
X0339000Y0087346D02*
X0329836Y0087346D01*
X0331855Y0084948D02*
X0339000Y0084948D01*
X0339000Y0082549D02*
X0332150Y0082549D01*
X0332150Y0080151D02*
X0339000Y0080151D01*
X0339000Y0077752D02*
X0332150Y0077752D01*
X0332150Y0075354D02*
X0339000Y0075354D01*
X0339000Y0072955D02*
X0332150Y0072955D01*
X0332150Y0070557D02*
X0339000Y0070557D01*
X0339000Y0068158D02*
X0332150Y0068158D01*
X0332150Y0065760D02*
X0339000Y0065760D01*
X0339000Y0063361D02*
X0332150Y0063361D01*
X0332150Y0060963D02*
X0339000Y0060963D01*
X0339000Y0058564D02*
X0332150Y0058564D01*
X0332150Y0056166D02*
X0339000Y0056166D01*
X0339000Y0053767D02*
X0332150Y0053767D01*
X0332150Y0051369D02*
X0339000Y0051369D01*
X0339000Y0048970D02*
X0332150Y0048970D01*
X0332150Y0046572D02*
X0339000Y0046572D01*
X0339000Y0044173D02*
X0332150Y0044173D01*
X0332150Y0041775D02*
X0339000Y0041775D01*
X0339000Y0039376D02*
X0332150Y0039376D01*
X0332150Y0036978D02*
X0339000Y0036978D01*
X0339000Y0034579D02*
X0331012Y0034579D01*
X0328613Y0032181D02*
X0339000Y0032181D01*
X0339000Y0029782D02*
X0328600Y0029782D01*
X0327629Y0027384D02*
X0339000Y0027384D01*
X0339000Y0024985D02*
X0324403Y0024985D01*
X0319997Y0024985D02*
X0314403Y0024985D01*
X0309997Y0024985D02*
X0307367Y0024985D01*
X0297033Y0024985D02*
X0290168Y0024985D01*
X0292566Y0027384D02*
X0295800Y0027384D01*
X0295800Y0029782D02*
X0294965Y0029782D01*
X0287769Y0022587D02*
X0339000Y0022587D01*
X0339000Y0020188D02*
X0285371Y0020188D01*
X0282972Y0017790D02*
X0339000Y0017790D01*
X0339000Y0015391D02*
X0280574Y0015391D01*
X0204750Y0087346D02*
X0203602Y0087346D01*
X0204750Y0089745D02*
X0196178Y0089745D01*
X0198576Y0092143D02*
X0204750Y0092143D01*
X0204750Y0094542D02*
X0200601Y0094542D01*
X0200900Y0096940D02*
X0204750Y0096940D01*
X0204750Y0099339D02*
X0200900Y0099339D01*
X0200900Y0101737D02*
X0204750Y0101737D01*
X0200798Y0087346D02*
X0193779Y0087346D01*
X0229650Y0108933D02*
X0241000Y0108933D01*
X0241000Y0106534D02*
X0230985Y0106534D01*
X0233735Y0104136D02*
X0241000Y0104136D01*
X0241000Y0101737D02*
X0234150Y0101737D01*
X0233400Y0099339D02*
X0241000Y0099339D01*
X0241000Y0096940D02*
X0233400Y0096940D01*
X0233891Y0094542D02*
X0241000Y0094542D01*
X0240357Y0092143D02*
X0236289Y0092143D01*
X0238688Y0089745D02*
X0240403Y0089745D01*
X0241000Y0111332D02*
X0229650Y0111332D01*
X0229650Y0113730D02*
X0240487Y0113730D01*
X0238089Y0116129D02*
X0229650Y0116129D01*
X0229650Y0118527D02*
X0235690Y0118527D01*
X0232305Y0120926D02*
X0229650Y0120926D01*
X0229650Y0123324D02*
X0230474Y0123324D01*
X0230286Y0125723D02*
X0229650Y0125723D01*
X0229650Y0128121D02*
X0231778Y0128121D01*
X0229650Y0130520D02*
X0244750Y0130520D01*
X0244750Y0132918D02*
X0229650Y0132918D01*
X0229650Y0135317D02*
X0244750Y0135317D01*
X0244750Y0137715D02*
X0229650Y0137715D01*
X0229650Y0140114D02*
X0244750Y0140114D01*
X0244750Y0142512D02*
X0229650Y0142512D01*
X0229650Y0144911D02*
X0244750Y0144911D01*
X0244750Y0147309D02*
X0229650Y0147309D01*
X0229650Y0149708D02*
X0244750Y0149708D01*
X0244750Y0152106D02*
X0229650Y0152106D01*
X0229650Y0154505D02*
X0244750Y0154505D01*
X0244750Y0156903D02*
X0230400Y0156903D01*
X0229917Y0159302D02*
X0244750Y0159302D01*
X0245253Y0161700D02*
X0229150Y0161700D01*
X0228751Y0164099D02*
X0246899Y0164099D01*
X0284917Y0159302D02*
X0319019Y0159302D01*
X0316621Y0156903D02*
X0286529Y0156903D01*
X0288928Y0154505D02*
X0314222Y0154505D01*
X0311824Y0152106D02*
X0291326Y0152106D01*
X0293725Y0149708D02*
X0309425Y0149708D01*
X0307027Y0147309D02*
X0295663Y0147309D01*
X0295900Y0144911D02*
X0304628Y0144911D01*
X0302230Y0142512D02*
X0295900Y0142512D01*
X0295900Y0140114D02*
X0299831Y0140114D01*
X0297433Y0137715D02*
X0295900Y0137715D01*
X0300702Y0130520D02*
X0339000Y0130520D01*
X0339000Y0132918D02*
X0303101Y0132918D01*
X0305499Y0135317D02*
X0339000Y0135317D01*
X0339000Y0137715D02*
X0307898Y0137715D01*
X0310296Y0140114D02*
X0339000Y0140114D01*
X0339000Y0142512D02*
X0312695Y0142512D01*
X0315093Y0144911D02*
X0339000Y0144911D01*
X0339000Y0147309D02*
X0317492Y0147309D01*
X0319890Y0149708D02*
X0339000Y0149708D01*
X0339000Y0152106D02*
X0322289Y0152106D01*
X0324687Y0154505D02*
X0339000Y0154505D01*
X0339000Y0156903D02*
X0326793Y0156903D01*
X0327150Y0159302D02*
X0339000Y0159302D01*
X0339000Y0161700D02*
X0327150Y0161700D01*
X0327150Y0164099D02*
X0339000Y0164099D01*
X0339000Y0166497D02*
X0327150Y0166497D01*
X0327150Y0168896D02*
X0339000Y0168896D01*
X0339000Y0171294D02*
X0327150Y0171294D01*
X0327150Y0173693D02*
X0339000Y0173693D01*
X0339000Y0176091D02*
X0327150Y0176091D01*
X0327150Y0178490D02*
X0339000Y0178490D01*
X0339000Y0180888D02*
X0327150Y0180888D01*
X0327150Y0183287D02*
X0339000Y0183287D01*
X0339000Y0185685D02*
X0327150Y0185685D01*
X0327150Y0188084D02*
X0339000Y0188084D01*
X0339000Y0190482D02*
X0327150Y0190482D01*
X0327150Y0192881D02*
X0339000Y0192881D01*
X0339000Y0195279D02*
X0327150Y0195279D01*
X0325755Y0197678D02*
X0339000Y0197678D01*
X0339000Y0200076D02*
X0323356Y0200076D01*
X0322900Y0202475D02*
X0339000Y0202475D01*
X0339000Y0204873D02*
X0321388Y0204873D01*
X0321533Y0207272D02*
X0339000Y0207272D01*
X0339000Y0209670D02*
X0322900Y0209670D01*
X0322900Y0212069D02*
X0339000Y0212069D01*
X0339000Y0214468D02*
X0321793Y0214468D01*
X0312607Y0214468D02*
X0311793Y0214468D01*
X0302606Y0214468D02*
X0288965Y0214468D01*
X0286567Y0216866D02*
X0339000Y0216866D01*
X0339000Y0219265D02*
X0284168Y0219265D01*
X0282150Y0221663D02*
X0339000Y0221663D01*
X0339000Y0224062D02*
X0282150Y0224062D01*
X0282150Y0226460D02*
X0339000Y0226460D01*
X0339000Y0228859D02*
X0282150Y0228859D01*
X0282150Y0231257D02*
X0339000Y0231257D01*
X0339000Y0233656D02*
X0282150Y0233656D01*
X0282150Y0236054D02*
X0339000Y0236054D01*
X0339000Y0238453D02*
X0282150Y0238453D01*
X0282150Y0240851D02*
X0339000Y0240851D01*
X0339000Y0243250D02*
X0282150Y0243250D01*
X0282150Y0245648D02*
X0339000Y0245648D01*
X0339000Y0248047D02*
X0282150Y0248047D01*
X0282150Y0250445D02*
X0339000Y0250445D01*
X0339000Y0252844D02*
X0282150Y0252844D01*
X0282150Y0255242D02*
X0339000Y0255242D01*
X0339000Y0257641D02*
X0282150Y0257641D01*
X0282150Y0260039D02*
X0339000Y0260039D01*
X0339000Y0262438D02*
X0324261Y0262438D01*
X0323930Y0262301D02*
X0327128Y0263625D01*
X0329575Y0266072D01*
X0330899Y0269270D01*
X0330899Y0272730D01*
X0329575Y0275928D01*
X0327128Y0278375D01*
X0323930Y0279699D01*
X0320470Y0279699D01*
X0317272Y0278375D01*
X0314825Y0275928D01*
X0313501Y0272730D01*
X0313501Y0269270D01*
X0314825Y0266072D01*
X0317272Y0263625D01*
X0320470Y0262301D01*
X0323930Y0262301D01*
X0328339Y0264836D02*
X0339000Y0264836D01*
X0339000Y0267235D02*
X0330056Y0267235D01*
X0330899Y0269633D02*
X0339000Y0269633D01*
X0339000Y0272032D02*
X0330899Y0272032D01*
X0330195Y0274430D02*
X0339000Y0274430D01*
X0339000Y0276829D02*
X0328674Y0276829D01*
X0325070Y0279227D02*
X0339000Y0279227D01*
X0339000Y0281626D02*
X0270557Y0281626D01*
X0272955Y0279227D02*
X0319330Y0279227D01*
X0315726Y0276829D02*
X0275354Y0276829D01*
X0277752Y0274430D02*
X0314205Y0274430D01*
X0313501Y0272032D02*
X0280151Y0272032D01*
X0281985Y0269633D02*
X0313501Y0269633D01*
X0314344Y0267235D02*
X0282150Y0267235D01*
X0282150Y0264836D02*
X0316061Y0264836D01*
X0320139Y0262438D02*
X0282150Y0262438D01*
X0271000Y0255717D02*
X0271000Y0243683D01*
X0250621Y0264061D01*
X0250786Y0264008D01*
X0251725Y0263859D01*
X0252120Y0263859D01*
X0252120Y0269818D01*
X0252280Y0269818D01*
X0252280Y0263859D01*
X0252675Y0263859D01*
X0253614Y0264008D01*
X0254518Y0264301D01*
X0255365Y0264733D01*
X0256134Y0265292D01*
X0256806Y0265964D01*
X0257365Y0266733D01*
X0257796Y0267580D01*
X0258090Y0268484D01*
X0258110Y0268608D01*
X0271000Y0255717D01*
X0271000Y0255242D02*
X0259440Y0255242D01*
X0257042Y0257641D02*
X0269077Y0257641D01*
X0266678Y0260039D02*
X0254643Y0260039D01*
X0252245Y0262438D02*
X0264280Y0262438D01*
X0261881Y0264836D02*
X0255507Y0264836D01*
X0257620Y0267235D02*
X0259483Y0267235D01*
X0252280Y0267235D02*
X0252120Y0267235D01*
X0252120Y0269633D02*
X0252280Y0269633D01*
X0252280Y0264836D02*
X0252120Y0264836D01*
X0241000Y0267235D02*
X0220506Y0267235D01*
X0219271Y0266000D02*
X0222200Y0268929D01*
X0222200Y0271000D01*
X0222200Y0273071D01*
X0219271Y0276000D01*
X0217200Y0276000D01*
X0217200Y0271000D01*
X0222200Y0271000D01*
X0217200Y0271000D01*
X0217200Y0271000D01*
X0217200Y0271000D01*
X0217200Y0266000D01*
X0219271Y0266000D01*
X0217200Y0266000D02*
X0217200Y0271000D01*
X0217200Y0271000D01*
X0217200Y0271000D01*
X0212200Y0271000D01*
X0212200Y0273071D01*
X0215129Y0276000D01*
X0217200Y0276000D01*
X0217200Y0271000D01*
X0212200Y0271000D01*
X0212200Y0268929D01*
X0215129Y0266000D01*
X0217200Y0266000D01*
X0217200Y0267235D02*
X0217200Y0267235D01*
X0217200Y0269633D02*
X0217200Y0269633D01*
X0217200Y0272032D02*
X0217200Y0272032D01*
X0217200Y0274430D02*
X0217200Y0274430D01*
X0220841Y0274430D02*
X0241000Y0274430D01*
X0241000Y0272032D02*
X0222200Y0272032D01*
X0222200Y0269633D02*
X0241000Y0269633D01*
X0261839Y0252844D02*
X0271000Y0252844D01*
X0271000Y0250445D02*
X0264237Y0250445D01*
X0266636Y0248047D02*
X0271000Y0248047D01*
X0271000Y0245648D02*
X0269034Y0245648D01*
X0291364Y0212069D02*
X0301500Y0212069D01*
X0301500Y0209670D02*
X0293762Y0209670D01*
X0296161Y0207272D02*
X0302867Y0207272D01*
X0303012Y0204873D02*
X0298559Y0204873D01*
X0300958Y0202475D02*
X0301500Y0202475D01*
X0296876Y0176091D02*
X0293774Y0176091D01*
X0310758Y0166497D02*
X0314349Y0166497D01*
X0317200Y0166497D02*
X0317200Y0166497D01*
X0317200Y0165800D02*
X0317200Y0171000D01*
X0317200Y0165800D01*
X0317200Y0168896D02*
X0317200Y0168896D01*
X0317200Y0171000D02*
X0317200Y0171000D01*
X0320470Y0129699D02*
X0317272Y0128375D01*
X0314825Y0125928D01*
X0313501Y0122730D01*
X0313501Y0119270D01*
X0314825Y0116072D01*
X0317272Y0113625D01*
X0320470Y0112301D01*
X0323930Y0112301D01*
X0327128Y0113625D01*
X0329575Y0116072D01*
X0330899Y0119270D01*
X0330899Y0122730D01*
X0329575Y0125928D01*
X0327128Y0128375D01*
X0323930Y0129699D01*
X0320470Y0129699D01*
X0317019Y0128121D02*
X0299364Y0128121D01*
X0295900Y0125723D02*
X0314740Y0125723D01*
X0313747Y0123324D02*
X0295900Y0123324D01*
X0295900Y0120926D02*
X0313501Y0120926D01*
X0313808Y0118527D02*
X0299710Y0118527D01*
X0301446Y0116129D02*
X0314802Y0116129D01*
X0317167Y0113730D02*
X0303453Y0113730D01*
X0305851Y0111332D02*
X0339000Y0111332D01*
X0339000Y0113730D02*
X0327233Y0113730D01*
X0329598Y0116129D02*
X0339000Y0116129D01*
X0339000Y0118527D02*
X0330592Y0118527D01*
X0330899Y0120926D02*
X0339000Y0120926D01*
X0339000Y0123324D02*
X0330653Y0123324D01*
X0329660Y0125723D02*
X0339000Y0125723D01*
X0339000Y0128121D02*
X0327381Y0128121D01*
X0244750Y0128121D02*
X0237622Y0128121D01*
X0239114Y0125723D02*
X0244750Y0125723D01*
X0244750Y0123324D02*
X0241359Y0123324D01*
X0243757Y0120926D02*
X0244750Y0120926D01*
X0159997Y0024985D02*
X0155400Y0024985D01*
X0155388Y0022587D02*
X0164750Y0022587D01*
X0165299Y0020188D02*
X0153931Y0020188D01*
X0115469Y0020188D02*
X0113931Y0020188D01*
X0029997Y0024985D02*
X0027367Y0024985D01*
X0058400Y0190482D02*
X0064611Y0190482D01*
X0065129Y0196000D02*
X0067200Y0196000D01*
X0069271Y0196000D01*
X0072200Y0198929D01*
X0072200Y0201000D01*
X0072200Y0203071D01*
X0069271Y0206000D01*
X0067200Y0206000D01*
X0067200Y0201000D01*
X0072200Y0201000D01*
X0067200Y0201000D01*
X0067200Y0201000D01*
X0067200Y0201000D01*
X0067200Y0196000D01*
X0067200Y0201000D01*
X0067200Y0201000D01*
X0067200Y0201000D01*
X0062200Y0201000D01*
X0062200Y0203071D01*
X0065129Y0206000D01*
X0067200Y0206000D01*
X0067200Y0201000D01*
X0062200Y0201000D01*
X0062200Y0198929D01*
X0065129Y0196000D01*
X0063451Y0197678D02*
X0058400Y0197678D01*
X0058400Y0200076D02*
X0062200Y0200076D01*
X0062200Y0202475D02*
X0058400Y0202475D01*
X0058400Y0204873D02*
X0064002Y0204873D01*
X0067200Y0204873D02*
X0067200Y0204873D01*
X0067200Y0202475D02*
X0067200Y0202475D01*
X0067200Y0200076D02*
X0067200Y0200076D01*
X0067200Y0197678D02*
X0067200Y0197678D01*
X0070949Y0197678D02*
X0074750Y0197678D01*
X0074750Y0200076D02*
X0072200Y0200076D01*
X0072200Y0202475D02*
X0074750Y0202475D01*
X0074750Y0204873D02*
X0070398Y0204873D01*
X0074750Y0207272D02*
X0058400Y0207272D01*
X0058400Y0209670D02*
X0074750Y0209670D01*
X0074750Y0212069D02*
X0070340Y0212069D01*
X0069271Y0211000D02*
X0072200Y0213929D01*
X0072200Y0216000D01*
X0072200Y0218071D01*
X0069271Y0221000D01*
X0067200Y0221000D01*
X0067200Y0216000D01*
X0072200Y0216000D01*
X0067200Y0216000D01*
X0067200Y0216000D01*
X0067200Y0216000D01*
X0067200Y0211000D01*
X0069271Y0211000D01*
X0067200Y0211000D02*
X0067200Y0216000D01*
X0067200Y0216000D01*
X0067200Y0216000D01*
X0062200Y0216000D01*
X0062200Y0218071D01*
X0065129Y0221000D01*
X0067200Y0221000D01*
X0067200Y0216000D01*
X0062200Y0216000D01*
X0062200Y0213929D01*
X0065129Y0211000D01*
X0067200Y0211000D01*
X0067200Y0212069D02*
X0067200Y0212069D01*
X0067200Y0214468D02*
X0067200Y0214468D01*
X0067200Y0216866D02*
X0067200Y0216866D01*
X0067200Y0219265D02*
X0067200Y0219265D01*
X0071007Y0219265D02*
X0074352Y0219265D01*
X0074000Y0221663D02*
X0058400Y0221663D01*
X0058400Y0219265D02*
X0063393Y0219265D01*
X0062200Y0216866D02*
X0058400Y0216866D01*
X0058400Y0214468D02*
X0062200Y0214468D01*
X0064060Y0212069D02*
X0058400Y0212069D01*
X0058400Y0224062D02*
X0075218Y0224062D01*
X0072130Y0228859D02*
X0082250Y0228859D01*
X0082250Y0231257D02*
X0072200Y0231257D01*
X0072200Y0231000D02*
X0072200Y0233071D01*
X0069271Y0236000D01*
X0067200Y0236000D01*
X0067200Y0231000D01*
X0072200Y0231000D01*
X0067200Y0231000D01*
X0067200Y0231000D01*
X0067200Y0231000D01*
X0067200Y0226000D01*
X0069271Y0226000D01*
X0072200Y0228929D01*
X0072200Y0231000D01*
X0071615Y0233656D02*
X0082250Y0233656D01*
X0082250Y0236054D02*
X0058400Y0236054D01*
X0058400Y0233656D02*
X0062785Y0233656D01*
X0062200Y0233071D02*
X0062200Y0231000D01*
X0067200Y0231000D01*
X0067200Y0231000D01*
X0067200Y0231000D01*
X0067200Y0236000D01*
X0065129Y0236000D01*
X0062200Y0233071D01*
X0062200Y0231257D02*
X0058400Y0231257D01*
X0058400Y0228859D02*
X0062270Y0228859D01*
X0062200Y0228929D02*
X0065129Y0226000D01*
X0067200Y0226000D01*
X0067200Y0231000D01*
X0062200Y0231000D01*
X0062200Y0228929D01*
X0064669Y0226460D02*
X0058400Y0226460D01*
X0067200Y0226460D02*
X0067200Y0226460D01*
X0067200Y0228859D02*
X0067200Y0228859D01*
X0067200Y0231257D02*
X0067200Y0231257D01*
X0067200Y0233656D02*
X0067200Y0233656D01*
X0069731Y0226460D02*
X0082250Y0226460D01*
X0082250Y0224062D02*
X0081682Y0224062D01*
X0074750Y0216866D02*
X0072200Y0216866D01*
X0072200Y0214468D02*
X0074750Y0214468D01*
X0074750Y0195279D02*
X0058400Y0195279D01*
X0058400Y0192881D02*
X0074750Y0192881D01*
X0082250Y0238453D02*
X0058400Y0238453D01*
X0058400Y0240851D02*
X0082250Y0240851D01*
X0082250Y0243250D02*
X0058400Y0243250D01*
X0058400Y0245648D02*
X0082250Y0245648D01*
X0082250Y0248047D02*
X0058400Y0248047D01*
X0058400Y0250445D02*
X0082751Y0250445D01*
X0085061Y0252844D02*
X0058400Y0252844D01*
X0058400Y0255242D02*
X0087460Y0255242D01*
X0058400Y0257641D02*
X0176700Y0257641D01*
X0176700Y0255242D02*
X0165483Y0255242D01*
X0165900Y0252844D02*
X0177578Y0252844D01*
X0178867Y0250445D02*
X0165900Y0250445D01*
X0165900Y0248047D02*
X0176700Y0248047D01*
X0175555Y0245648D02*
X0165900Y0245648D01*
X0165900Y0243250D02*
X0173156Y0243250D01*
X0170758Y0240851D02*
X0165900Y0240851D01*
X0165900Y0238453D02*
X0168359Y0238453D01*
X0165961Y0236054D02*
X0165900Y0236054D01*
X0178461Y0260039D02*
X0058400Y0260039D01*
X0124650Y0232057D02*
X0124650Y0216228D01*
X0124922Y0216500D01*
X0129478Y0216500D01*
X0132554Y0213425D01*
X0135129Y0216000D01*
X0137200Y0216000D01*
X0137200Y0211000D01*
X0137200Y0211000D01*
X0137200Y0216000D01*
X0139271Y0216000D01*
X0139750Y0215521D01*
X0139750Y0230717D01*
X0139688Y0230779D01*
X0139688Y0230779D01*
X0131370Y0239097D01*
X0129999Y0235789D01*
X0127411Y0233201D01*
X0124650Y0232057D01*
X0124650Y0231257D02*
X0139210Y0231257D01*
X0139750Y0228859D02*
X0124650Y0228859D01*
X0124650Y0226460D02*
X0139750Y0226460D01*
X0139750Y0224062D02*
X0124650Y0224062D01*
X0124650Y0221663D02*
X0139750Y0221663D01*
X0139750Y0219265D02*
X0124650Y0219265D01*
X0124650Y0216866D02*
X0139750Y0216866D01*
X0137200Y0214468D02*
X0137200Y0214468D01*
X0137200Y0212069D02*
X0137200Y0212069D01*
X0133596Y0214468D02*
X0131511Y0214468D01*
X0127866Y0233656D02*
X0136812Y0233656D01*
X0134413Y0236054D02*
X0130109Y0236054D01*
X0131103Y0238453D02*
X0132015Y0238453D01*
X0195900Y0231257D02*
X0202200Y0231257D01*
X0202270Y0228859D02*
X0195900Y0228859D01*
X0195900Y0267235D02*
X0213894Y0267235D01*
X0212200Y0269633D02*
X0195900Y0269633D01*
X0195900Y0272032D02*
X0212200Y0272032D01*
X0213559Y0274430D02*
X0195820Y0274430D01*
X0265760Y0286423D02*
X0339000Y0286423D01*
X0339000Y0284024D02*
X0268158Y0284024D01*
D19*
X0259700Y0287250D02*
X0032200Y0287250D01*
X0032200Y0196000D01*
X0027200Y0191000D01*
X0022200Y0186000D02*
X0022200Y0219750D01*
X0018450Y0209750D02*
X0018450Y0179750D01*
X0027200Y0171000D01*
X0027200Y0181000D02*
X0022200Y0186000D01*
X0037200Y0181000D02*
X0050950Y0194750D01*
X0050950Y0277250D01*
X0053450Y0279750D01*
X0244700Y0279750D01*
X0244700Y0264750D01*
X0270950Y0238500D01*
X0270950Y0231000D01*
X0270950Y0191000D01*
X0264700Y0184750D01*
X0265950Y0178500D02*
X0274700Y0178500D01*
X0274700Y0257250D01*
X0254700Y0277250D01*
X0259700Y0287250D02*
X0278450Y0268500D01*
X0278450Y0219750D01*
X0307200Y0191000D01*
X0303450Y0187250D02*
X0303450Y0184750D01*
X0307200Y0181000D01*
X0303450Y0187250D02*
X0292200Y0187250D01*
X0290950Y0186000D01*
X0290950Y0178500D01*
X0274700Y0178500D01*
X0294700Y0183500D02*
X0307200Y0171000D01*
X0323450Y0158500D02*
X0295950Y0131000D01*
X0292200Y0146000D02*
X0292200Y0032250D01*
X0278450Y0018500D01*
X0182200Y0018500D01*
X0182200Y0031000D01*
X0172200Y0024750D02*
X0172200Y0151000D01*
X0177200Y0156000D01*
X0164700Y0158500D02*
X0177200Y0171000D01*
X0182200Y0181000D02*
X0177200Y0186000D01*
X0182200Y0181000D02*
X0182200Y0123500D01*
X0175950Y0117250D01*
X0175950Y0021000D01*
X0169700Y0021000D01*
X0168450Y0022250D01*
X0168450Y0024750D01*
X0162200Y0031000D01*
X0168450Y0039750D02*
X0168450Y0107250D01*
X0164700Y0111000D01*
X0164700Y0158500D01*
X0160950Y0177250D02*
X0163450Y0179750D01*
X0177200Y0193500D01*
X0177200Y0201000D01*
X0172200Y0197250D02*
X0172200Y0226000D01*
X0177200Y0231000D01*
X0177200Y0216000D02*
X0182200Y0211000D01*
X0182200Y0192250D01*
X0180950Y0191000D01*
X0172200Y0197250D02*
X0164700Y0189750D01*
X0160950Y0177250D02*
X0160950Y0122250D01*
X0133450Y0094750D01*
X0133450Y0042250D01*
X0122200Y0031000D01*
X0107200Y0051000D02*
X0095950Y0062250D01*
X0095950Y0101000D01*
X0112200Y0117250D01*
X0112200Y0181000D01*
X0108450Y0184750D01*
X0104700Y0188500D01*
X0104700Y0208500D01*
X0097200Y0216000D01*
X0108450Y0219750D02*
X0097200Y0231000D01*
X0108450Y0219750D02*
X0108450Y0192250D01*
X0118450Y0182250D01*
X0118450Y0093500D01*
X0119700Y0092250D01*
X0123450Y0082250D02*
X0123450Y0159750D01*
X0128450Y0161000D02*
X0128450Y0108500D01*
X0134700Y0102250D01*
X0132200Y0113500D02*
X0132200Y0164750D01*
X0137200Y0149750D02*
X0137200Y0204750D01*
X0120950Y0204750D02*
X0120950Y0239750D01*
X0122200Y0241000D01*
X0125950Y0249750D02*
X0092200Y0249750D01*
X0092200Y0248500D01*
X0090950Y0253500D02*
X0162200Y0253500D01*
X0162200Y0217250D01*
X0143450Y0232250D02*
X0142825Y0232875D01*
X0145950Y0236000D01*
X0142825Y0232875D02*
X0125950Y0249750D01*
X0143450Y0232250D02*
X0143450Y0143500D01*
X0147200Y0139750D01*
X0168450Y0124750D02*
X0168450Y0113500D01*
X0185950Y0106000D02*
X0185950Y0132250D01*
X0197200Y0123500D02*
X0197200Y0096000D01*
X0182200Y0081000D01*
X0193450Y0098500D02*
X0185950Y0106000D01*
X0197200Y0123500D02*
X0213450Y0139750D01*
X0213450Y0151000D01*
X0214700Y0152250D01*
X0218450Y0156000D02*
X0218450Y0106000D01*
X0229700Y0102250D02*
X0229700Y0093500D01*
X0242200Y0081000D01*
X0244700Y0091000D02*
X0244700Y0114750D01*
X0234700Y0124750D01*
X0214700Y0121000D02*
X0208450Y0114750D01*
X0208450Y0072250D01*
X0222200Y0081000D02*
X0222200Y0147250D01*
X0218450Y0156000D02*
X0224700Y0162250D01*
X0225950Y0157250D02*
X0225950Y0094750D01*
X0262200Y0081000D02*
X0262200Y0138500D01*
X0258450Y0142250D01*
X0248450Y0159750D02*
X0248450Y0044750D01*
X0254700Y0038500D02*
X0262200Y0031000D01*
X0254700Y0038500D02*
X0254700Y0167250D01*
X0250950Y0162250D02*
X0248450Y0159750D01*
X0230950Y0178500D02*
X0215950Y0178500D01*
X0215950Y0229750D01*
X0222200Y0236000D01*
X0228450Y0249750D02*
X0222200Y0256000D01*
X0228450Y0249750D02*
X0228450Y0191000D01*
X0225950Y0188500D01*
X0230950Y0178500D02*
X0240950Y0188500D01*
X0280950Y0157250D02*
X0292200Y0146000D01*
X0323450Y0158500D02*
X0323450Y0194750D01*
X0317200Y0201000D01*
X0297200Y0114750D02*
X0328450Y0083500D01*
X0328450Y0037250D01*
X0322200Y0031000D01*
X0288450Y0037250D02*
X0288450Y0098500D01*
X0282200Y0081000D02*
X0277200Y0076000D01*
X0277200Y0052250D01*
X0288450Y0037250D02*
X0282200Y0031000D01*
X0147200Y0058500D02*
X0137200Y0068500D01*
X0137200Y0074750D01*
X0123450Y0082250D02*
X0122200Y0081000D01*
X0097200Y0107250D02*
X0097200Y0126000D01*
X0097200Y0141000D02*
X0107200Y0151000D01*
X0107200Y0157250D01*
X0108450Y0158500D01*
X0103450Y0156000D02*
X0102200Y0157250D01*
X0102200Y0158500D01*
X0095950Y0164750D01*
X0082200Y0139750D02*
X0082200Y0081000D01*
X0088450Y0094750D02*
X0085950Y0097250D01*
X0085950Y0248500D01*
X0090950Y0253500D01*
X0078450Y0221000D02*
X0078450Y0129750D01*
X0055950Y0107250D01*
X0055950Y0044750D01*
X0042200Y0031000D01*
X0082200Y0031000D02*
X0088450Y0037250D01*
X0088450Y0094750D01*
X0089700Y0099750D02*
X0097200Y0107250D01*
X0093450Y0109750D02*
X0092200Y0111000D01*
X0092200Y0189750D01*
X0097825Y0195375D01*
X0100950Y0192250D01*
X0097825Y0195375D02*
X0097200Y0196000D01*
X0097200Y0201000D01*
X0114700Y0198500D02*
X0120950Y0204750D01*
X0182200Y0256000D02*
X0187200Y0261000D01*
X0187200Y0271000D01*
X0189700Y0276000D02*
X0192200Y0273500D01*
X0192200Y0193500D01*
X0194700Y0191000D01*
X0189700Y0276000D02*
X0054700Y0276000D01*
X0054700Y0113500D01*
X0022200Y0081000D01*
X0062200Y0081000D02*
X0062200Y0104750D01*
X0078450Y0121000D01*
X0037200Y0191000D02*
X0047200Y0201000D01*
X0047200Y0218500D01*
M02*
