%
M48
M72
T01C0.01500
T02C0.03200
T03C0.03600
T04C0.04000
T05C0.05118
T06C0.07874
T07C0.12598
%
T01
X107200Y51000
X137200Y74750
X147200Y58500
X168450Y39750
X172200Y24750
X208450Y72250
X225950Y94750
X229700Y102250
X218450Y106000
X214700Y121000
X234700Y124750
X258450Y142250
X280950Y157250
X265950Y178500
X264700Y184750
X265950Y196000
X240950Y188500
X225950Y188500
X224700Y162250
X225950Y157250
X222200Y147250
X214700Y152250
X185950Y132250
X168450Y124750
X168450Y113500
X193450Y98500
X147200Y139750
X137200Y149750
X128450Y161000
X132200Y164750
X123450Y159750
X108450Y158500
X103450Y156000
X95950Y164750
X108450Y184750
X108450Y192250
X100950Y192250
X114700Y198500
X132200Y196000
X137200Y204750
X162200Y217250
X163450Y194750
X164700Y189750
X163450Y179750
X180950Y191000
X194700Y191000
X145950Y236000
X92200Y248500
X78450Y221000
X47200Y218500
X22200Y219750
X18450Y209750
X82200Y139750
X78450Y121000
X93450Y109750
X89700Y99750
X119700Y92250
X134700Y102250
X132200Y113500
X244700Y91000
X288450Y98500
X297200Y114750
X295950Y131000
X254700Y167250
X250950Y162250
X294700Y183500
X270950Y231000
X222200Y256000
X254700Y277250
X277200Y52250
X248450Y44750
T02
X207200Y126000
X207200Y141000
X207200Y156000
X207200Y171000
X207200Y186000
X207200Y201000
X222200Y206000
X207200Y216000
X207200Y231000
X222200Y236000
X217200Y251000
X207200Y251000
X217200Y271000
X187200Y271000
X182200Y256000
X182200Y246000
X177200Y231000
X177200Y216000
X177200Y201000
X177200Y186000
X177200Y171000
X177200Y156000
X177200Y141000
X177200Y126000
X97200Y126000
X97200Y141000
X97200Y156000
X97200Y171000
X97200Y186000
X97200Y201000
X97200Y216000
X97200Y231000
X127200Y211000
X137200Y211000
X67200Y216000
X67200Y201000
X67200Y186000
X67200Y171000
X67200Y156000
X67200Y141000
X67200Y126000
X67200Y231000
X247200Y211000
X257200Y211000
T03
X307200Y211000
X307200Y201000
X307200Y191000
X307200Y181000
X317200Y181000
X317200Y191000
X317200Y201000
X317200Y211000
X317200Y171000
X307200Y171000
X37200Y171000
X27200Y171000
X27200Y181000
X27200Y191000
X27200Y201000
X27200Y211000
X37200Y211000
X37200Y201000
X37200Y191000
X37200Y181000
T04
X22200Y31000
X32200Y31000
X42200Y31000
X62200Y31000
X72200Y31000
X82200Y31000
X102200Y31000
X112200Y31000
X122200Y31000
X142200Y31000
X152200Y31000
X162200Y31000
X182200Y31000
X192200Y31000
X202200Y31000
X222200Y31000
X232200Y31000
X242200Y31000
X262200Y31000
X272200Y31000
X282200Y31000
X302200Y31000
X312200Y31000
X322200Y31000
X322200Y81000
X312200Y81000
X302200Y81000
X282200Y81000
X272200Y81000
X262200Y81000
X242200Y81000
X232200Y81000
X222200Y81000
X202200Y81000
X192200Y81000
X182200Y81000
X162200Y81000
X152200Y81000
X142200Y81000
X122200Y81000
X112200Y81000
X102200Y81000
X82200Y81000
X72200Y81000
X62200Y81000
X42200Y81000
X32200Y81000
X22200Y81000
T05
X233302Y258874
X252200Y269898
X252200Y247063
T06
X122200Y241000
T07
X22200Y271000
X322200Y271000
X322200Y121000
M30
