G75*
%MOIN*%
%OFA0B0*%
%FSLAX25Y25*%
%IPPOS*%
%LPD*%
%AMOC8*
5,1,8,0,0,1.08239X$1,22.5*
%
%ADD10C,0.13398*%
%ADD11C,0.13800*%
%ADD12OC8,0.06800*%
%ADD13OC8,0.06400*%
%ADD14R,0.08200X0.08200*%
%ADD15C,0.08200*%
%ADD16C,0.08477*%
%ADD17R,0.08800X0.03400*%
D10*
X0022200Y0271000D03*
X0322200Y0271000D03*
X0322200Y0121000D03*
D11*
X0122200Y0241000D03*
D12*
X0037200Y0211000D03*
X0037200Y0201000D03*
X0037200Y0191000D03*
X0037200Y0181000D03*
X0027200Y0181000D03*
X0027200Y0191000D03*
X0027200Y0201000D03*
X0027200Y0211000D03*
X0027200Y0171000D03*
X0037200Y0171000D03*
X0307200Y0171000D03*
X0317200Y0171000D03*
X0317200Y0181000D03*
X0317200Y0191000D03*
X0317200Y0201000D03*
X0317200Y0211000D03*
X0307200Y0211000D03*
X0307200Y0201000D03*
X0307200Y0191000D03*
X0307200Y0181000D03*
D13*
X0257200Y0211000D03*
X0247200Y0211000D03*
X0222200Y0206000D03*
X0207200Y0201000D03*
X0207200Y0186000D03*
X0207200Y0171000D03*
X0207200Y0156000D03*
X0207200Y0141000D03*
X0207200Y0126000D03*
X0177200Y0126000D03*
X0177200Y0141000D03*
X0177200Y0156000D03*
X0177200Y0171000D03*
X0177200Y0186000D03*
X0177200Y0201000D03*
X0177200Y0216000D03*
X0177200Y0231000D03*
X0182200Y0246000D03*
X0182200Y0256000D03*
X0187200Y0271000D03*
X0207200Y0251000D03*
X0217200Y0251000D03*
X0222200Y0236000D03*
X0207200Y0231000D03*
X0207200Y0216000D03*
X0217200Y0271000D03*
X0137200Y0211000D03*
X0127200Y0211000D03*
X0097200Y0216000D03*
X0097200Y0201000D03*
X0097200Y0186000D03*
X0097200Y0171000D03*
X0097200Y0156000D03*
X0097200Y0141000D03*
X0097200Y0126000D03*
X0067200Y0126000D03*
X0067200Y0141000D03*
X0067200Y0156000D03*
X0067200Y0171000D03*
X0067200Y0186000D03*
X0067200Y0201000D03*
X0067200Y0216000D03*
X0067200Y0231000D03*
X0097200Y0231000D03*
D14*
X0022200Y0031000D03*
X0062200Y0031000D03*
X0102200Y0031000D03*
X0142200Y0031000D03*
X0182200Y0031000D03*
X0222200Y0031000D03*
X0262200Y0031000D03*
X0302200Y0031000D03*
X0302200Y0081000D03*
X0262200Y0081000D03*
X0222200Y0081000D03*
X0182200Y0081000D03*
X0142200Y0081000D03*
X0102200Y0081000D03*
X0062200Y0081000D03*
X0022200Y0081000D03*
D15*
X0032200Y0081000D03*
X0042200Y0081000D03*
X0072200Y0081000D03*
X0082200Y0081000D03*
X0112200Y0081000D03*
X0122200Y0081000D03*
X0152200Y0081000D03*
X0162200Y0081000D03*
X0192200Y0081000D03*
X0202200Y0081000D03*
X0232200Y0081000D03*
X0242200Y0081000D03*
X0272200Y0081000D03*
X0282200Y0081000D03*
X0312200Y0081000D03*
X0322200Y0081000D03*
X0322200Y0031000D03*
X0312200Y0031000D03*
X0282200Y0031000D03*
X0272200Y0031000D03*
X0242200Y0031000D03*
X0232200Y0031000D03*
X0202200Y0031000D03*
X0192200Y0031000D03*
X0162200Y0031000D03*
X0152200Y0031000D03*
X0122200Y0031000D03*
X0112200Y0031000D03*
X0082200Y0031000D03*
X0072200Y0031000D03*
X0042200Y0031000D03*
X0032200Y0031000D03*
D16*
X0252200Y0247063D03*
X0233302Y0258874D03*
X0252200Y0269898D03*
D17*
X0233620Y0193185D03*
X0233620Y0188185D03*
X0233620Y0183185D03*
X0233620Y0178185D03*
X0233620Y0173185D03*
X0233620Y0168185D03*
X0233620Y0163185D03*
X0233620Y0158185D03*
X0233620Y0153185D03*
X0233620Y0148185D03*
X0233620Y0143185D03*
X0233620Y0138185D03*
X0273220Y0138185D03*
X0273220Y0143185D03*
X0273220Y0148185D03*
X0273220Y0153185D03*
X0273220Y0158185D03*
X0273220Y0163185D03*
X0273220Y0168185D03*
X0273220Y0173185D03*
X0273220Y0178185D03*
X0273220Y0183185D03*
X0273220Y0188185D03*
X0273220Y0193185D03*
X0155110Y0194130D03*
X0155110Y0189130D03*
X0155110Y0184130D03*
X0155110Y0179130D03*
X0155110Y0174130D03*
X0155110Y0169130D03*
X0155110Y0164130D03*
X0155110Y0159130D03*
X0155110Y0154130D03*
X0155110Y0149130D03*
X0155110Y0144130D03*
X0155110Y0139130D03*
X0115510Y0139130D03*
X0115510Y0144130D03*
X0115510Y0149130D03*
X0115510Y0154130D03*
X0115510Y0159130D03*
X0115510Y0164130D03*
X0115510Y0169130D03*
X0115510Y0174130D03*
X0115510Y0179130D03*
X0115510Y0184130D03*
X0115510Y0189130D03*
X0115510Y0194130D03*
M02*
